<svg width="355" height="392" viewBox="0 0 355 392" fill="none" xmlns="http://www.w3.org/2000/svg">
<path d="M20 114.714V311.571L75.8103 341.286V205.714L149.832 244.714L215.63 211.286L284.952 250.286L149.832 322.714V384L339 281.857V218.714L270.853 179.714L339 144.429V81.2857L200.355 7L149.832 33V92.4286L200.355 66.4286L284.952 114.714L149.832 185.286L20 114.714Z" fill="white" stroke="#277A9C"/>
<path d="M271 179.5L215.5 211.5L285.5 250L149 323.5L150 383.5L339 281.5V218.5L271 179.5Z" fill="#277A9C" stroke="#277A9C"/>
<path d="M150 92.1023V32.3814L200.5 7L339 81.1535L284 114L200.5 66.2233L150 92.1023Z" fill="#277A9C" stroke="#277A9C" stroke-width="3"/>
</svg>
