<svg width="428" height="926" viewBox="0 0 428 926" fill="none" xmlns="http://www.w3.org/2000/svg">
<g clip-path="url(#clip0_220_2)">
<rect width="428" height="926" fill="#313334"/>
<path d="M63.165 413.416C55.3052 360.811 17.4015 313.323 -20.2009 343.746V343.746C-39.7393 359.554 -53.678 384.436 -60.4414 415.578C-67.2048 446.721 -66.5233 482.882 -58.4738 519.976C-50.4243 557.069 -35.3278 593.615 -14.8909 625.482C5.54609 657.349 30.5086 683.266 57.1749 700.305C83.8413 717.343 111.148 724.823 136.009 721.899C160.869 718.975 182.292 705.764 197.856 683.759V683.759C228.453 640.499 197.347 583.731 156.499 562.883L142.106 555.537C102.895 535.525 75.0183 492.748 67.2333 440.644L63.165 413.416Z" fill="url(#paint0_radial_220_2)"/>
<path d="M256.385 311.654C247.839 265.924 214.802 222.266 181.537 248.626V248.626C165.047 261.693 153.824 283.32 149.139 311.063C144.454 338.806 146.492 371.558 155.024 405.617C163.556 439.676 178.241 473.684 197.419 503.796C216.598 533.908 239.504 558.924 263.55 576.017C287.596 593.109 311.822 601.596 333.49 600.518C355.158 599.44 373.403 588.84 386.164 569.917V569.917C412.616 530.691 383.558 480.476 348.12 459.739L332.163 450.401C296.617 429.601 271.054 390.159 262.115 342.32L256.385 311.654Z" fill="url(#paint1_radial_220_2)"/>
<path d="M399.57 246.702C406.91 217.186 391.751 184.982 366.273 196.917V196.917C351.924 203.639 339.816 216.03 331.317 232.692C322.818 249.353 318.267 269.619 318.179 291.199C318.09 312.779 307.25 377.258 315.598 397.255C323.947 417.252 351.151 391.969 365.421 404.357C379.692 416.745 395.676 423.864 411.568 424.911C427.459 425.957 442.625 420.888 455.35 410.278V410.278C478.239 391.192 464.54 357.271 439.65 347.338L430.56 343.71C401.748 332.212 386.838 297.902 395.505 263.047L399.57 246.702Z" fill="url(#paint2_radial_220_2)"/>
<path d="M106.026 -3.32814C103.658 -35.3936 81.4724 -67.8357 54.2323 -53.4077V-53.4077C40.3384 -46.0487 29.6943 -32.5702 23.5031 -14.4958C17.3119 3.57851 15.8205 25.528 19.1976 48.8715C22.5746 72.215 30.6853 96.0217 42.613 117.6C54.5407 139.179 69.8096 157.67 86.6939 170.982C103.578 184.294 121.404 191.896 138.158 192.93C154.911 193.964 169.923 188.388 181.497 176.832V176.832C204.733 153.634 187.084 116.629 161.272 99.6347L151.171 92.9847C125.955 76.3824 109.793 47.668 107.396 15.2106L106.026 -3.32814Z" fill="url(#paint3_radial_220_2)"/>
<path d="M221.271 -35.4615C229.791 -54.7797 220.653 -78.4459 201.038 -72.8729V-72.8729C189.383 -69.5615 178.92 -62.2977 170.832 -51.9025C162.745 -41.5072 157.355 -28.3952 155.272 -14.0484C153.189 0.298373 138.837 42.31 143.386 56.2853C147.935 70.2607 171.204 55.6425 181.014 65.0354C190.825 74.4283 202.445 80.4554 214.56 82.4355C226.676 84.4157 238.805 82.2698 249.575 76.2406V76.2406C267.828 66.0228 260.601 41.2589 242.496 32.6863L236.731 29.9567C216.295 20.2805 207.79 -4.89574 217.512 -26.9381L221.271 -35.4615Z" fill="url(#paint4_radial_220_2)"/>
<g clip-path="url(#clip1_220_2)">
<path d="M251.874 639.124C258.434 639.124 263.752 633.066 263.752 625.593C263.752 618.12 258.434 612.062 251.874 612.062C245.315 612.062 239.997 618.12 239.997 625.593C239.997 633.066 245.315 639.124 251.874 639.124Z" fill="#F2F2F2"/>
<path d="M344.01 839.939C361.664 824.62 370.096 798.878 364.818 774.322C364.686 773.712 364.548 773.103 364.402 772.496C360.903 757.919 352.244 744.066 339.625 739.408C329.03 735.498 317.464 738.505 306.41 736.95C284.711 733.897 267.888 713.895 256.051 692.953C244.213 672.011 235.116 648.569 219.387 631.267C193.46 602.749 151.167 596.609 119.022 615.172C86.8766 633.736 66.4003 674.92 67.2736 715.965C68.1469 757.011 89.5356 796.253 120.597 817.073C132.008 824.722 145.206 830.141 158.34 828.244C169.737 826.599 180.092 819.623 191.435 817.552C209.269 814.296 226.989 823.482 242.413 834.186C257.838 844.89 272.737 857.578 290.266 862.541C307.285 867.359 328.371 853.509 344.01 839.939Z" fill="#E3E3E3"/>
<path d="M318.645 616.034C318.258 615.74 317.867 615.462 317.48 615.178C306.293 607.027 294.302 600.405 281.756 595.449L278.846 641.17H260.404V588.775C259.243 588.502 258.073 588.243 256.903 588V641.17H234.986C222.921 641.17 211.35 635.709 202.818 625.99C194.287 616.271 189.494 603.088 189.494 589.343V589.343C188.319 589.632 187.154 589.941 185.988 590.27V641.17H168.137L165.366 597.573C152.473 603.206 140.232 610.614 128.917 619.632C128.721 619.784 128.525 619.941 128.334 620.093C127.351 620.879 126.381 621.68 125.416 622.49V796.914H178.026L177.096 782.243L171.981 701.693H274.999L269.883 782.243L268.953 796.914H320.981V617.798C320.207 617.2 319.428 616.612 318.645 616.034ZM185.988 688.39H171.136L168.391 645.163H185.988V688.39ZM256.903 688.39H231.957V687.534C231.957 687.122 231.886 686.714 231.747 686.334C231.609 685.954 231.406 685.608 231.15 685.317C230.895 685.026 230.591 684.796 230.257 684.639C229.923 684.482 229.565 684.401 229.204 684.402H218.359C217.998 684.402 217.64 684.483 217.306 684.64C216.973 684.797 216.67 685.028 216.414 685.319C216.159 685.61 215.957 685.955 215.819 686.335C215.68 686.715 215.609 687.122 215.61 687.534V688.39H189.494V645.163H256.903V688.39ZM260.404 688.39V645.163H278.593L275.848 688.39H260.404Z" fill="#3F3D56"/>
<path d="M48 808.083C51.8643 813.3 56.0441 818.202 60.5086 822.754L385.491 823.261C389.956 818.709 394.136 813.806 398 808.59L48 808.083Z" fill="#3F3D56"/>
<path d="M268.381 761.106V804.538C268.382 805.092 268.575 805.622 268.919 806.014C269.262 806.405 269.728 806.625 270.214 806.626H326.709C327.195 806.625 327.661 806.405 328.004 806.014C328.348 805.622 328.541 805.092 328.541 804.538V761.106C328.54 760.553 328.347 760.023 328.003 759.633C327.66 759.242 327.194 759.022 326.709 759.021H270.214C269.728 759.022 269.263 759.242 268.92 759.633C268.576 760.023 268.383 760.553 268.381 761.106V761.106Z" fill="#3F3D56"/>
<path d="M269.707 761.647V804.002C269.707 804.298 269.81 804.582 269.994 804.791C270.178 805 270.426 805.117 270.686 805.118H326.239C326.498 805.117 326.747 805 326.93 804.791C327.114 804.582 327.217 804.298 327.218 804.002V761.647C327.218 761.351 327.115 761.067 326.931 760.857C326.748 760.648 326.498 760.53 326.239 760.529H270.686C270.426 760.53 270.177 760.648 269.993 760.857C269.81 761.067 269.707 761.351 269.707 761.647V761.647Z" fill="#6C63FF"/>
<path d="M267.2 813.008C267.303 813.156 267.435 813.276 267.585 813.357C267.734 813.439 267.898 813.481 268.064 813.48H328.557C328.723 813.479 328.886 813.437 329.036 813.356C329.185 813.275 329.316 813.157 329.421 813.01C329.525 812.864 329.599 812.693 329.638 812.51C329.677 812.327 329.679 812.136 329.646 811.951L328.706 806.87C328.668 806.663 328.584 806.47 328.463 806.309C328.342 806.148 328.187 806.024 328.013 805.949C327.888 805.893 327.754 805.864 327.618 805.864H269C268.865 805.864 268.731 805.893 268.605 805.949C268.431 806.024 268.276 806.148 268.155 806.309C268.034 806.47 267.951 806.663 267.912 806.87L266.973 811.951C266.939 812.136 266.942 812.326 266.982 812.509C267.021 812.692 267.095 812.863 267.2 813.008V813.008Z" fill="#2F2E41"/>
<path d="M325.543 808.053H326.972C327.092 808.053 327.189 807.942 327.189 807.805V807.026C327.189 806.89 327.092 806.779 326.972 806.779H325.543C325.423 806.779 325.326 806.89 325.326 807.026V807.805C325.326 807.942 325.423 808.053 325.543 808.053Z" fill="#3F3D56"/>
<path d="M321.816 808.053H323.245C323.365 808.053 323.462 807.942 323.462 807.805V807.026C323.462 806.89 323.365 806.779 323.245 806.779H321.816C321.697 806.779 321.599 806.89 321.599 807.026V807.805C321.599 807.942 321.697 808.053 321.816 808.053Z" fill="#3F3D56"/>
<path d="M318.09 808.053H319.519C319.639 808.053 319.736 807.942 319.736 807.805V807.026C319.736 806.89 319.639 806.779 319.519 806.779H318.09C317.97 806.779 317.873 806.89 317.873 807.026V807.805C317.873 807.942 317.97 808.053 318.09 808.053Z" fill="#3F3D56"/>
<path d="M314.364 808.053H315.793C315.913 808.053 316.01 807.942 316.01 807.805V807.026C316.01 806.89 315.913 806.779 315.793 806.779H314.364C314.244 806.779 314.147 806.89 314.147 807.026V807.805C314.147 807.942 314.244 808.053 314.364 808.053Z" fill="#3F3D56"/>
<path d="M310.638 808.053H312.066C312.186 808.053 312.283 807.942 312.283 807.805V807.026C312.283 806.89 312.186 806.779 312.066 806.779H310.638C310.518 806.779 310.42 806.89 310.42 807.026V807.805C310.42 807.942 310.518 808.053 310.638 808.053Z" fill="#3F3D56"/>
<path d="M306.911 808.053H308.34C308.46 808.053 308.557 807.942 308.557 807.805V807.026C308.557 806.89 308.46 806.779 308.34 806.779H306.911C306.791 806.779 306.694 806.89 306.694 807.026V807.805C306.694 807.942 306.791 808.053 306.911 808.053Z" fill="#3F3D56"/>
<path d="M303.185 808.053H304.614C304.734 808.053 304.831 807.942 304.831 807.805V807.026C304.831 806.89 304.734 806.779 304.614 806.779H303.185C303.065 806.779 302.968 806.89 302.968 807.026V807.805C302.968 807.942 303.065 808.053 303.185 808.053Z" fill="#3F3D56"/>
<path d="M299.459 808.053H300.887C301.007 808.053 301.104 807.942 301.104 807.805V807.026C301.104 806.89 301.007 806.779 300.887 806.779H299.459C299.339 806.779 299.241 806.89 299.241 807.026V807.805C299.241 807.942 299.339 808.053 299.459 808.053Z" fill="#3F3D56"/>
<path d="M295.732 808.053H297.161C297.281 808.053 297.378 807.942 297.378 807.805V807.026C297.378 806.89 297.281 806.779 297.161 806.779H295.732C295.612 806.779 295.515 806.89 295.515 807.026V807.805C295.515 807.942 295.612 808.053 295.732 808.053Z" fill="#3F3D56"/>
<path d="M292.006 808.053H293.435C293.555 808.053 293.652 807.942 293.652 807.805V807.026C293.652 806.89 293.555 806.779 293.435 806.779H292.006C291.886 806.779 291.789 806.89 291.789 807.026V807.805C291.789 807.942 291.886 808.053 292.006 808.053Z" fill="#3F3D56"/>
<path d="M288.28 808.053H289.708C289.828 808.053 289.926 807.942 289.926 807.805V807.026C289.926 806.89 289.828 806.779 289.708 806.779H288.28C288.16 806.779 288.062 806.89 288.062 807.026V807.805C288.062 807.942 288.16 808.053 288.28 808.053Z" fill="#3F3D56"/>
<path d="M284.553 808.053H285.982C286.102 808.053 286.199 807.942 286.199 807.805V807.026C286.199 806.89 286.102 806.779 285.982 806.779H284.553C284.433 806.779 284.336 806.89 284.336 807.026V807.805C284.336 807.942 284.433 808.053 284.553 808.053Z" fill="#3F3D56"/>
<path d="M280.827 808.053H282.256C282.376 808.053 282.473 807.942 282.473 807.805V807.026C282.473 806.89 282.376 806.779 282.256 806.779H280.827C280.707 806.779 280.61 806.89 280.61 807.026V807.805C280.61 807.942 280.707 808.053 280.827 808.053Z" fill="#3F3D56"/>
<path d="M277.101 808.053H278.529C278.649 808.053 278.747 807.942 278.747 807.805V807.026C278.747 806.89 278.649 806.779 278.529 806.779H277.101C276.981 806.779 276.883 806.89 276.883 807.026V807.805C276.883 807.942 276.981 808.053 277.101 808.053Z" fill="#3F3D56"/>
<path d="M273.374 808.053H274.803C274.923 808.053 275.02 807.942 275.02 807.805V807.026C275.02 806.89 274.923 806.779 274.803 806.779H273.374C273.254 806.779 273.157 806.89 273.157 807.026V807.805C273.157 807.942 273.254 808.053 273.374 808.053Z" fill="#3F3D56"/>
<path d="M269.648 808.053H271.077C271.197 808.053 271.294 807.942 271.294 807.805V807.026C271.294 806.89 271.197 806.779 271.077 806.779H269.648C269.528 806.779 269.431 806.89 269.431 807.026V807.805C269.431 807.942 269.528 808.053 269.648 808.053Z" fill="#3F3D56"/>
<path d="M325.587 810.175H327.016C327.136 810.175 327.233 810.064 327.233 809.928V809.149C327.233 809.012 327.136 808.902 327.016 808.902H325.587C325.467 808.902 325.37 809.012 325.37 809.149V809.928C325.37 810.064 325.467 810.175 325.587 810.175Z" fill="#3F3D56"/>
<path d="M321.861 810.175H323.289C323.409 810.175 323.507 810.064 323.507 809.928V809.149C323.507 809.012 323.409 808.902 323.289 808.902H321.861C321.741 808.902 321.643 809.012 321.643 809.149V809.928C321.643 810.064 321.741 810.175 321.861 810.175Z" fill="#3F3D56"/>
<path d="M318.134 810.175H319.563C319.683 810.175 319.78 810.064 319.78 809.928V809.149C319.78 809.012 319.683 808.902 319.563 808.902H318.134C318.014 808.902 317.917 809.012 317.917 809.149V809.928C317.917 810.064 318.014 810.175 318.134 810.175Z" fill="#3F3D56"/>
<path d="M314.408 810.175H315.837C315.957 810.175 316.054 810.064 316.054 809.928V809.149C316.054 809.012 315.957 808.902 315.837 808.902H314.408C314.288 808.902 314.191 809.012 314.191 809.149V809.928C314.191 810.064 314.288 810.175 314.408 810.175Z" fill="#3F3D56"/>
<path d="M310.681 810.175H312.11C312.23 810.175 312.328 810.064 312.328 809.928V809.149C312.328 809.012 312.23 808.902 312.11 808.902H310.681C310.562 808.902 310.464 809.012 310.464 809.149V809.928C310.464 810.064 310.562 810.175 310.681 810.175Z" fill="#3F3D56"/>
<path d="M306.955 810.175H308.384C308.504 810.175 308.601 810.064 308.601 809.928V809.149C308.601 809.012 308.504 808.902 308.384 808.902H306.955C306.835 808.902 306.738 809.012 306.738 809.149V809.928C306.738 810.064 306.835 810.175 306.955 810.175Z" fill="#3F3D56"/>
<path d="M303.229 810.175H304.658C304.778 810.175 304.875 810.064 304.875 809.928V809.149C304.875 809.012 304.778 808.902 304.658 808.902H303.229C303.109 808.902 303.012 809.012 303.012 809.149V809.928C303.012 810.064 303.109 810.175 303.229 810.175Z" fill="#3F3D56"/>
<path d="M299.503 810.175H300.931C301.051 810.175 301.149 810.064 301.149 809.928V809.149C301.149 809.012 301.051 808.902 300.931 808.902H299.503C299.383 808.902 299.285 809.012 299.285 809.149V809.928C299.285 810.064 299.383 810.175 299.503 810.175Z" fill="#3F3D56"/>
<path d="M295.776 810.175H297.205C297.325 810.175 297.422 810.064 297.422 809.928V809.149C297.422 809.012 297.325 808.902 297.205 808.902H295.776C295.656 808.902 295.559 809.012 295.559 809.149V809.928C295.559 810.064 295.656 810.175 295.776 810.175Z" fill="#3F3D56"/>
<path d="M292.05 810.175H293.479C293.599 810.175 293.696 810.064 293.696 809.928V809.149C293.696 809.012 293.599 808.902 293.479 808.902H292.05C291.93 808.902 291.833 809.012 291.833 809.149V809.928C291.833 810.064 291.93 810.175 292.05 810.175Z" fill="#3F3D56"/>
<path d="M288.324 810.175H289.752C289.872 810.175 289.97 810.064 289.97 809.928V809.149C289.97 809.012 289.872 808.902 289.752 808.902H288.324C288.204 808.902 288.106 809.012 288.106 809.149V809.928C288.106 810.064 288.204 810.175 288.324 810.175Z" fill="#3F3D56"/>
<path d="M284.597 810.175H286.026C286.146 810.175 286.243 810.064 286.243 809.928V809.149C286.243 809.012 286.146 808.902 286.026 808.902H284.597C284.477 808.902 284.38 809.012 284.38 809.149V809.928C284.38 810.064 284.477 810.175 284.597 810.175Z" fill="#3F3D56"/>
<path d="M280.871 810.175H282.3C282.42 810.175 282.517 810.064 282.517 809.928V809.149C282.517 809.012 282.42 808.902 282.3 808.902H280.871C280.751 808.902 280.654 809.012 280.654 809.149V809.928C280.654 810.064 280.751 810.175 280.871 810.175Z" fill="#3F3D56"/>
<path d="M277.145 810.175H278.573C278.693 810.175 278.791 810.064 278.791 809.928V809.149C278.791 809.012 278.693 808.902 278.573 808.902H277.145C277.025 808.902 276.927 809.012 276.927 809.149V809.928C276.927 810.064 277.025 810.175 277.145 810.175Z" fill="#3F3D56"/>
<path d="M273.418 810.175H274.847C274.967 810.175 275.064 810.064 275.064 809.928V809.149C275.064 809.012 274.967 808.902 274.847 808.902H273.418C273.298 808.902 273.201 809.012 273.201 809.149V809.928C273.201 810.064 273.298 810.175 273.418 810.175Z" fill="#3F3D56"/>
<path d="M269.692 810.175H271.121C271.241 810.175 271.338 810.064 271.338 809.928V809.149C271.338 809.012 271.241 808.902 271.121 808.902H269.692C269.572 808.902 269.475 809.012 269.475 809.149V809.928C269.475 810.064 269.572 810.175 269.692 810.175Z" fill="#3F3D56"/>
<path d="M294.658 812.722H309.129C309.249 812.722 309.346 812.612 309.346 812.475V811.696C309.346 811.559 309.249 811.449 309.129 811.449H294.658C294.538 811.449 294.441 811.559 294.441 811.696V812.475C294.441 812.612 294.538 812.722 294.658 812.722Z" fill="#3F3D56"/>
<path d="M279.327 769.795H278.062C277.678 769.795 277.367 770.149 277.367 770.586C277.367 771.023 277.678 771.377 278.062 771.377H279.327C279.71 771.377 280.021 771.023 280.021 770.586C280.021 770.149 279.71 769.795 279.327 769.795Z" fill="white"/>
<path d="M293.794 769.795H292.529C292.145 769.795 291.835 770.149 291.835 770.586C291.835 771.023 292.145 771.377 292.529 771.377H293.794C294.177 771.377 294.488 771.023 294.488 770.586C294.488 770.149 294.177 769.795 293.794 769.795Z" fill="white"/>
<path d="M297.893 769.795H296.628C296.244 769.795 295.934 770.149 295.934 770.586C295.934 771.023 296.244 771.377 296.628 771.377H297.893C298.276 771.377 298.587 771.023 298.587 770.586C298.587 770.149 298.276 769.795 297.893 769.795Z" fill="white"/>
<path d="M289.859 769.663H281.997C281.613 769.663 281.302 770.018 281.302 770.454C281.302 770.891 281.613 771.246 281.997 771.246H289.859C290.242 771.246 290.553 770.891 290.553 770.454C290.553 770.018 290.242 769.663 289.859 769.663Z" fill="white"/>
<path d="M309.148 769.663H301.286C300.903 769.663 300.592 770.018 300.592 770.454C300.592 770.891 300.903 771.246 301.286 771.246H309.148C309.532 771.246 309.843 770.891 309.843 770.454C309.843 770.018 309.532 769.663 309.148 769.663Z" fill="white"/>
<path d="M283.185 773.366H281.92C281.536 773.366 281.225 773.72 281.225 774.157C281.225 774.594 281.536 774.948 281.92 774.948H283.185C283.568 774.948 283.879 774.594 283.879 774.157C283.879 773.72 283.568 773.366 283.185 773.366Z" fill="white"/>
<path d="M297.652 773.366H296.387C296.003 773.366 295.693 773.72 295.693 774.157C295.693 774.594 296.003 774.948 296.387 774.948H297.652C298.035 774.948 298.346 774.594 298.346 774.157C298.346 773.72 298.035 773.366 297.652 773.366Z" fill="white"/>
<path d="M301.751 773.366H300.486C300.102 773.366 299.792 773.72 299.792 774.157C299.792 774.594 300.102 774.948 300.486 774.948H301.751C302.134 774.948 302.445 774.594 302.445 774.157C302.445 773.72 302.134 773.366 301.751 773.366Z" fill="white"/>
<path d="M293.717 773.234H285.855C285.471 773.234 285.16 773.589 285.16 774.025C285.16 774.462 285.471 774.817 285.855 774.817H293.717C294.1 774.817 294.411 774.462 294.411 774.025C294.411 773.589 294.1 773.234 293.717 773.234Z" fill="white"/>
<path d="M313.006 773.234H305.144C304.761 773.234 304.45 773.589 304.45 774.025C304.45 774.462 304.761 774.817 305.144 774.817H313.006C313.39 774.817 313.701 774.462 313.701 774.025C313.701 773.589 313.39 773.234 313.006 773.234Z" fill="white"/>
<path d="M287.043 776.937H285.778C285.394 776.937 285.083 777.291 285.083 777.728C285.083 778.165 285.394 778.519 285.778 778.519H287.043C287.426 778.519 287.737 778.165 287.737 777.728C287.737 777.291 287.426 776.937 287.043 776.937Z" fill="white"/>
<path d="M301.51 776.937H300.245C299.861 776.937 299.55 777.291 299.55 777.728C299.55 778.165 299.861 778.519 300.245 778.519H301.51C301.893 778.519 302.204 778.165 302.204 777.728C302.204 777.291 301.893 776.937 301.51 776.937Z" fill="white"/>
<path d="M305.609 776.937H304.344C303.96 776.937 303.649 777.291 303.649 777.728C303.649 778.165 303.96 778.519 304.344 778.519H305.609C305.992 778.519 306.303 778.165 306.303 777.728C306.303 777.291 305.992 776.937 305.609 776.937Z" fill="white"/>
<path d="M297.575 776.805H289.713C289.329 776.805 289.018 777.16 289.018 777.596C289.018 778.033 289.329 778.388 289.713 778.388H297.575C297.958 778.388 298.269 778.033 298.269 777.596C298.269 777.16 297.958 776.805 297.575 776.805Z" fill="white"/>
<path d="M316.864 776.805H309.002C308.619 776.805 308.308 777.16 308.308 777.596C308.308 778.033 308.619 778.388 309.002 778.388H316.864C317.248 778.388 317.559 778.033 317.559 777.596C317.559 777.16 317.248 776.805 316.864 776.805Z" fill="white"/>
<path d="M290.901 780.508H289.636C289.252 780.508 288.941 780.862 288.941 781.299C288.941 781.736 289.252 782.09 289.636 782.09H290.901C291.284 782.09 291.595 781.736 291.595 781.299C291.595 780.862 291.284 780.508 290.901 780.508Z" fill="white"/>
<path d="M305.368 780.508H304.103C303.719 780.508 303.408 780.862 303.408 781.299C303.408 781.736 303.719 782.09 304.103 782.09H305.368C305.751 782.09 306.062 781.736 306.062 781.299C306.062 780.862 305.751 780.508 305.368 780.508Z" fill="white"/>
<path d="M309.467 780.508H308.202C307.818 780.508 307.507 780.862 307.507 781.299C307.507 781.736 307.818 782.09 308.202 782.09H309.467C309.85 782.09 310.161 781.736 310.161 781.299C310.161 780.862 309.85 780.508 309.467 780.508Z" fill="white"/>
<path d="M301.432 780.376H293.571C293.187 780.376 292.876 780.731 292.876 781.167C292.876 781.604 293.187 781.959 293.571 781.959H301.432C301.816 781.959 302.127 781.604 302.127 781.167C302.127 780.731 301.816 780.376 301.432 780.376Z" fill="white"/>
<path d="M293.794 794.708H292.529C292.145 794.708 291.835 795.062 291.835 795.499C291.835 795.936 292.145 796.29 292.529 796.29H293.794C294.177 796.29 294.488 795.936 294.488 795.499C294.488 795.062 294.177 794.708 293.794 794.708Z" fill="white"/>
<path d="M297.893 794.708H296.628C296.244 794.708 295.934 795.062 295.934 795.499C295.934 795.936 296.244 796.29 296.628 796.29H297.893C298.276 796.29 298.587 795.936 298.587 795.499C298.587 795.062 298.276 794.708 297.893 794.708Z" fill="white"/>
<path d="M309.148 794.84H301.286C300.903 794.84 300.592 795.194 300.592 795.631C300.592 796.068 300.903 796.422 301.286 796.422H309.148C309.532 796.422 309.843 796.068 309.843 795.631C309.843 795.194 309.532 794.84 309.148 794.84Z" fill="white"/>
<path d="M279.327 794.708H278.062C277.678 794.708 277.367 795.062 277.367 795.499C277.367 795.936 277.678 796.29 278.062 796.29H279.327C279.71 796.29 280.021 795.936 280.021 795.499C280.021 795.062 279.71 794.708 279.327 794.708Z" fill="white"/>
<path d="M289.859 794.84H281.997C281.613 794.84 281.302 795.194 281.302 795.631C281.302 796.068 281.613 796.422 281.997 796.422H289.859C290.242 796.422 290.553 796.068 290.553 795.631C290.553 795.194 290.242 794.84 289.859 794.84Z" fill="white"/>
<path d="M283.185 791.137H281.92C281.536 791.137 281.225 791.491 281.225 791.928C281.225 792.365 281.536 792.719 281.92 792.719H283.185C283.568 792.719 283.879 792.365 283.879 791.928C283.879 791.491 283.568 791.137 283.185 791.137Z" fill="white"/>
<path d="M297.652 791.137H296.387C296.003 791.137 295.693 791.491 295.693 791.928C295.693 792.365 296.003 792.719 296.387 792.719H297.652C298.035 792.719 298.346 792.365 298.346 791.928C298.346 791.491 298.035 791.137 297.652 791.137Z" fill="white"/>
<path d="M301.751 791.137H300.486C300.102 791.137 299.792 791.491 299.792 791.928C299.792 792.365 300.102 792.719 300.486 792.719H301.751C302.134 792.719 302.445 792.365 302.445 791.928C302.445 791.491 302.134 791.137 301.751 791.137Z" fill="white"/>
<path d="M293.717 791.269H285.855C285.471 791.269 285.16 791.623 285.16 792.06C285.16 792.497 285.471 792.851 285.855 792.851H293.717C294.1 792.851 294.411 792.497 294.411 792.06C294.411 791.623 294.1 791.269 293.717 791.269Z" fill="white"/>
<path d="M287.043 787.566H285.778C285.394 787.566 285.083 787.92 285.083 788.357C285.083 788.794 285.394 789.148 285.778 789.148H287.043C287.426 789.148 287.737 788.794 287.737 788.357C287.737 787.92 287.426 787.566 287.043 787.566Z" fill="white"/>
<path d="M301.51 787.566H300.245C299.861 787.566 299.55 787.92 299.55 788.357C299.55 788.794 299.861 789.148 300.245 789.148H301.51C301.893 789.148 302.204 788.794 302.204 788.357C302.204 787.92 301.893 787.566 301.51 787.566Z" fill="white"/>
<path d="M305.609 787.566H304.344C303.96 787.566 303.649 787.92 303.649 788.357C303.649 788.794 303.96 789.148 304.344 789.148H305.609C305.992 789.148 306.303 788.794 306.303 788.357C306.303 787.92 305.992 787.566 305.609 787.566Z" fill="white"/>
<path d="M297.575 787.698H289.713C289.329 787.698 289.018 788.052 289.018 788.489C289.018 788.926 289.329 789.28 289.713 789.28H297.575C297.958 789.28 298.269 788.926 298.269 788.489C298.269 788.052 297.958 787.698 297.575 787.698Z" fill="white"/>
<path d="M290.901 783.995H289.636C289.252 783.995 288.941 784.349 288.941 784.786C288.941 785.223 289.252 785.577 289.636 785.577H290.901C291.284 785.577 291.595 785.223 291.595 784.786C291.595 784.349 291.284 783.995 290.901 783.995Z" fill="white"/>
<path d="M305.368 783.995H304.103C303.719 783.995 303.408 784.349 303.408 784.786C303.408 785.223 303.719 785.577 304.103 785.577H305.368C305.751 785.577 306.062 785.223 306.062 784.786C306.062 784.349 305.751 783.995 305.368 783.995Z" fill="white"/>
<path d="M309.467 783.995H308.202C307.818 783.995 307.507 784.349 307.507 784.786C307.507 785.223 307.818 785.577 308.202 785.577H309.467C309.85 785.577 310.161 785.223 310.161 784.786C310.161 784.349 309.85 783.995 309.467 783.995Z" fill="white"/>
<path d="M301.432 784.127H293.571C293.187 784.127 292.876 784.481 292.876 784.918C292.876 785.355 293.187 785.709 293.571 785.709H301.432C301.816 785.709 302.127 785.355 302.127 784.918C302.127 784.481 301.816 784.127 301.432 784.127Z" fill="white"/>
<path d="M272.602 836.559L266.663 825.865L285.303 808.938L292.996 799.228C293.996 797.966 295.268 797.026 296.687 796.5C298.105 795.974 299.62 795.882 301.08 796.232C302.54 796.582 303.893 797.363 305.005 798.496C306.117 799.629 306.949 801.074 307.417 802.688C308.11 805.079 307.961 807.684 307.001 809.952C306.04 812.22 304.344 813.975 302.27 814.846L290.104 819.951L272.602 836.559Z" fill="#FFB6B6"/>
<path d="M133.269 759.023V810.997H165.23V759.023C165.231 758.65 165.126 758.285 164.931 757.984C164.737 757.683 164.463 757.461 164.149 757.351C164.001 757.295 163.847 757.268 163.691 757.27H134.813C134.61 757.269 134.41 757.314 134.223 757.402C134.035 757.49 133.865 757.619 133.722 757.782C133.579 757.945 133.465 758.138 133.387 758.351C133.309 758.564 133.269 758.793 133.269 759.023V759.023ZM145.742 776.882C145.751 775.857 146.114 774.878 146.753 774.156C147.392 773.435 148.255 773.031 149.154 773.031C150.053 773.031 150.916 773.435 151.555 774.156C152.194 774.878 152.557 775.857 152.566 776.882V782.912C152.561 783.94 152.2 784.923 151.56 785.648C150.921 786.373 150.056 786.779 149.154 786.779C148.252 786.779 147.387 786.373 146.748 785.648C146.108 784.923 145.747 783.94 145.742 782.912V776.882Z" fill="#2F2E41"/>
<path d="M133.171 809.335V814.347C133.172 814.606 133.263 814.855 133.423 815.039C133.584 815.223 133.802 815.328 134.03 815.33H164.47C164.698 815.329 164.916 815.225 165.077 815.04C165.238 814.856 165.328 814.607 165.328 814.347V809.335H133.171Z" fill="#3F3D56"/>
<path d="M82.9902 680.718V775.615C82.9911 776.824 83.4131 777.984 84.1637 778.839C84.9144 779.694 85.9322 780.175 86.9937 780.176H210.434C211.495 780.175 212.513 779.694 213.264 778.839C214.014 777.984 214.436 776.824 214.437 775.615V680.718C214.435 679.51 214.012 678.352 213.261 677.498C212.511 676.644 211.494 676.164 210.434 676.162H86.9937C85.9331 676.164 84.9163 676.644 84.1659 677.498C83.4155 678.352 82.9928 679.51 82.9902 680.718Z" fill="#3F3D56"/>
<path d="M85.886 681.899V774.444C85.887 775.09 86.1127 775.71 86.5137 776.167C86.9148 776.623 87.4584 776.881 88.0256 776.882H209.406C209.973 776.881 210.517 776.623 210.918 776.167C211.319 775.71 211.545 775.09 211.546 774.444V681.899C211.546 681.252 211.32 680.631 210.919 680.174C210.518 679.716 209.974 679.458 209.406 679.456H88.0256C87.4578 679.458 86.9136 679.716 86.5125 680.174C86.1113 680.631 85.886 681.252 85.886 681.899Z" fill="white"/>
<path d="M108.412 814.99C108.536 815.167 108.693 815.309 108.871 815.407C109.05 815.504 109.246 815.554 109.444 815.553H181.658C181.855 815.553 182.05 815.502 182.228 815.405C182.407 815.308 182.564 815.167 182.688 814.993C182.812 814.818 182.901 814.614 182.948 814.395C182.994 814.177 182.997 813.949 182.957 813.729L181.836 807.663C181.789 807.415 181.689 807.185 181.545 806.993C181.4 806.801 181.216 806.653 181.008 806.563C180.858 806.496 180.698 806.461 180.537 806.462H110.561C110.399 806.461 110.239 806.496 110.089 806.563C109.882 806.653 109.697 806.801 109.553 806.993C109.408 807.185 109.308 807.415 109.262 807.663L108.141 813.729C108.101 813.949 108.105 814.176 108.152 814.394C108.198 814.613 108.288 814.816 108.412 814.99Z" fill="#2F2E41"/>
<path d="M205.467 692.205H91.8917C91.7736 692.202 91.6613 692.146 91.5787 692.05C91.4962 691.954 91.45 691.825 91.45 691.69C91.45 691.556 91.4962 691.427 91.5787 691.33C91.6613 691.234 91.7736 691.179 91.8917 691.176H205.467C205.585 691.179 205.697 691.234 205.78 691.33C205.862 691.427 205.909 691.556 205.909 691.69C205.909 691.825 205.862 691.954 205.78 692.05C205.697 692.146 205.585 692.202 205.467 692.205V692.205Z" fill="#3F3D56"/>
<path d="M99.623 688.549C101.085 688.549 102.27 687.168 102.27 685.466C102.27 683.763 101.085 682.383 99.623 682.383C98.1611 682.383 96.9761 683.763 96.9761 685.466C96.9761 687.168 98.1611 688.549 99.623 688.549Z" fill="#3F3D56"/>
<path d="M108.767 688.549C110.229 688.549 111.414 687.168 111.414 685.466C111.414 683.763 110.229 682.383 108.767 682.383C107.305 682.383 106.12 683.763 106.12 685.466C106.12 687.168 107.305 688.549 108.767 688.549Z" fill="#3F3D56"/>
<path d="M117.911 688.549C119.373 688.549 120.558 687.168 120.558 685.466C120.558 683.763 119.373 682.383 117.911 682.383C116.449 682.383 115.264 683.763 115.264 685.466C115.264 687.168 116.449 688.549 117.911 688.549Z" fill="#3F3D56"/>
<path d="M199.961 683.146H193.466C193.338 683.149 193.216 683.209 193.126 683.314C193.036 683.419 192.986 683.559 192.986 683.705C192.986 683.852 193.036 683.992 193.126 684.097C193.216 684.202 193.338 684.262 193.466 684.265H199.961C200.09 684.263 200.213 684.203 200.304 684.099C200.394 683.994 200.445 683.853 200.445 683.705C200.445 683.558 200.394 683.417 200.304 683.312C200.213 683.207 200.09 683.148 199.961 683.146Z" fill="#3F3D56"/>
<path d="M199.961 685.249H193.466C193.338 685.252 193.215 685.312 193.126 685.417C193.036 685.522 192.985 685.662 192.985 685.809C192.985 685.955 193.036 686.096 193.126 686.2C193.215 686.305 193.338 686.365 193.466 686.369H199.961C200.09 686.367 200.213 686.307 200.304 686.202C200.395 686.097 200.446 685.956 200.446 685.809C200.446 685.661 200.395 685.52 200.304 685.415C200.213 685.31 200.09 685.25 199.961 685.249V685.249Z" fill="#3F3D56"/>
<path d="M199.961 687.352H193.466C193.338 687.355 193.216 687.416 193.126 687.52C193.036 687.625 192.986 687.765 192.986 687.912C192.986 688.058 193.036 688.198 193.126 688.303C193.216 688.408 193.338 688.468 193.466 688.472H199.961C200.09 688.469 200.213 688.41 200.304 688.305C200.394 688.2 200.445 688.059 200.445 687.912C200.445 687.764 200.394 687.623 200.304 687.518C200.213 687.414 200.09 687.354 199.961 687.352V687.352Z" fill="#3F3D56"/>
<path d="M356.531 811.535C356.727 812.185 357.099 812.747 357.593 813.142C358.087 813.536 358.678 813.742 359.282 813.729L371.066 813.384C371.674 813.37 372.261 813.133 372.741 812.708C373.22 812.282 373.566 811.692 373.726 811.024L375.394 790.709C375.986 791.014 376.63 791.165 377.279 791.15C377.843 791.134 378.399 790.992 378.915 790.731C379.431 790.47 379.897 790.096 380.286 789.63C380.674 789.164 380.979 788.615 381.182 788.015C381.385 787.415 381.482 786.776 381.468 786.133C381.453 785.49 381.328 784.857 381.099 784.269C380.87 783.682 380.542 783.151 380.133 782.708C379.724 782.265 379.243 781.918 378.716 781.687C378.189 781.456 377.628 781.345 377.064 781.361C376.804 781.36 376.545 781.391 376.291 781.453C376.015 781.113 375.68 780.842 375.306 780.658C374.933 780.475 374.53 780.382 374.123 780.387L355.996 780.92C355.846 780.927 355.696 780.948 355.549 780.984C355.151 781.068 354.774 781.249 354.443 781.513C354.112 781.777 353.834 782.119 353.629 782.516C353.424 782.913 353.295 783.355 353.253 783.813C353.21 784.272 353.254 784.735 353.381 785.172L356.531 811.535ZM375.736 789.33L376.923 784.489C377.058 783.929 377.061 783.34 376.932 782.779C376.989 782.778 377.04 782.747 377.098 782.747C377.911 782.728 378.698 783.077 379.286 783.718C379.874 784.359 380.215 785.24 380.234 786.166C380.253 787.093 379.949 787.991 379.388 788.663C378.827 789.334 378.055 789.725 377.242 789.749C376.716 789.768 376.195 789.623 375.736 789.33Z" fill="#2F2E41"/>
<path d="M355.549 780.984C355.935 783.499 360.277 785.268 365.498 784.96C370.299 784.708 374.224 782.788 374.943 780.512C374.677 780.422 374.401 780.38 374.123 780.387L355.996 780.92C355.846 780.927 355.696 780.948 355.549 780.984V780.984Z" fill="#3F3D56"/>
<path d="M366.455 800.371C366.479 800.365 366.501 800.353 366.522 800.338L369.081 798.429C369.112 798.406 369.137 798.375 369.155 798.338C369.173 798.301 369.182 798.26 369.182 798.218C369.182 798.175 369.173 798.134 369.155 798.097C369.137 798.06 369.112 798.029 369.081 798.006L366.421 796.021C366.397 796.002 366.369 795.99 366.341 795.983C366.312 795.977 366.282 795.977 366.254 795.984C366.225 795.991 366.198 796.004 366.174 796.023C366.149 796.041 366.129 796.065 366.113 796.093C366.097 796.121 366.086 796.152 366.08 796.185C366.075 796.218 366.075 796.251 366.081 796.284C366.087 796.317 366.099 796.348 366.115 796.375C366.132 796.403 366.153 796.426 366.178 796.444L368.553 798.217L366.278 799.914C366.234 799.947 366.202 799.996 366.187 800.054C366.172 800.111 366.175 800.173 366.197 800.228C366.218 800.283 366.255 800.327 366.303 800.353C366.35 800.38 366.404 800.386 366.455 800.371H366.455Z" fill="#6C63FF"/>
<path d="M362.413 800.584C362.456 800.571 362.494 800.545 362.524 800.507C362.553 800.469 362.572 800.423 362.579 800.373C362.585 800.323 362.577 800.272 362.558 800.226C362.538 800.181 362.507 800.143 362.469 800.118L360.11 798.578L362.39 796.648C362.413 796.628 362.433 796.603 362.448 796.575C362.463 796.546 362.473 796.515 362.477 796.482C362.481 796.449 362.48 796.415 362.473 796.383C362.466 796.351 362.453 796.321 362.436 796.294C362.418 796.267 362.396 796.245 362.371 796.228C362.346 796.211 362.319 796.199 362.29 796.194C362.261 796.19 362.231 796.191 362.203 796.199C362.175 796.208 362.148 796.222 362.125 796.242L359.572 798.402C359.542 798.427 359.519 798.46 359.503 798.498C359.487 798.536 359.48 798.578 359.483 798.62C359.485 798.662 359.496 798.703 359.516 798.739C359.535 798.774 359.562 798.804 359.594 798.825L362.247 800.558C362.298 800.591 362.357 800.6 362.413 800.584V800.584Z" fill="#6C63FF"/>
<path d="M366.2 802.044C366.222 802.038 366.242 802.028 366.261 802.014C366.286 801.997 366.308 801.974 366.325 801.948C366.342 801.921 366.355 801.89 366.362 801.858C366.369 801.826 366.37 801.792 366.365 801.759C366.361 801.726 366.351 801.695 366.336 801.666L362.708 794.871C362.677 794.814 362.628 794.773 362.57 794.757C362.513 794.741 362.453 794.752 362.402 794.787C362.352 794.822 362.316 794.878 362.302 794.944C362.288 795.009 362.297 795.078 362.328 795.135L365.956 801.93C365.98 801.976 366.017 802.012 366.061 802.033C366.105 802.053 366.154 802.057 366.2 802.044Z" fill="#6C63FF"/>
<path d="M162.25 720.178H142.592C141.79 720.178 141.14 720.918 141.14 721.832V724.02C141.14 724.934 141.79 725.674 142.592 725.674H162.25C163.052 725.674 163.702 724.934 163.702 724.02V721.832C163.702 720.918 163.052 720.178 162.25 720.178Z" fill="#6C63FF"/>
<path d="M173.708 731.17H131.134C130.332 731.17 129.682 731.911 129.682 732.825V735.012C129.682 735.926 130.332 736.667 131.134 736.667H173.708C174.51 736.667 175.16 735.926 175.16 735.012V732.825C175.16 731.911 174.51 731.17 173.708 731.17Z" fill="#E6E6E6"/>
<path d="M173.708 742.163H131.134C130.332 742.163 129.682 742.903 129.682 743.817V746.005C129.682 746.918 130.332 747.659 131.134 747.659H173.708C174.51 747.659 175.16 746.918 175.16 746.005V743.817C175.16 742.903 174.51 742.163 173.708 742.163Z" fill="#E6E6E6"/>
<path d="M177.317 778.972L177.413 779.319L177.418 779.331L180.321 789.384L183.66 800.969L189.942 822.74L190.003 826.122V826.134L190.47 853.339L189.176 857.027L190.632 863.074C190.632 863.074 189.962 853.934 186.369 859.183C184.335 862.166 181.955 865.218 180.001 868.08C182.848 869.392 185.74 870.579 188.678 871.641C189.313 871.872 189.952 872.092 190.591 872.311C190.728 872.358 190.865 872.404 191.002 872.45C200.742 875.731 210.811 877.575 220.962 877.936C221.49 877.954 222.007 877.965 222.51 877.977C222.687 877.983 222.86 877.988 223.032 877.988C223.601 877.994 224.164 878 224.732 878C225.879 878 227.021 877.981 228.158 877.942C236.571 877.672 244.935 876.383 253.109 874.098C253.053 870.253 252.901 865.762 252.682 860.963C252.581 858.611 250.303 856.061 250.166 853.598C250.069 851.748 252.114 850.008 252.008 848.13C251.317 836.562 250.455 841.002 249.815 832.811C249.749 832.007 249.689 831.238 249.633 830.504C249.222 825.243 248.938 821.954 248.938 821.954L251.668 802.351L255.956 771.572L255.626 770.954L255.255 770.746L232.638 757.993L231.41 754.409C231.053 753.376 230.432 752.489 229.628 751.862C228.824 751.234 227.874 750.895 226.899 750.888L212.001 750.819C211.227 750.815 210.465 751.021 209.775 751.42C209.086 751.819 208.49 752.4 208.037 753.114L204.003 759.479L177.317 778.972Z" fill="#3F3D56"/>
<path d="M193.377 817.896L190.003 826.122L187.699 831.741L183.736 855.38L181.752 857.779L180.052 849.286L162.26 853.786C161.676 850.092 162.103 853.911 161.743 849.859C161.845 849.743 161.951 849.628 162.058 849.512C162.342 849.211 162.58 848.928 162.575 848.656C162.372 834.678 162.981 810.889 168.066 796.477C168.862 794.124 169.912 791.893 171.192 789.835C171.293 789.679 171.39 789.522 171.486 789.366C173.831 785.626 175.312 781.944 177.413 779.325V779.319C177.426 779.307 177.438 779.293 177.449 779.279C177.456 779.274 177.463 779.268 177.469 779.261L191.901 770.543L192.52 790.361L192.961 804.605L193.377 817.896Z" fill="#3F3D56"/>
<path d="M245.416 820.232L249.631 830.507L251.102 834.085L255.064 857.721L257.042 860.115L258.745 851.624L259.546 851.437L273.984 848.03L278.193 863.256C279.141 861.456 279.515 859.338 279.251 857.259C278.986 855.181 278.1 853.271 276.742 851.851C276.455 851.555 276.215 851.267 276.222 850.994C276.462 834.553 275.579 804.532 267.607 792.176C265.075 788.254 263.556 784.349 261.346 781.62C261.339 781.613 261.339 781.605 261.332 781.605L255.954 771.572L255.625 770.956L255.256 770.745L245.416 820.232Z" fill="#3F3D56"/>
<path d="M219.88 745.988C230.827 745.988 239.701 735.879 239.701 723.408C239.701 710.937 230.827 700.827 219.88 700.827C208.934 700.827 200.059 710.937 200.059 723.408C200.059 735.879 208.934 745.988 219.88 745.988Z" fill="#FFB6B6"/>
<path d="M246.67 707.635C246.517 707.448 246.332 707.299 246.126 707.195C245.92 707.091 245.699 707.036 245.474 707.032L245.772 706.09C245.869 705.793 245.895 705.472 245.848 705.16C245.8 704.847 245.681 704.555 245.502 704.313C245.322 704.07 245.09 703.887 244.828 703.78C244.566 703.674 244.284 703.649 244.01 703.708L242.925 703.946L243.027 703.12C243.066 702.812 243.035 702.498 242.935 702.209C242.835 701.92 242.671 701.665 242.459 701.469C242.247 701.274 241.994 701.145 241.724 701.095C241.455 701.045 241.179 701.076 240.923 701.184C240.69 701.289 240.44 701.332 240.191 701.312C239.941 701.292 239.699 701.208 239.482 701.068C239.264 700.931 239.074 700.742 238.927 700.514C238.779 700.285 238.677 700.023 238.628 699.745L238.25 697.667L238.21 697.556C236.368 694.059 232.827 691.515 228.495 690.583C224.638 689.747 220.683 690.172 216.871 690.573C215.359 690.735 213.651 690.917 212.227 691.91C211.017 692.762 209.994 694.465 210.203 696.182C206.444 694.87 202.414 697.49 200.417 700.794C198.051 704.727 197.664 709.652 197.601 713.504C197.432 722.615 199.083 730.07 202.494 735.665C202.743 736.07 202.806 736.916 203.3 737.2L203.197 737.013C203.749 737.327 204.309 737.833 204.1 738.376C203.5 739.937 207.49 743.388 210.301 744.528C215.43 746.611 222.249 746.433 227.044 745.683L227.214 744.391C228.944 744.122 230.163 743.611 230.505 742.81C231.11 742.222 231.626 741.695 232.075 741.209L232.08 741.203C232.089 741.193 232.107 741.178 232.115 741.168C234.282 738.801 234.784 737.453 235.011 735.401C235.229 733.389 234.842 731.347 234.446 729.507C242.783 730.977 231.164 719.392 238.93 717.152C239.019 717.121 239.11 717.096 239.202 717.076C239.428 717.016 239.655 716.955 239.873 716.884C240.924 716.559 241.93 716.069 242.863 715.429C245.033 713.924 245.75 711.928 246.87 709.678C247.032 709.357 247.1 708.986 247.064 708.619C247.028 708.252 246.89 707.907 246.67 707.635V707.635Z" fill="#2F2E41"/>
<path d="M289.983 821.84C289.979 822.727 289.97 823.968 289.934 825.504C289.93 825.717 289.926 825.934 289.921 826.157C289.863 828.98 289.805 831.347 289.712 833.977C289.708 834.159 289.703 834.337 289.694 834.519C289.57 838.188 289.374 842.46 289.036 849.225C288.409 861.722 287.314 850.943 286.216 855.327C286.162 855.545 286.104 855.803 286.051 856.107C285.885 857.21 285.604 858.287 285.215 859.315C284.632 859.71 284.032 860.09 283.44 860.47C281.754 861.54 280.041 862.568 278.315 863.547C277.346 864.094 276.372 864.631 275.393 865.148C275.237 865.229 275.086 865.31 274.935 865.386C269.923 868.027 264.759 870.272 259.477 872.106C258.445 872.461 257.417 872.805 256.377 873.124C255.291 873.469 254.206 873.793 253.107 874.097C244.933 876.383 236.57 877.673 228.157 877.944C227.022 877.984 225.879 877.999 224.731 877.999C224.162 877.999 223.602 877.994 223.032 877.989C222.859 877.989 222.685 877.984 222.512 877.979C222.009 877.964 221.489 877.954 220.964 877.939C210.812 877.578 200.744 875.733 191.005 872.45L190.591 872.314C189.95 872.091 189.314 871.873 188.678 871.64C185.742 870.58 182.849 869.395 179.999 868.082C177.824 867.084 175.674 866.013 173.549 864.869C173.53 864.863 173.512 864.853 173.496 864.839C173.051 864.606 172.602 864.362 172.157 864.114C172.099 864.079 172.037 864.043 171.975 864.008C170.316 863.085 168.674 862.119 167.051 861.109C165.685 857.536 163.763 856.852 162.571 853.71C162.224 852.777 161.973 851.801 161.824 850.801C161.824 850.791 161.819 850.781 161.819 850.766C161.944 852.651 161.29 847.421 161.815 850.746C161.81 850.685 161.806 850.619 161.802 850.543C161.788 850.361 161.77 850.138 161.744 849.859C160.218 832.887 160.316 813.478 159.653 797.485C159.609 796.451 159.563 795.461 159.515 794.515C159.502 794.201 159.484 793.892 159.466 793.588C159.497 793.497 159.533 793.4 159.573 793.309C159.581 793.283 159.592 793.257 159.604 793.233C159.617 793.202 159.632 793.171 159.649 793.142C159.657 793.127 159.671 793.106 159.68 793.091C159.686 793.074 159.694 793.057 159.702 793.04C159.742 792.969 159.786 792.893 159.835 792.823C159.858 792.792 159.875 792.767 159.898 792.741C159.913 792.716 159.931 792.692 159.951 792.671C159.965 792.646 159.981 792.624 160 792.605C160.018 792.584 160.036 792.559 160.058 792.534C160.067 792.518 160.079 792.504 160.093 792.493C160.129 792.447 160.167 792.405 160.209 792.366C160.368 792.2 160.537 792.048 160.716 791.91C160.778 791.865 160.845 791.819 160.907 791.768C161.356 791.463 161.828 791.205 162.318 790.998C162.487 790.927 162.656 790.861 162.838 790.79C162.905 790.77 162.967 790.745 163.034 790.719C163.132 790.684 163.229 790.649 163.332 790.623C163.839 790.451 164.386 790.304 164.978 790.167C165.049 790.152 165.124 790.137 165.2 790.116C165.307 790.091 165.418 790.071 165.529 790.051C165.68 790.02 165.836 789.99 165.992 789.959C167.313 789.721 168.812 789.544 170.467 789.427C170.622 789.417 170.778 789.407 170.934 789.397C171.116 789.387 171.299 789.377 171.485 789.366C171.641 789.356 171.801 789.351 171.961 789.346C172.117 789.336 172.277 789.331 172.442 789.326C172.891 789.311 173.354 789.295 173.825 789.285C175.169 789.255 176.583 789.265 178.069 789.301C178.758 789.321 179.461 789.341 180.182 789.377C180.231 789.377 180.275 789.382 180.32 789.382C180.947 789.407 181.579 789.437 182.228 789.478C182.682 789.503 183.14 789.529 183.598 789.559C184.03 789.589 184.466 789.62 184.906 789.655C185.248 789.676 185.591 789.706 185.938 789.731C186.231 789.757 186.525 789.782 186.819 789.802L187.219 789.833C187.437 789.853 187.655 789.868 187.877 789.893C188.367 789.939 188.856 789.985 189.354 790.03C189.848 790.081 190.351 790.132 190.853 790.182C191.356 790.233 191.863 790.289 192.37 790.344C192.424 790.35 192.472 790.355 192.521 790.36C192.984 790.415 193.447 790.466 193.914 790.522C194.02 790.532 194.132 790.542 194.238 790.557C194.684 790.608 195.138 790.668 195.587 790.722C195.725 790.739 195.862 790.756 196.001 790.773C196.353 790.817 196.7 790.854 197.054 790.902C197.521 790.963 197.997 791.018 198.46 791.089C198.82 791.135 199.18 791.181 199.541 791.231C200.106 791.307 200.679 791.388 201.253 791.475C201.471 791.505 201.689 791.535 201.907 791.571C203.544 791.804 205.199 792.062 206.88 792.331C209.429 792.741 212.018 793.187 214.625 793.669C217.236 794.15 219.862 794.659 222.503 795.194C223.17 795.331 223.837 795.468 224.509 795.61C224.811 795.676 225.114 795.741 225.416 795.807C225.932 795.914 226.448 796.025 226.964 796.137C227.48 796.248 227.996 796.36 228.512 796.476C229.126 796.613 229.745 796.75 230.358 796.887C234.402 797.799 238.423 798.772 242.347 799.791C242.992 799.958 243.637 800.13 244.277 800.297C245.558 800.637 246.828 800.981 248.085 801.331C248.432 801.422 248.774 801.519 249.117 801.615C249.971 801.858 250.825 802.101 251.666 802.35L251.813 802.395C252.431 802.568 253.036 802.745 253.641 802.927C255.069 803.353 256.473 803.784 257.853 804.22C258.77 804.509 259.676 804.801 260.571 805.096C261.91 805.537 263.222 805.983 264.499 806.434C264.815 806.546 265.131 806.657 265.442 806.764C266.376 807.093 267.297 807.427 268.191 807.762C268.903 808.025 269.597 808.294 270.282 808.563C270.967 808.831 271.639 809.1 272.297 809.368C272.72 809.541 273.138 809.723 273.556 809.895C274.156 810.149 274.748 810.402 275.326 810.656C275.504 810.732 275.678 810.813 275.851 810.889C275.962 810.944 276.069 810.99 276.176 811.041C276.385 811.137 276.598 811.228 276.803 811.324C277.012 811.416 277.217 811.512 277.421 811.613C277.621 811.705 277.826 811.801 278.022 811.897C278.222 811.988 278.418 812.085 278.613 812.186C278.778 812.262 278.938 812.343 279.094 812.424C279.41 812.581 279.726 812.738 280.032 812.901C280.184 812.982 280.335 813.058 280.486 813.139L280.833 813.321C280.882 813.352 280.931 813.377 280.98 813.402C281.091 813.463 281.207 813.529 281.318 813.59C281.576 813.727 281.83 813.874 282.079 814.01C282.412 814.203 282.737 814.395 283.048 814.583C283.364 814.776 283.671 814.968 283.965 815.156C284.014 815.186 284.058 815.216 284.107 815.247C284.174 815.287 284.241 815.333 284.307 815.374C284.534 815.521 284.752 815.673 284.97 815.819C285.397 816.118 285.802 816.412 286.18 816.706C286.265 816.772 286.345 816.838 286.429 816.899C286.709 817.127 286.976 817.35 287.225 817.578C287.225 817.583 287.225 817.583 287.23 817.583C287.314 817.654 287.394 817.73 287.474 817.801C287.541 817.872 287.612 817.933 287.679 818.004C287.91 818.232 288.124 818.45 288.32 818.673C288.385 818.741 288.448 818.814 288.506 818.89C288.532 818.915 288.556 818.942 288.578 818.972C288.667 819.073 288.747 819.174 288.822 819.276C288.834 819.29 288.844 819.305 288.853 819.321C288.96 819.463 289.058 819.605 289.151 819.747C289.196 819.818 289.245 819.889 289.285 819.96C289.338 820.046 289.392 820.137 289.436 820.223C289.476 820.294 289.512 820.37 289.547 820.441C289.642 820.624 289.722 820.815 289.788 821.014C289.838 821.148 289.878 821.287 289.908 821.429C289.941 821.564 289.967 821.701 289.983 821.84V821.84Z" fill="#2F2E41"/>
<path opacity="0.2" d="M289.983 821.84C289.979 822.727 289.97 823.968 289.934 825.504C289.93 825.717 289.921 825.934 289.917 826.157C289.872 828.311 289.805 830.972 289.712 833.977C289.708 834.159 289.703 834.337 289.694 834.519C289.57 838.188 289.374 842.46 289.036 849.225C288.409 861.722 287.314 850.943 286.216 855.327C283.164 853.188 279.819 850.948 276.243 848.648C275.598 848.232 274.947 847.815 274.29 847.396C267.137 842.85 259.148 838.087 250.807 833.369C250.478 833.181 250.144 832.994 249.815 832.811C230.71 822.053 209.856 811.588 192.962 804.605C189.701 803.257 186.587 802.041 183.66 800.971C177.495 798.726 172.166 797.155 168.065 796.476C163.794 795.767 160.845 796.02 159.653 797.485C159.608 796.451 159.562 795.461 159.515 794.515C159.497 794.201 159.479 793.892 159.462 793.588C159.489 793.504 159.525 793.425 159.559 793.344C159.564 793.333 159.568 793.321 159.573 793.309C159.581 793.283 159.592 793.257 159.604 793.233C159.617 793.202 159.632 793.171 159.649 793.142C159.663 793.106 159.681 793.072 159.702 793.04C159.742 792.969 159.786 792.893 159.835 792.823C159.871 792.769 159.91 792.719 159.951 792.67C159.965 792.646 159.981 792.624 160 792.605C160.018 792.584 160.035 792.559 160.058 792.534C160.067 792.518 160.079 792.504 160.093 792.493C160.129 792.447 160.167 792.405 160.209 792.366C160.368 792.2 160.537 792.048 160.716 791.91C160.778 791.865 160.845 791.819 160.907 791.768C161.356 791.463 161.828 791.205 162.317 790.998C162.487 790.927 162.656 790.861 162.838 790.79C162.905 790.77 162.967 790.745 163.034 790.719C163.132 790.684 163.229 790.649 163.332 790.623C163.839 790.451 164.386 790.304 164.978 790.167C165.155 790.127 165.342 790.086 165.529 790.051C165.68 790.02 165.836 789.99 165.992 789.959C167.313 789.721 168.812 789.544 170.467 789.427C170.622 789.417 170.778 789.407 170.934 789.397C171.116 789.387 171.299 789.377 171.485 789.366C171.641 789.356 171.801 789.351 171.961 789.346C172.117 789.336 172.277 789.331 172.442 789.326C172.891 789.311 173.354 789.295 173.825 789.285C175.169 789.26 176.583 789.27 178.069 789.306C178.758 789.321 179.461 789.346 180.182 789.382C180.226 789.382 180.275 789.387 180.32 789.387C180.947 789.407 181.583 789.442 182.228 789.478C182.682 789.503 183.14 789.529 183.598 789.559C184.03 789.589 184.465 789.62 184.906 789.655C185.248 789.676 185.591 789.706 185.938 789.731C186.231 789.757 186.525 789.782 186.819 789.802C187.17 789.833 187.521 789.863 187.877 789.893C188.367 789.939 188.856 789.985 189.354 790.03C189.848 790.081 190.351 790.132 190.853 790.182C191.356 790.233 191.863 790.289 192.37 790.344C192.423 790.35 192.472 790.355 192.521 790.36C192.984 790.415 193.447 790.466 193.914 790.522C196.503 790.821 199.167 791.17 201.907 791.571C203.544 791.809 205.202 792.064 206.88 792.336C209.429 792.746 212.018 793.192 214.625 793.669C217.236 794.15 219.862 794.659 222.503 795.194C223.17 795.331 223.837 795.468 224.509 795.61C225.327 795.782 226.146 795.958 226.964 796.137C227.48 796.248 227.996 796.36 228.512 796.476C229.126 796.613 229.745 796.75 230.358 796.887C234.402 797.799 238.423 798.772 242.347 799.791C242.992 799.958 243.637 800.13 244.277 800.297C245.558 800.637 246.827 800.981 248.085 801.331C248.432 801.427 248.774 801.524 249.117 801.62C249.975 801.863 250.825 802.106 251.666 802.35V802.355C251.715 802.365 251.764 802.38 251.813 802.395C252.426 802.573 253.036 802.75 253.641 802.932C255.069 803.358 256.473 803.787 257.853 804.22C258.77 804.514 259.677 804.802 260.571 805.096C261.91 805.542 263.222 805.988 264.499 806.434C264.815 806.546 265.131 806.657 265.442 806.764C266.376 807.098 267.293 807.431 268.191 807.762C268.903 808.025 269.597 808.294 270.282 808.563C270.967 808.831 271.639 809.1 272.297 809.368C272.724 809.541 273.142 809.718 273.556 809.89C274.161 810.144 274.748 810.397 275.326 810.656C275.504 810.732 275.678 810.813 275.851 810.889C276.176 811.031 276.492 811.178 276.803 811.324C277.012 811.416 277.217 811.512 277.421 811.613C277.621 811.705 277.826 811.801 278.022 811.897C278.222 811.988 278.418 812.085 278.613 812.186C278.778 812.262 278.938 812.343 279.094 812.424C279.41 812.581 279.726 812.738 280.032 812.901C280.184 812.982 280.335 813.058 280.486 813.139L280.833 813.321C280.882 813.352 280.931 813.377 280.98 813.402C281.358 813.605 281.723 813.808 282.079 814.01C282.412 814.203 282.737 814.395 283.048 814.583C283.418 814.806 283.769 815.024 284.107 815.247C284.174 815.287 284.241 815.333 284.307 815.374C284.534 815.52 284.752 815.673 284.97 815.819C285.397 816.118 285.802 816.412 286.18 816.706C286.554 817 286.901 817.289 287.225 817.578C287.225 817.583 287.225 817.583 287.23 817.583C287.385 817.725 287.537 817.867 287.679 818.004C287.91 818.232 288.124 818.45 288.32 818.673C288.385 818.741 288.448 818.814 288.506 818.89C288.532 818.915 288.556 818.942 288.578 818.972C288.671 819.088 288.764 819.205 288.853 819.321C288.96 819.463 289.058 819.605 289.151 819.747C289.196 819.818 289.245 819.889 289.285 819.96C289.338 820.046 289.392 820.137 289.436 820.223C289.476 820.294 289.512 820.37 289.547 820.441C289.642 820.624 289.722 820.815 289.788 821.014C289.836 821.149 289.876 821.288 289.908 821.429C289.941 821.564 289.967 821.701 289.983 821.84V821.84Z" fill="black"/>
</g>
</g>
<defs>
<radialGradient id="paint0_radial_220_2" cx="0" cy="0" r="1" gradientUnits="userSpaceOnUse" gradientTransform="translate(79.636 523.654) rotate(-43.59) scale(136.893 199.437)">
<stop stop-color="#277A9C"/>
<stop offset="0.9999" stop-color="#277A9C" stop-opacity="0"/>
<stop offset="1" stop-color="#277A9C" stop-opacity="0"/>
</radialGradient>
<radialGradient id="paint1_radial_220_2" cx="0" cy="0" r="1" gradientUnits="userSpaceOnUse" gradientTransform="translate(276.191 417.648) rotate(-43.59) scale(114.76 187.963)">
<stop stop-color="#277A9C"/>
<stop offset="0.9999" stop-color="#277A9C" stop-opacity="0"/>
<stop offset="1" stop-color="#277A9C" stop-opacity="0"/>
</radialGradient>
<radialGradient id="paint2_radial_220_2" cx="0" cy="0" r="1" gradientUnits="userSpaceOnUse" gradientTransform="translate(403.722 308.136) rotate(-29.3383) scale(85.7628 115.473)">
<stop stop-color="#277A9C"/>
<stop offset="0.9999" stop-color="#277A9C" stop-opacity="0"/>
<stop offset="1" stop-color="#277A9C" stop-opacity="0"/>
</radialGradient>
<radialGradient id="paint3_radial_220_2" cx="0" cy="0" r="1" gradientUnits="userSpaceOnUse" gradientTransform="translate(111.196 66.6652) rotate(-32.7907) scale(84.7782 131.985)">
<stop stop-color="#277A9C"/>
<stop offset="0.9999" stop-color="#277A9C" stop-opacity="0"/>
<stop offset="1" stop-color="#277A9C" stop-opacity="0"/>
</radialGradient>
<radialGradient id="paint4_radial_220_2" cx="0" cy="0" r="1" gradientUnits="userSpaceOnUse" gradientTransform="translate(219.434 4.12978) rotate(-19.6423) scale(65.1747 78.8222)">
<stop stop-color="#277A9C"/>
<stop offset="0.9999" stop-color="#277A9C" stop-opacity="0"/>
<stop offset="1" stop-color="#277A9C" stop-opacity="0"/>
</radialGradient>
<clipPath id="clip0_220_2">
<rect width="428" height="926" fill="white"/>
</clipPath>
<clipPath id="clip1_220_2">
<rect width="350" height="290" fill="white" transform="translate(48 588)"/>
</clipPath>
</defs>
</svg>
