<svg width="3200" height="2000" viewBox="0 0 3200 2000" fill="none" xmlns="http://www.w3.org/2000/svg">
<g clip-path="url(#clip0_1_2)">
<rect width="3200" height="2000" fill="#313334"/>
<path d="M1152.15 383.866C1160.13 49.4698 896.173 -265.673 596.633 -116.809V-116.809C424.243 -31.1351 283.595 107.705 190.586 284.017C97.5771 460.329 55.9171 667.082 70.3151 880.907C84.713 1094.73 154.595 1307.1 272.061 1494.01C389.527 1680.91 549.894 1834.9 735.033 1938.57C920.173 2042.25 1122.7 2091.46 1319.73 2080.66C1516.76 2069.85 1700.42 1999.46 1849.97 1877.44V1877.44C2111.71 1663.87 1935.68 1288.02 1626.88 1151.07L1583.92 1132.02C1314.56 1012.56 1143.58 742.706 1150.62 448.127L1152.15 383.866Z" fill="url(#paint0_radial_1_2)"/>
<path d="M2416.47 354.711C2406.65 183.923 2273.39 15.0769 2119.21 89.1891V89.1891C2036.84 128.784 1972.63 198.979 1933.84 291.84C1895.05 384.702 1883.23 496.526 1899.72 614.674C1916.2 732.821 1960.33 852.58 2027.12 960.413C2093.91 1068.25 2180.7 1159.85 2277.67 1224.88C2374.64 1289.91 2477.93 1325.76 2575.86 1328.39C2673.79 1331.01 2762.46 1300.31 2831.84 1239.74V1239.74C2964 1124.37 2864.82 928.257 2711.34 843.273L2666.27 818.316C2522.79 738.87 2430.08 591.4 2420.66 427.666L2416.47 354.711Z" fill="url(#paint1_radial_1_2)"/>
<path d="M3139.08 3.45703C3174.24 -71.9937 3133.81 -166.868 3053.09 -146.539V-146.539C3004.07 -134.196 2960.28 -106.316 2926.65 -66.0525C2893.02 -25.789 2870.91 25.2531 2862.8 81.3041C2854.7 137.355 2796.14 301.051 2816 356C2835.86 410.949 2933.33 354.96 2975.17 392.25C3017.01 429.54 3066.32 453.751 3117.53 462.145C3168.74 470.54 3219.81 462.784 3264.96 439.753V439.753C3339.67 401.651 3308.05 302.605 3231.56 268.223L3208.56 257.884C3123.04 219.443 3085.48 118.484 3125.08 33.4969L3139.08 3.45703Z" fill="url(#paint2_radial_1_2)"/>
<g clip-path="url(#clip1_1_2)">
<path d="M2562.06 901.136C2590.69 901.136 2613.91 876.235 2613.91 845.519C2613.91 814.802 2590.69 789.902 2562.06 789.902C2533.42 789.902 2510.2 814.802 2510.2 845.519C2510.2 876.235 2533.42 901.136 2562.06 901.136Z" fill="#F2F2F2"/>
<path d="M2964.3 1726.56C3041.37 1663.59 3078.18 1557.78 3055.13 1456.85C3054.56 1454.34 3053.96 1451.84 3053.32 1449.34C3038.04 1389.43 3000.24 1332.48 2945.15 1313.34C2898.89 1297.27 2848.4 1309.63 2800.14 1303.24C2705.41 1290.69 2631.97 1208.47 2580.29 1122.39C2528.61 1036.31 2488.9 939.958 2420.23 868.844C2307.04 751.623 2122.4 726.386 1982.06 802.687C1841.72 878.989 1752.33 1048.27 1756.14 1216.98C1759.96 1385.69 1853.33 1546.99 1988.94 1632.57C2038.76 1664.01 2096.37 1686.28 2153.71 1678.49C2203.47 1671.73 2248.68 1643.05 2298.2 1634.54C2376.05 1621.15 2453.41 1658.91 2520.75 1702.91C2588.09 1746.91 2653.14 1799.06 2729.66 1819.46C2803.97 1839.26 2896.02 1782.33 2964.3 1726.56Z" fill="#E3E3E3"/>
<path d="M2853.56 806.23C2851.87 805.022 2850.16 803.876 2848.47 802.71C2799.63 769.207 2747.28 741.989 2692.51 721.62L2679.81 909.546H2599.29V694.187C2594.23 693.062 2589.12 692 2584.01 691V909.546H2488.33C2435.65 909.546 2385.14 887.102 2347.89 847.152C2310.65 807.202 2289.72 753.018 2289.72 696.52V696.52C2284.59 697.707 2279.51 698.978 2274.42 700.332V909.546H2196.49L2184.39 730.347C2128.1 753.502 2074.66 783.952 2025.26 821.019C2024.41 821.644 2023.55 822.29 2022.72 822.915C2018.42 826.144 2014.19 829.435 2009.98 832.767V1549.71H2239.66L2235.6 1489.41L2213.26 1158.32H2663.01L2640.68 1489.41L2636.62 1549.71H2863.76V813.479C2860.38 811.021 2856.98 808.605 2853.56 806.23ZM2274.42 1103.64H2209.58L2197.59 925.96H2274.42V1103.64ZM2584.01 1103.64H2475.1V1100.12C2475.1 1098.43 2474.79 1096.75 2474.19 1095.19C2473.58 1093.62 2472.7 1092.2 2471.58 1091.01C2470.47 1089.81 2469.14 1088.86 2467.68 1088.22C2466.22 1087.57 2464.66 1087.24 2463.08 1087.24H2415.74C2414.16 1087.24 2412.6 1087.58 2411.14 1088.22C2409.69 1088.87 2408.36 1089.82 2407.25 1091.01C2406.13 1092.21 2405.25 1093.63 2404.65 1095.19C2404.05 1096.75 2403.74 1098.43 2403.74 1100.12V1103.64H2289.72V925.96H2584.01V1103.64ZM2599.29 1103.64V925.96H2678.7L2666.72 1103.64H2599.29Z" fill="#3F3D56"/>
<path d="M1672 1595.62C1688.87 1617.06 1707.12 1637.21 1726.61 1655.92L3145.39 1658C3164.88 1639.29 3183.13 1619.14 3200 1597.7L1672 1595.62Z" fill="#3F3D56"/>
<path d="M2634.12 1402.53V1581.05C2634.12 1583.32 2634.97 1585.5 2636.47 1587.11C2637.97 1588.72 2640 1589.62 2642.12 1589.63H2888.76C2890.88 1589.62 2892.92 1588.72 2894.42 1587.11C2895.92 1585.5 2896.76 1583.32 2896.76 1581.05V1402.53C2896.76 1400.25 2895.91 1398.08 2894.41 1396.47C2892.91 1394.86 2890.88 1393.96 2888.76 1393.96H2642.12C2640 1393.96 2637.97 1394.86 2636.47 1396.47C2634.97 1398.08 2634.13 1400.25 2634.12 1402.53V1402.53Z" fill="#3F3D56"/>
<path d="M2639.91 1404.75V1578.84C2639.91 1580.06 2640.36 1581.22 2641.16 1582.08C2641.96 1582.94 2643.05 1583.43 2644.18 1583.43H2886.71C2887.84 1583.43 2888.93 1582.94 2889.73 1582.08C2890.53 1581.22 2890.98 1580.06 2890.99 1578.84V1404.75C2890.99 1403.53 2890.54 1402.36 2889.73 1401.5C2888.93 1400.64 2887.84 1400.16 2886.71 1400.15H2644.18C2643.05 1400.16 2641.96 1400.64 2641.16 1401.5C2640.36 1402.36 2639.91 1403.53 2639.91 1404.75V1404.75Z" fill="#6C63FF"/>
<path d="M2628.96 1615.86C2629.42 1616.47 2629.99 1616.96 2630.64 1617.3C2631.3 1617.63 2632.01 1617.8 2632.74 1617.8H2896.83C2897.56 1617.8 2898.27 1617.62 2898.92 1617.29C2899.57 1616.96 2900.15 1616.47 2900.6 1615.87C2901.06 1615.27 2901.38 1614.57 2901.55 1613.81C2901.72 1613.06 2901.73 1612.28 2901.58 1611.52L2897.48 1590.63C2897.31 1589.78 2896.95 1588.99 2896.42 1588.33C2895.89 1587.66 2895.22 1587.16 2894.46 1586.84C2893.91 1586.61 2893.32 1586.5 2892.73 1586.5H2636.82C2636.23 1586.5 2635.65 1586.61 2635.1 1586.84C2634.34 1587.16 2633.66 1587.66 2633.14 1588.33C2632.61 1588.99 2632.24 1589.78 2632.07 1590.63L2627.97 1611.52C2627.83 1612.28 2627.84 1613.06 2628.01 1613.81C2628.18 1614.56 2628.51 1615.26 2628.96 1615.86V1615.86Z" fill="#2F2E41"/>
<path d="M2883.67 1595.49H2889.91C2890.43 1595.49 2890.86 1595.04 2890.86 1594.48V1591.27C2890.86 1590.71 2890.43 1590.26 2889.91 1590.26H2883.67C2883.15 1590.26 2882.72 1590.71 2882.72 1591.27V1594.48C2882.72 1595.04 2883.15 1595.49 2883.67 1595.49Z" fill="#3F3D56"/>
<path d="M2867.4 1595.49H2873.64C2874.17 1595.49 2874.59 1595.04 2874.59 1594.48V1591.27C2874.59 1590.71 2874.17 1590.26 2873.64 1590.26H2867.4C2866.88 1590.26 2866.46 1590.71 2866.46 1591.27V1594.48C2866.46 1595.04 2866.88 1595.49 2867.4 1595.49Z" fill="#3F3D56"/>
<path d="M2851.14 1595.49H2857.37C2857.9 1595.49 2858.32 1595.04 2858.32 1594.48V1591.27C2858.32 1590.71 2857.9 1590.26 2857.37 1590.26H2851.14C2850.61 1590.26 2850.19 1590.71 2850.19 1591.27V1594.48C2850.19 1595.04 2850.61 1595.49 2851.14 1595.49Z" fill="#3F3D56"/>
<path d="M2834.87 1595.49H2841.11C2841.63 1595.49 2842.05 1595.04 2842.05 1594.48V1591.27C2842.05 1590.71 2841.63 1590.26 2841.11 1590.26H2834.87C2834.34 1590.26 2833.92 1590.71 2833.92 1591.27V1594.48C2833.92 1595.04 2834.34 1595.49 2834.87 1595.49Z" fill="#3F3D56"/>
<path d="M2818.6 1595.49H2824.84C2825.36 1595.49 2825.79 1595.04 2825.79 1594.48V1591.27C2825.79 1590.71 2825.36 1590.26 2824.84 1590.26H2818.6C2818.08 1590.26 2817.65 1590.71 2817.65 1591.27V1594.48C2817.65 1595.04 2818.08 1595.49 2818.6 1595.49Z" fill="#3F3D56"/>
<path d="M2802.33 1595.49H2808.57C2809.09 1595.49 2809.52 1595.04 2809.52 1594.48V1591.27C2809.52 1590.71 2809.09 1590.26 2808.57 1590.26H2802.33C2801.81 1590.26 2801.38 1590.71 2801.38 1591.27V1594.48C2801.38 1595.04 2801.81 1595.49 2802.33 1595.49Z" fill="#3F3D56"/>
<path d="M2786.06 1595.49H2792.3C2792.83 1595.49 2793.25 1595.04 2793.25 1594.48V1591.27C2793.25 1590.71 2792.83 1590.26 2792.3 1590.26H2786.06C2785.54 1590.26 2785.12 1590.71 2785.12 1591.27V1594.48C2785.12 1595.04 2785.54 1595.49 2786.06 1595.49Z" fill="#3F3D56"/>
<path d="M2769.8 1595.49H2776.03C2776.56 1595.49 2776.98 1595.04 2776.98 1594.48V1591.27C2776.98 1590.71 2776.56 1590.26 2776.03 1590.26H2769.8C2769.27 1590.26 2768.85 1590.71 2768.85 1591.27V1594.48C2768.85 1595.04 2769.27 1595.49 2769.8 1595.49Z" fill="#3F3D56"/>
<path d="M2753.53 1595.49H2759.77C2760.29 1595.49 2760.71 1595.04 2760.71 1594.48V1591.27C2760.71 1590.71 2760.29 1590.26 2759.77 1590.26H2753.53C2753 1590.26 2752.58 1590.71 2752.58 1591.27V1594.48C2752.58 1595.04 2753 1595.49 2753.53 1595.49Z" fill="#3F3D56"/>
<path d="M2737.26 1595.49H2743.5C2744.02 1595.49 2744.45 1595.04 2744.45 1594.48V1591.27C2744.45 1590.71 2744.02 1590.26 2743.5 1590.26H2737.26C2736.74 1590.26 2736.31 1590.71 2736.31 1591.27V1594.48C2736.31 1595.04 2736.74 1595.49 2737.26 1595.49Z" fill="#3F3D56"/>
<path d="M2720.99 1595.49H2727.23C2727.75 1595.49 2728.18 1595.04 2728.18 1594.48V1591.27C2728.18 1590.71 2727.75 1590.26 2727.23 1590.26H2720.99C2720.47 1590.26 2720.04 1590.71 2720.04 1591.27V1594.48C2720.04 1595.04 2720.47 1595.49 2720.99 1595.49Z" fill="#3F3D56"/>
<path d="M2704.72 1595.49H2710.96C2711.49 1595.49 2711.91 1595.04 2711.91 1594.48V1591.27C2711.91 1590.71 2711.49 1590.26 2710.96 1590.26H2704.72C2704.2 1590.26 2703.78 1590.71 2703.78 1591.27V1594.48C2703.78 1595.04 2704.2 1595.49 2704.72 1595.49Z" fill="#3F3D56"/>
<path d="M2688.46 1595.49H2694.69C2695.22 1595.49 2695.64 1595.04 2695.64 1594.48V1591.27C2695.64 1590.71 2695.22 1590.26 2694.69 1590.26H2688.46C2687.93 1590.26 2687.51 1590.71 2687.51 1591.27V1594.48C2687.51 1595.04 2687.93 1595.49 2688.46 1595.49Z" fill="#3F3D56"/>
<path d="M2672.19 1595.49H2678.43C2678.95 1595.49 2679.37 1595.04 2679.37 1594.48V1591.27C2679.37 1590.71 2678.95 1590.26 2678.43 1590.26H2672.19C2671.66 1590.26 2671.24 1590.71 2671.24 1591.27V1594.48C2671.24 1595.04 2671.66 1595.49 2672.19 1595.49Z" fill="#3F3D56"/>
<path d="M2655.92 1595.49H2662.16C2662.68 1595.49 2663.11 1595.04 2663.11 1594.48V1591.27C2663.11 1590.71 2662.68 1590.26 2662.16 1590.26H2655.92C2655.4 1590.26 2654.97 1590.71 2654.97 1591.27V1594.48C2654.97 1595.04 2655.4 1595.49 2655.92 1595.49Z" fill="#3F3D56"/>
<path d="M2639.65 1595.49H2645.89C2646.41 1595.49 2646.84 1595.04 2646.84 1594.48V1591.27C2646.84 1590.71 2646.41 1590.26 2645.89 1590.26H2639.65C2639.13 1590.26 2638.7 1590.71 2638.7 1591.27V1594.48C2638.7 1595.04 2639.13 1595.49 2639.65 1595.49Z" fill="#3F3D56"/>
<path d="M2883.86 1604.22H2890.1C2890.63 1604.22 2891.05 1603.76 2891.05 1603.2V1600C2891.05 1599.44 2890.63 1598.98 2890.1 1598.98H2883.86C2883.34 1598.98 2882.92 1599.44 2882.92 1600V1603.2C2882.92 1603.76 2883.34 1604.22 2883.86 1604.22Z" fill="#3F3D56"/>
<path d="M2867.6 1604.22H2873.83C2874.36 1604.22 2874.78 1603.76 2874.78 1603.2V1600C2874.78 1599.44 2874.36 1598.98 2873.83 1598.98H2867.6C2867.07 1598.98 2866.65 1599.44 2866.65 1600V1603.2C2866.65 1603.76 2867.07 1604.22 2867.6 1604.22Z" fill="#3F3D56"/>
<path d="M2851.33 1604.22H2857.57C2858.09 1604.22 2858.51 1603.76 2858.51 1603.2V1600C2858.51 1599.44 2858.09 1598.98 2857.57 1598.98H2851.33C2850.8 1598.98 2850.38 1599.44 2850.38 1600V1603.2C2850.38 1603.76 2850.8 1604.22 2851.33 1604.22Z" fill="#3F3D56"/>
<path d="M2835.06 1604.22H2841.3C2841.82 1604.22 2842.25 1603.76 2842.25 1603.2V1600C2842.25 1599.44 2841.82 1598.98 2841.3 1598.98H2835.06C2834.54 1598.98 2834.11 1599.44 2834.11 1600V1603.2C2834.11 1603.76 2834.54 1604.22 2835.06 1604.22Z" fill="#3F3D56"/>
<path d="M2818.79 1604.22H2825.03C2825.55 1604.22 2825.98 1603.76 2825.98 1603.2V1600C2825.98 1599.44 2825.55 1598.98 2825.03 1598.98H2818.79C2818.27 1598.98 2817.84 1599.44 2817.84 1600V1603.2C2817.84 1603.76 2818.27 1604.22 2818.79 1604.22Z" fill="#3F3D56"/>
<path d="M2802.52 1604.22H2808.76C2809.29 1604.22 2809.71 1603.76 2809.71 1603.2V1600C2809.71 1599.44 2809.29 1598.98 2808.76 1598.98H2802.52C2802 1598.98 2801.58 1599.44 2801.58 1600V1603.2C2801.58 1603.76 2802 1604.22 2802.52 1604.22Z" fill="#3F3D56"/>
<path d="M2786.26 1604.22H2792.49C2793.02 1604.22 2793.44 1603.76 2793.44 1603.2V1600C2793.44 1599.44 2793.02 1598.98 2792.49 1598.98H2786.26C2785.73 1598.98 2785.31 1599.44 2785.31 1600V1603.2C2785.31 1603.76 2785.73 1604.22 2786.26 1604.22Z" fill="#3F3D56"/>
<path d="M2769.99 1604.22H2776.23C2776.75 1604.22 2777.17 1603.76 2777.17 1603.2V1600C2777.17 1599.44 2776.75 1598.98 2776.23 1598.98H2769.99C2769.46 1598.98 2769.04 1599.44 2769.04 1600V1603.2C2769.04 1603.76 2769.46 1604.22 2769.99 1604.22Z" fill="#3F3D56"/>
<path d="M2753.72 1604.22H2759.96C2760.48 1604.22 2760.91 1603.76 2760.91 1603.2V1600C2760.91 1599.44 2760.48 1598.98 2759.96 1598.98H2753.72C2753.2 1598.98 2752.77 1599.44 2752.77 1600V1603.2C2752.77 1603.76 2753.2 1604.22 2753.72 1604.22Z" fill="#3F3D56"/>
<path d="M2737.45 1604.22H2743.69C2744.21 1604.22 2744.64 1603.76 2744.64 1603.2V1600C2744.64 1599.44 2744.21 1598.98 2743.69 1598.98H2737.45C2736.93 1598.98 2736.5 1599.44 2736.5 1600V1603.2C2736.5 1603.76 2736.93 1604.22 2737.45 1604.22Z" fill="#3F3D56"/>
<path d="M2721.18 1604.22H2727.42C2727.95 1604.22 2728.37 1603.76 2728.37 1603.2V1600C2728.37 1599.44 2727.95 1598.98 2727.42 1598.98H2721.18C2720.66 1598.98 2720.24 1599.44 2720.24 1600V1603.2C2720.24 1603.76 2720.66 1604.22 2721.18 1604.22Z" fill="#3F3D56"/>
<path d="M2704.92 1604.22H2711.15C2711.68 1604.22 2712.1 1603.76 2712.1 1603.2V1600C2712.1 1599.44 2711.68 1598.98 2711.15 1598.98H2704.92C2704.39 1598.98 2703.97 1599.44 2703.97 1600V1603.2C2703.97 1603.76 2704.39 1604.22 2704.92 1604.22Z" fill="#3F3D56"/>
<path d="M2688.65 1604.22H2694.89C2695.41 1604.22 2695.83 1603.76 2695.83 1603.2V1600C2695.83 1599.44 2695.41 1598.98 2694.89 1598.98H2688.65C2688.12 1598.98 2687.7 1599.44 2687.7 1600V1603.2C2687.7 1603.76 2688.12 1604.22 2688.65 1604.22Z" fill="#3F3D56"/>
<path d="M2672.38 1604.22H2678.62C2679.14 1604.22 2679.57 1603.76 2679.57 1603.2V1600C2679.57 1599.44 2679.14 1598.98 2678.62 1598.98H2672.38C2671.86 1598.98 2671.43 1599.44 2671.43 1600V1603.2C2671.43 1603.76 2671.86 1604.22 2672.38 1604.22Z" fill="#3F3D56"/>
<path d="M2656.11 1604.22H2662.35C2662.87 1604.22 2663.3 1603.76 2663.3 1603.2V1600C2663.3 1599.44 2662.87 1598.98 2662.35 1598.98H2656.11C2655.59 1598.98 2655.16 1599.44 2655.16 1600V1603.2C2655.16 1603.76 2655.59 1604.22 2656.11 1604.22Z" fill="#3F3D56"/>
<path d="M2639.84 1604.22H2646.08C2646.61 1604.22 2647.03 1603.76 2647.03 1603.2V1600C2647.03 1599.44 2646.61 1598.98 2646.08 1598.98H2639.84C2639.32 1598.98 2638.9 1599.44 2638.9 1600V1603.2C2638.9 1603.76 2639.32 1604.22 2639.84 1604.22Z" fill="#3F3D56"/>
<path d="M2748.84 1614.69H2812.02C2812.54 1614.69 2812.96 1614.23 2812.96 1613.67V1610.47C2812.96 1609.91 2812.54 1609.45 2812.02 1609.45H2748.84C2748.32 1609.45 2747.89 1609.91 2747.89 1610.47V1613.67C2747.89 1614.23 2748.32 1614.69 2748.84 1614.69Z" fill="#3F3D56"/>
<path d="M2681.91 1438.24H2676.38C2674.71 1438.24 2673.35 1439.7 2673.35 1441.49C2673.35 1443.29 2674.71 1444.74 2676.38 1444.74H2681.91C2683.58 1444.74 2684.94 1443.29 2684.94 1441.49C2684.94 1439.7 2683.58 1438.24 2681.91 1438.24Z" fill="white"/>
<path d="M2745.07 1438.24H2739.54C2737.87 1438.24 2736.51 1439.7 2736.51 1441.49C2736.51 1443.29 2737.87 1444.74 2739.54 1444.74H2745.07C2746.74 1444.74 2748.1 1443.29 2748.1 1441.49C2748.1 1439.7 2746.74 1438.24 2745.07 1438.24Z" fill="white"/>
<path d="M2762.96 1438.24H2757.44C2755.76 1438.24 2754.41 1439.7 2754.41 1441.49C2754.41 1443.29 2755.76 1444.74 2757.44 1444.74H2762.96C2764.64 1444.74 2765.99 1443.29 2765.99 1441.49C2765.99 1439.7 2764.64 1438.24 2762.96 1438.24Z" fill="white"/>
<path d="M2727.89 1437.7H2693.56C2691.89 1437.7 2690.53 1439.15 2690.53 1440.95C2690.53 1442.75 2691.89 1444.2 2693.56 1444.2H2727.89C2729.56 1444.2 2730.92 1442.75 2730.92 1440.95C2730.92 1439.15 2729.56 1437.7 2727.89 1437.7Z" fill="white"/>
<path d="M2812.1 1437.7H2777.78C2776.1 1437.7 2774.74 1439.15 2774.74 1440.95C2774.74 1442.75 2776.1 1444.2 2777.78 1444.2H2812.1C2813.77 1444.2 2815.13 1442.75 2815.13 1440.95C2815.13 1439.15 2813.77 1437.7 2812.1 1437.7Z" fill="white"/>
<path d="M2698.75 1452.92H2693.23C2691.55 1452.92 2690.2 1454.38 2690.2 1456.17C2690.2 1457.97 2691.55 1459.42 2693.23 1459.42H2698.75C2700.42 1459.42 2701.78 1457.97 2701.78 1456.17C2701.78 1454.38 2700.42 1452.92 2698.75 1452.92Z" fill="white"/>
<path d="M2761.91 1452.92H2756.39C2754.71 1452.92 2753.35 1454.38 2753.35 1456.17C2753.35 1457.97 2754.71 1459.42 2756.39 1459.42H2761.91C2763.58 1459.42 2764.94 1457.97 2764.94 1456.17C2764.94 1454.38 2763.58 1452.92 2761.91 1452.92Z" fill="white"/>
<path d="M2779.8 1452.92H2774.28C2772.61 1452.92 2771.25 1454.38 2771.25 1456.17C2771.25 1457.97 2772.61 1459.42 2774.28 1459.42H2779.8C2781.48 1459.42 2782.84 1457.97 2782.84 1456.17C2782.84 1454.38 2781.48 1452.92 2779.8 1452.92Z" fill="white"/>
<path d="M2744.73 1452.38H2710.41C2708.73 1452.38 2707.37 1453.83 2707.37 1455.63C2707.37 1457.42 2708.73 1458.88 2710.41 1458.88H2744.73C2746.4 1458.88 2747.76 1457.42 2747.76 1455.63C2747.76 1453.83 2746.4 1452.38 2744.73 1452.38Z" fill="white"/>
<path d="M2828.94 1452.38H2794.62C2792.94 1452.38 2791.59 1453.83 2791.59 1455.63C2791.59 1457.42 2792.94 1458.88 2794.62 1458.88H2828.94C2830.62 1458.88 2831.97 1457.42 2831.97 1455.63C2831.97 1453.83 2830.62 1452.38 2828.94 1452.38Z" fill="white"/>
<path d="M2715.59 1467.6H2710.07C2708.39 1467.6 2707.04 1469.05 2707.04 1470.85C2707.04 1472.64 2708.39 1474.1 2710.07 1474.1H2715.59C2717.27 1474.1 2718.62 1472.64 2718.62 1470.85C2718.62 1469.05 2717.27 1467.6 2715.59 1467.6Z" fill="white"/>
<path d="M2778.75 1467.6H2773.23C2771.55 1467.6 2770.2 1469.05 2770.2 1470.85C2770.2 1472.64 2771.55 1474.1 2773.23 1474.1H2778.75C2780.43 1474.1 2781.78 1472.64 2781.78 1470.85C2781.78 1469.05 2780.43 1467.6 2778.75 1467.6Z" fill="white"/>
<path d="M2796.65 1467.6H2791.12C2789.45 1467.6 2788.09 1469.05 2788.09 1470.85C2788.09 1472.64 2789.45 1474.1 2791.12 1474.1H2796.65C2798.32 1474.1 2799.68 1472.64 2799.68 1470.85C2799.68 1469.05 2798.32 1467.6 2796.65 1467.6Z" fill="white"/>
<path d="M2761.57 1467.06H2727.25C2725.57 1467.06 2724.22 1468.51 2724.22 1470.31C2724.22 1472.1 2725.57 1473.56 2727.25 1473.56H2761.57C2763.25 1473.56 2764.6 1472.1 2764.6 1470.31C2764.6 1468.51 2763.25 1467.06 2761.57 1467.06Z" fill="white"/>
<path d="M2845.78 1467.06H2811.46C2809.79 1467.06 2808.43 1468.51 2808.43 1470.31C2808.43 1472.1 2809.79 1473.56 2811.46 1473.56H2845.78C2847.46 1473.56 2848.82 1472.1 2848.82 1470.31C2848.82 1468.51 2847.46 1467.06 2845.78 1467.06Z" fill="white"/>
<path d="M2732.43 1482.28H2726.91C2725.24 1482.28 2723.88 1483.73 2723.88 1485.53C2723.88 1487.32 2725.24 1488.78 2726.91 1488.78H2732.43C2734.11 1488.78 2735.47 1487.32 2735.47 1485.53C2735.47 1483.73 2734.11 1482.28 2732.43 1482.28Z" fill="white"/>
<path d="M2795.59 1482.28H2790.07C2788.4 1482.28 2787.04 1483.73 2787.04 1485.53C2787.04 1487.32 2788.4 1488.78 2790.07 1488.78H2795.59C2797.27 1488.78 2798.63 1487.32 2798.63 1485.53C2798.63 1483.73 2797.27 1482.28 2795.59 1482.28Z" fill="white"/>
<path d="M2813.49 1482.28H2807.97C2806.29 1482.28 2804.93 1483.73 2804.93 1485.53C2804.93 1487.32 2806.29 1488.78 2807.97 1488.78H2813.49C2815.16 1488.78 2816.52 1487.32 2816.52 1485.53C2816.52 1483.73 2815.16 1482.28 2813.49 1482.28Z" fill="white"/>
<path d="M2778.41 1481.73H2744.09C2742.42 1481.73 2741.06 1483.19 2741.06 1484.98C2741.06 1486.78 2742.42 1488.24 2744.09 1488.24H2778.41C2780.09 1488.24 2781.45 1486.78 2781.45 1484.98C2781.45 1483.19 2780.09 1481.73 2778.41 1481.73Z" fill="white"/>
<path d="M2745.07 1540.64H2739.54C2737.87 1540.64 2736.51 1542.1 2736.51 1543.89C2736.51 1545.69 2737.87 1547.14 2739.54 1547.14H2745.07C2746.74 1547.14 2748.1 1545.69 2748.1 1543.89C2748.1 1542.1 2746.74 1540.64 2745.07 1540.64Z" fill="white"/>
<path d="M2762.96 1540.64H2757.44C2755.76 1540.64 2754.41 1542.1 2754.41 1543.89C2754.41 1545.69 2755.76 1547.14 2757.44 1547.14H2762.96C2764.64 1547.14 2765.99 1545.69 2765.99 1543.89C2765.99 1542.1 2764.64 1540.64 2762.96 1540.64Z" fill="white"/>
<path d="M2812.1 1541.18H2777.78C2776.1 1541.18 2774.74 1542.64 2774.74 1544.44C2774.74 1546.23 2776.1 1547.69 2777.78 1547.69H2812.1C2813.77 1547.69 2815.13 1546.23 2815.13 1544.44C2815.13 1542.64 2813.77 1541.18 2812.1 1541.18Z" fill="white"/>
<path d="M2681.91 1540.64H2676.38C2674.71 1540.64 2673.35 1542.1 2673.35 1543.89C2673.35 1545.69 2674.71 1547.14 2676.38 1547.14H2681.91C2683.58 1547.14 2684.94 1545.69 2684.94 1543.89C2684.94 1542.1 2683.58 1540.64 2681.91 1540.64Z" fill="white"/>
<path d="M2727.89 1541.18H2693.56C2691.89 1541.18 2690.53 1542.64 2690.53 1544.44C2690.53 1546.23 2691.89 1547.69 2693.56 1547.69H2727.89C2729.56 1547.69 2730.92 1546.23 2730.92 1544.44C2730.92 1542.64 2729.56 1541.18 2727.89 1541.18Z" fill="white"/>
<path d="M2698.75 1525.96H2693.23C2691.55 1525.96 2690.2 1527.42 2690.2 1529.21C2690.2 1531.01 2691.55 1532.47 2693.23 1532.47H2698.75C2700.42 1532.47 2701.78 1531.01 2701.78 1529.21C2701.78 1527.42 2700.42 1525.96 2698.75 1525.96Z" fill="white"/>
<path d="M2761.91 1525.96H2756.39C2754.71 1525.96 2753.35 1527.42 2753.35 1529.21C2753.35 1531.01 2754.71 1532.47 2756.39 1532.47H2761.91C2763.58 1532.47 2764.94 1531.01 2764.94 1529.21C2764.94 1527.42 2763.58 1525.96 2761.91 1525.96Z" fill="white"/>
<path d="M2779.8 1525.96H2774.28C2772.61 1525.96 2771.25 1527.42 2771.25 1529.21C2771.25 1531.01 2772.61 1532.47 2774.28 1532.47H2779.8C2781.48 1532.47 2782.84 1531.01 2782.84 1529.21C2782.84 1527.42 2781.48 1525.96 2779.8 1525.96Z" fill="white"/>
<path d="M2744.73 1526.51H2710.41C2708.73 1526.51 2707.37 1527.96 2707.37 1529.76C2707.37 1531.55 2708.73 1533.01 2710.41 1533.01H2744.73C2746.4 1533.01 2747.76 1531.55 2747.76 1529.76C2747.76 1527.96 2746.4 1526.51 2744.73 1526.51Z" fill="white"/>
<path d="M2715.59 1511.29H2710.07C2708.39 1511.29 2707.04 1512.74 2707.04 1514.54C2707.04 1516.33 2708.39 1517.79 2710.07 1517.79H2715.59C2717.27 1517.79 2718.62 1516.33 2718.62 1514.54C2718.62 1512.74 2717.27 1511.29 2715.59 1511.29Z" fill="white"/>
<path d="M2778.75 1511.29H2773.23C2771.55 1511.29 2770.2 1512.74 2770.2 1514.54C2770.2 1516.33 2771.55 1517.79 2773.23 1517.79H2778.75C2780.43 1517.79 2781.78 1516.33 2781.78 1514.54C2781.78 1512.74 2780.43 1511.29 2778.75 1511.29Z" fill="white"/>
<path d="M2796.65 1511.29H2791.12C2789.45 1511.29 2788.09 1512.74 2788.09 1514.54C2788.09 1516.33 2789.45 1517.79 2791.12 1517.79H2796.65C2798.32 1517.79 2799.68 1516.33 2799.68 1514.54C2799.68 1512.74 2798.32 1511.29 2796.65 1511.29Z" fill="white"/>
<path d="M2761.57 1511.83H2727.25C2725.57 1511.83 2724.22 1513.28 2724.22 1515.08C2724.22 1516.87 2725.57 1518.33 2727.25 1518.33H2761.57C2763.25 1518.33 2764.6 1516.87 2764.6 1515.08C2764.6 1513.28 2763.25 1511.83 2761.57 1511.83Z" fill="white"/>
<path d="M2732.43 1496.61H2726.91C2725.24 1496.61 2723.88 1498.06 2723.88 1499.86C2723.88 1501.65 2725.24 1503.11 2726.91 1503.11H2732.43C2734.11 1503.11 2735.47 1501.65 2735.47 1499.86C2735.47 1498.06 2734.11 1496.61 2732.43 1496.61Z" fill="white"/>
<path d="M2795.59 1496.61H2790.07C2788.4 1496.61 2787.04 1498.06 2787.04 1499.86C2787.04 1501.65 2788.4 1503.11 2790.07 1503.11H2795.59C2797.27 1503.11 2798.63 1501.65 2798.63 1499.86C2798.63 1498.06 2797.27 1496.61 2795.59 1496.61Z" fill="white"/>
<path d="M2813.49 1496.61H2807.97C2806.29 1496.61 2804.93 1498.06 2804.93 1499.86C2804.93 1501.65 2806.29 1503.11 2807.97 1503.11H2813.49C2815.16 1503.11 2816.52 1501.65 2816.52 1499.86C2816.52 1498.06 2815.16 1496.61 2813.49 1496.61Z" fill="white"/>
<path d="M2778.41 1497.15H2744.09C2742.42 1497.15 2741.06 1498.61 2741.06 1500.4C2741.06 1502.2 2742.42 1503.65 2744.09 1503.65H2778.41C2780.09 1503.65 2781.45 1502.2 2781.45 1500.4C2781.45 1498.61 2780.09 1497.15 2778.41 1497.15Z" fill="white"/>
<path d="M2652.55 1712.66L2626.62 1668.71L2708 1599.13L2741.58 1559.22C2745.95 1554.03 2751.5 1550.17 2757.7 1548.01C2763.89 1545.85 2770.5 1545.47 2776.87 1546.91C2783.25 1548.35 2789.16 1551.55 2794.01 1556.21C2798.87 1560.87 2802.5 1566.81 2804.54 1573.44C2807.57 1583.27 2806.91 1593.98 2802.72 1603.3C2798.53 1612.62 2791.12 1619.84 2782.07 1623.41L2728.96 1644.4L2652.55 1712.66Z" fill="#FFB6B6"/>
<path d="M2044.26 1393.96V1607.6H2183.79V1393.96C2183.8 1392.43 2183.34 1390.93 2182.49 1389.69C2181.64 1388.46 2180.44 1387.54 2179.07 1387.09C2178.43 1386.86 2177.75 1386.75 2177.07 1386.76H2051C2050.12 1386.76 2049.24 1386.94 2048.42 1387.3C2047.61 1387.66 2046.86 1388.19 2046.24 1388.86C2045.61 1389.53 2045.12 1390.33 2044.78 1391.2C2044.44 1392.08 2044.26 1393.02 2044.26 1393.96V1393.96ZM2098.71 1467.37C2098.75 1463.16 2100.34 1459.13 2103.13 1456.17C2105.91 1453.2 2109.68 1451.54 2113.61 1451.54C2117.54 1451.54 2121.3 1453.2 2124.09 1456.17C2126.88 1459.13 2128.47 1463.16 2128.5 1467.37V1492.16C2128.48 1496.38 2126.91 1500.42 2124.12 1503.4C2121.32 1506.38 2117.55 1508.05 2113.61 1508.05C2109.67 1508.05 2105.9 1506.38 2103.1 1503.4C2100.31 1500.42 2098.73 1496.38 2098.71 1492.16V1467.37Z" fill="#2F2E41"/>
<path d="M2043.83 1600.76V1621.36C2043.84 1622.43 2044.23 1623.45 2044.93 1624.21C2045.64 1624.97 2046.59 1625.4 2047.58 1625.4H2180.47C2181.47 1625.4 2182.42 1624.97 2183.12 1624.21C2183.83 1623.46 2184.22 1622.43 2184.22 1621.36V1600.76H2043.83Z" fill="#3F3D56"/>
<path d="M1824.76 1072.1V1462.16C1824.76 1467.13 1826.6 1471.9 1829.88 1475.41C1833.16 1478.93 1837.6 1480.9 1842.24 1480.91H2381.14C2385.77 1480.9 2390.22 1478.93 2393.49 1475.41C2396.77 1471.9 2398.61 1467.13 2398.62 1462.16V1072.1C2398.61 1067.14 2396.76 1062.38 2393.48 1058.87C2390.21 1055.36 2385.77 1053.38 2381.14 1053.38H1842.24C1837.6 1053.38 1833.17 1055.36 1829.89 1058.87C1826.61 1062.38 1824.77 1067.14 1824.76 1072.1Z" fill="#3F3D56"/>
<path d="M1837.4 1076.96V1457.35C1837.4 1460.01 1838.39 1462.55 1840.14 1464.43C1841.89 1466.31 1844.26 1467.36 1846.74 1467.37H2376.65C2379.13 1467.36 2381.5 1466.31 2383.25 1464.43C2385 1462.55 2385.99 1460.01 2385.99 1457.35V1076.96C2385.99 1074.3 2385.01 1071.75 2383.26 1069.86C2381.51 1067.98 2379.13 1066.92 2376.65 1066.92H1846.74C1844.26 1066.92 1841.89 1067.98 1840.13 1069.86C1838.38 1071.75 1837.4 1074.3 1837.4 1076.96Z" fill="white"/>
<path d="M1935.74 1624.01C1936.28 1624.73 1936.97 1625.32 1937.75 1625.72C1938.53 1626.12 1939.38 1626.33 1940.25 1626.32H2255.51C2256.37 1626.32 2257.22 1626.11 2258 1625.71C2258.78 1625.32 2259.47 1624.74 2260.01 1624.02C2260.55 1623.3 2260.94 1622.46 2261.14 1621.56C2261.35 1620.66 2261.36 1619.73 2261.18 1618.82L2256.29 1593.89C2256.08 1592.87 2255.65 1591.93 2255.02 1591.14C2254.39 1590.35 2253.58 1589.74 2252.68 1589.37C2252.02 1589.09 2251.32 1588.95 2250.62 1588.95H1945.12C1944.42 1588.95 1943.72 1589.09 1943.06 1589.37C1942.16 1589.74 1941.35 1590.35 1940.72 1591.14C1940.09 1591.93 1939.65 1592.87 1939.45 1593.89L1934.56 1618.82C1934.38 1619.73 1934.4 1620.66 1934.6 1621.56C1934.81 1622.46 1935.2 1623.29 1935.74 1624.01Z" fill="#2F2E41"/>
<path d="M2359.46 1119.32H1863.62C1863.1 1119.31 1862.61 1119.08 1862.25 1118.68C1861.89 1118.29 1861.69 1117.76 1861.69 1117.2C1861.69 1116.65 1861.89 1116.12 1862.25 1115.72C1862.61 1115.33 1863.1 1115.1 1863.62 1115.09H2359.46C2359.97 1115.1 2360.46 1115.33 2360.82 1115.72C2361.18 1116.12 2361.38 1116.65 2361.38 1117.2C2361.38 1117.76 2361.18 1118.29 2360.82 1118.68C2360.46 1119.08 2359.97 1119.31 2359.46 1119.32V1119.32Z" fill="#3F3D56"/>
<path d="M1897.37 1104.29C1903.75 1104.29 1908.93 1098.62 1908.93 1091.62C1908.93 1084.62 1903.75 1078.95 1897.37 1078.95C1890.99 1078.95 1885.82 1084.62 1885.82 1091.62C1885.82 1098.62 1890.99 1104.29 1897.37 1104.29Z" fill="#3F3D56"/>
<path d="M1937.29 1104.29C1943.67 1104.29 1948.85 1098.62 1948.85 1091.62C1948.85 1084.62 1943.67 1078.95 1937.29 1078.95C1930.91 1078.95 1925.73 1084.62 1925.73 1091.62C1925.73 1098.62 1930.91 1104.29 1937.29 1104.29Z" fill="#3F3D56"/>
<path d="M1977.21 1104.29C1983.59 1104.29 1988.77 1098.62 1988.77 1091.62C1988.77 1084.62 1983.59 1078.95 1977.21 1078.95C1970.83 1078.95 1965.65 1084.62 1965.65 1091.62C1965.65 1098.62 1970.83 1104.29 1977.21 1104.29Z" fill="#3F3D56"/>
<path d="M2335.42 1082.08H2307.06C2306.5 1082.09 2305.97 1082.34 2305.58 1082.77C2305.19 1083.2 2304.97 1083.78 2304.97 1084.38C2304.97 1084.98 2305.19 1085.56 2305.58 1085.99C2305.97 1086.42 2306.5 1086.67 2307.06 1086.68H2335.42C2335.98 1086.68 2336.52 1086.43 2336.92 1086C2337.31 1085.57 2337.53 1084.99 2337.53 1084.38C2337.53 1083.78 2337.31 1083.2 2336.92 1082.77C2336.52 1082.34 2335.98 1082.09 2335.42 1082.08Z" fill="#3F3D56"/>
<path d="M2335.42 1090.73H2307.06C2306.5 1090.74 2305.97 1090.99 2305.58 1091.42C2305.18 1091.85 2304.96 1092.43 2304.96 1093.03C2304.96 1093.63 2305.18 1094.21 2305.58 1094.64C2305.97 1095.07 2306.5 1095.32 2307.06 1095.33H2335.42C2335.98 1095.32 2336.52 1095.08 2336.92 1094.64C2337.31 1094.21 2337.54 1093.63 2337.54 1093.03C2337.54 1092.42 2337.31 1091.84 2336.92 1091.41C2336.52 1090.98 2335.98 1090.73 2335.42 1090.73V1090.73Z" fill="#3F3D56"/>
<path d="M2335.42 1099.37H2307.06C2306.5 1099.38 2305.97 1099.63 2305.58 1100.06C2305.19 1100.49 2304.97 1101.07 2304.97 1101.67C2304.97 1102.27 2305.19 1102.85 2305.58 1103.28C2305.97 1103.71 2306.5 1103.96 2307.06 1103.97H2335.42C2335.98 1103.96 2336.52 1103.72 2336.92 1103.29C2337.31 1102.86 2337.53 1102.28 2337.53 1101.67C2337.53 1101.07 2337.31 1100.49 2336.92 1100.05C2336.52 1099.62 2335.98 1099.38 2335.42 1099.37V1099.37Z" fill="#3F3D56"/>
<path d="M3018.96 1609.8C3019.81 1612.48 3021.44 1614.79 3023.6 1616.41C3025.75 1618.03 3028.33 1618.88 3030.97 1618.83L3082.41 1617.41C3085.07 1617.35 3087.63 1616.38 3089.72 1614.63C3091.82 1612.88 3093.33 1610.45 3094.03 1607.7L3101.31 1524.2C3103.89 1525.46 3106.7 1526.08 3109.54 1526.02C3112 1525.95 3114.43 1525.37 3116.68 1524.29C3118.93 1523.22 3120.97 1521.68 3122.66 1519.77C3124.36 1517.85 3125.69 1515.6 3126.58 1513.13C3127.46 1510.67 3127.89 1508.04 3127.82 1505.39C3127.76 1502.75 3127.22 1500.15 3126.22 1497.73C3125.22 1495.32 3123.78 1493.14 3122 1491.32C3120.21 1489.5 3118.11 1488.07 3115.81 1487.12C3113.51 1486.17 3111.06 1485.72 3108.6 1485.78C3107.46 1485.78 3106.33 1485.9 3105.23 1486.16C3104.02 1484.76 3102.56 1483.65 3100.93 1482.89C3099.3 1482.14 3097.54 1481.76 3095.76 1481.78L3016.62 1483.97C3015.97 1484 3015.31 1484.08 3014.67 1484.23C3012.94 1484.58 3011.29 1485.32 3009.84 1486.4C3008.4 1487.49 3007.19 1488.9 3006.29 1490.53C3005.39 1492.16 3004.83 1493.98 3004.65 1495.86C3004.46 1497.74 3004.65 1499.65 3005.21 1501.44L3018.96 1609.8ZM3102.8 1518.53L3107.98 1498.64C3108.57 1496.34 3108.59 1493.91 3108.02 1491.61C3108.27 1491.61 3108.49 1491.48 3108.75 1491.48C3112.3 1491.4 3115.73 1492.83 3118.3 1495.47C3120.87 1498.1 3122.36 1501.72 3122.44 1505.53C3122.52 1509.34 3121.19 1513.03 3118.75 1515.79C3116.3 1518.55 3112.93 1520.16 3109.37 1520.26C3107.08 1520.34 3104.81 1519.74 3102.8 1518.53Z" fill="#2F2E41"/>
<path d="M3014.67 1484.23C3016.36 1494.57 3035.31 1501.84 3058.11 1500.57C3079.06 1499.54 3096.2 1491.65 3099.34 1482.29C3098.18 1481.92 3096.97 1481.75 3095.76 1481.78L3016.62 1483.97C3015.97 1484 3015.31 1484.08 3014.67 1484.23V1484.23Z" fill="#3F3D56"/>
<path d="M3062.28 1563.92C3062.39 1563.89 3062.49 1563.84 3062.58 1563.78L3073.75 1555.94C3073.88 1555.84 3073.99 1555.71 3074.07 1555.56C3074.15 1555.41 3074.19 1555.24 3074.19 1555.07C3074.19 1554.89 3074.15 1554.72 3074.07 1554.57C3073.99 1554.42 3073.88 1554.29 3073.75 1554.2L3062.14 1546.04C3062.03 1545.96 3061.91 1545.91 3061.78 1545.88C3061.66 1545.86 3061.53 1545.86 3061.4 1545.89C3061.28 1545.91 3061.16 1545.97 3061.05 1546.04C3060.95 1546.12 3060.86 1546.22 3060.79 1546.33C3060.72 1546.45 3060.67 1546.58 3060.65 1546.71C3060.62 1546.85 3060.62 1546.99 3060.65 1547.12C3060.68 1547.25 3060.73 1547.38 3060.8 1547.49C3060.87 1547.61 3060.96 1547.7 3061.07 1547.78L3071.44 1555.07L3061.51 1562.04C3061.32 1562.17 3061.18 1562.38 3061.11 1562.61C3061.05 1562.85 3061.06 1563.1 3061.15 1563.33C3061.25 1563.55 3061.41 1563.74 3061.62 1563.85C3061.82 1563.95 3062.06 1563.98 3062.28 1563.92H3062.28Z" fill="#6C63FF"/>
<path d="M3044.64 1564.79C3044.82 1564.74 3044.99 1564.63 3045.12 1564.48C3045.25 1564.32 3045.33 1564.13 3045.36 1563.92C3045.39 1563.72 3045.35 1563.51 3045.27 1563.32C3045.18 1563.14 3045.05 1562.98 3044.88 1562.88L3034.58 1556.55L3044.54 1548.62C3044.64 1548.53 3044.72 1548.43 3044.79 1548.32C3044.86 1548.2 3044.9 1548.07 3044.92 1547.93C3044.94 1547.8 3044.93 1547.66 3044.9 1547.53C3044.87 1547.39 3044.81 1547.27 3044.74 1547.16C3044.66 1547.05 3044.56 1546.96 3044.46 1546.89C3044.35 1546.82 3044.23 1546.77 3044.1 1546.75C3043.97 1546.73 3043.84 1546.74 3043.72 1546.77C3043.6 1546.8 3043.48 1546.86 3043.38 1546.95L3032.23 1555.82C3032.1 1555.93 3032 1556.06 3031.93 1556.22C3031.86 1556.38 3031.83 1556.55 3031.84 1556.72C3031.85 1556.89 3031.9 1557.06 3031.99 1557.21C3032.07 1557.36 3032.19 1557.48 3032.33 1557.56L3043.91 1564.69C3044.13 1564.82 3044.39 1564.86 3044.64 1564.79V1564.79Z" fill="#6C63FF"/>
<path d="M3061.17 1570.79C3061.26 1570.77 3061.35 1570.73 3061.44 1570.67C3061.55 1570.6 3061.64 1570.51 3061.72 1570.4C3061.79 1570.29 3061.85 1570.16 3061.88 1570.03C3061.91 1569.9 3061.91 1569.76 3061.89 1569.62C3061.87 1569.49 3061.83 1569.36 3061.76 1569.24L3045.92 1541.31C3045.79 1541.08 3045.57 1540.91 3045.32 1540.84C3045.07 1540.78 3044.81 1540.82 3044.59 1540.97C3044.37 1541.11 3044.21 1541.34 3044.15 1541.61C3044.09 1541.88 3044.13 1542.16 3044.27 1542.4L3060.1 1570.33C3060.21 1570.52 3060.37 1570.66 3060.57 1570.75C3060.76 1570.83 3060.97 1570.85 3061.17 1570.79Z" fill="#6C63FF"/>
<path d="M2170.78 1234.3H2084.96C2081.46 1234.3 2078.62 1237.34 2078.62 1241.1V1250.09C2078.62 1253.84 2081.46 1256.89 2084.96 1256.89H2170.78C2174.28 1256.89 2177.12 1253.84 2177.12 1250.09V1241.1C2177.12 1237.34 2174.28 1234.3 2170.78 1234.3Z" fill="#6C63FF"/>
<path d="M2220.8 1279.48H2034.94C2031.44 1279.48 2028.6 1282.52 2028.6 1286.28V1295.27C2028.6 1299.03 2031.44 1302.07 2034.94 1302.07H2220.8C2224.3 1302.07 2227.14 1299.03 2227.14 1295.27V1286.28C2227.14 1282.52 2224.3 1279.48 2220.8 1279.48Z" fill="#E6E6E6"/>
<path d="M2220.8 1324.66H2034.94C2031.44 1324.66 2028.6 1327.71 2028.6 1331.46V1340.45C2028.6 1344.21 2031.44 1347.25 2034.94 1347.25H2220.8C2224.3 1347.25 2227.14 1344.21 2227.14 1340.45V1331.46C2227.14 1327.71 2224.3 1324.66 2220.8 1324.66Z" fill="#E6E6E6"/>
<path d="M2236.56 1475.96L2236.98 1477.39L2237 1477.43L2249.67 1518.76L2264.25 1566.38L2291.68 1655.86L2291.94 1669.76V1669.81L2293.98 1781.63L2288.33 1796.79L2294.69 1821.65C2294.69 1821.65 2291.77 1784.08 2276.08 1805.65C2267.2 1817.92 2256.81 1830.46 2248.28 1842.22C2260.71 1847.62 2273.33 1852.5 2286.16 1856.86C2288.93 1857.81 2291.72 1858.72 2294.51 1859.62C2295.11 1859.81 2295.71 1860 2296.31 1860.19C2338.83 1873.68 2382.78 1881.25 2427.1 1882.74C2429.41 1882.81 2431.67 1882.86 2433.86 1882.91C2434.64 1882.93 2435.39 1882.95 2436.14 1882.95C2438.62 1882.98 2441.08 1883 2443.56 1883C2448.57 1883 2453.55 1882.92 2458.52 1882.76C2495.25 1881.65 2531.76 1876.36 2567.45 1866.96C2567.2 1851.16 2566.54 1832.7 2565.59 1812.97C2565.14 1803.3 2555.2 1792.82 2554.6 1782.7C2554.18 1775.1 2563.1 1767.94 2562.64 1760.22C2559.63 1712.67 2555.86 1730.93 2553.07 1697.26C2552.78 1693.95 2552.51 1690.79 2552.27 1687.78C2550.48 1666.15 2549.24 1652.63 2549.24 1652.63L2561.15 1572.05L2579.87 1445.55L2578.43 1443L2576.82 1442.15L2478.08 1389.73L2472.72 1375C2471.16 1370.75 2468.45 1367.11 2464.94 1364.53C2461.43 1361.95 2457.28 1360.56 2453.02 1360.53L2387.98 1360.24C2384.6 1360.22 2381.27 1361.07 2378.26 1362.71C2375.26 1364.35 2372.65 1366.74 2370.68 1369.67L2353.07 1395.84L2236.56 1475.96Z" fill="#3F3D56"/>
<path d="M2306.68 1635.95L2291.94 1669.76L2281.89 1692.86L2264.58 1790.02L2255.92 1799.88L2248.5 1764.97L2170.83 1783.47C2168.28 1768.29 2170.14 1783.99 2168.57 1767.33C2169.01 1766.85 2169.48 1766.38 2169.94 1765.9C2171.18 1764.67 2172.23 1763.5 2172.2 1762.39C2171.32 1704.93 2173.98 1607.15 2196.17 1547.91C2199.65 1538.24 2204.23 1529.07 2209.82 1520.61C2210.26 1519.97 2210.68 1519.33 2211.11 1518.69C2221.34 1503.31 2227.81 1488.18 2236.98 1477.41V1477.39C2237.04 1477.34 2237.09 1477.28 2237.14 1477.22C2237.17 1477.2 2237.2 1477.18 2237.22 1477.15L2300.23 1441.32L2302.93 1522.77L2304.86 1581.32L2306.68 1635.95Z" fill="#3F3D56"/>
<path d="M2533.86 1645.55L2552.26 1687.79L2558.69 1702.49L2575.98 1799.65L2584.62 1809.48L2592.05 1774.58L2595.55 1773.82L2658.58 1759.81L2676.96 1822.4C2681.1 1815 2682.73 1806.29 2681.57 1797.75C2680.42 1789.21 2676.55 1781.36 2670.62 1775.52C2669.37 1774.3 2668.32 1773.12 2668.35 1772C2669.4 1704.42 2665.54 1581.02 2630.74 1530.23C2619.69 1514.11 2613.06 1498.06 2603.41 1486.85C2603.38 1486.81 2603.38 1486.78 2603.35 1486.78L2579.87 1445.54L2578.43 1443.01L2576.82 1442.15L2533.86 1645.55Z" fill="#3F3D56"/>
<path d="M2422.38 1340.39C2470.17 1340.39 2508.91 1298.83 2508.91 1247.57C2508.91 1196.31 2470.17 1154.76 2422.38 1154.76C2374.59 1154.76 2335.85 1196.31 2335.85 1247.57C2335.85 1298.83 2374.59 1340.39 2422.38 1340.39Z" fill="#FFB6B6"/>
<path d="M2539.34 1182.74C2538.67 1181.97 2537.86 1181.36 2536.96 1180.93C2536.06 1180.51 2535.1 1180.28 2534.11 1180.26L2535.42 1176.39C2535.84 1175.17 2535.95 1173.85 2535.75 1172.57C2535.54 1171.28 2535.02 1170.08 2534.24 1169.09C2533.45 1168.09 2532.44 1167.33 2531.29 1166.9C2530.15 1166.46 2528.92 1166.36 2527.72 1166.6L2522.99 1167.58L2523.43 1164.18C2523.6 1162.92 2523.47 1161.63 2523.03 1160.44C2522.6 1159.25 2521.88 1158.2 2520.95 1157.4C2520.03 1156.6 2518.92 1156.07 2517.75 1155.86C2516.57 1155.65 2515.36 1155.78 2514.25 1156.23C2513.23 1156.66 2512.14 1156.83 2511.05 1156.75C2509.96 1156.67 2508.9 1156.33 2507.96 1155.75C2507 1155.19 2506.18 1154.41 2505.53 1153.47C2504.89 1152.53 2504.44 1151.45 2504.23 1150.31L2502.58 1141.77L2502.4 1141.31C2494.36 1126.94 2478.9 1116.48 2459.99 1112.65C2443.15 1109.21 2425.89 1110.96 2409.24 1112.61C2402.64 1113.28 2395.18 1114.03 2388.97 1118.11C2383.69 1121.61 2379.22 1128.61 2380.13 1135.67C2363.72 1130.27 2346.13 1141.04 2337.41 1154.62C2327.08 1170.79 2325.39 1191.03 2325.12 1206.86C2324.38 1244.32 2331.58 1274.96 2346.48 1297.95C2347.57 1299.62 2347.84 1303.1 2349.99 1304.26L2349.55 1303.49C2351.95 1304.78 2354.4 1306.87 2353.49 1309.1C2350.87 1315.51 2368.29 1329.7 2380.56 1334.38C2402.95 1342.94 2432.72 1342.22 2453.66 1339.13L2454.4 1333.82C2461.95 1332.72 2467.27 1330.61 2468.77 1327.32C2471.41 1324.91 2473.66 1322.74 2475.62 1320.74L2475.64 1320.72C2475.68 1320.68 2475.76 1320.61 2475.8 1320.57C2485.25 1310.85 2487.45 1305.3 2488.44 1296.87C2489.39 1288.6 2487.7 1280.21 2485.97 1272.64C2522.36 1278.68 2471.64 1231.07 2505.55 1221.86C2505.94 1221.73 2506.33 1221.63 2506.73 1221.55C2507.72 1221.3 2508.71 1221.05 2509.66 1220.76C2514.25 1219.42 2518.64 1217.41 2522.71 1214.78C2532.19 1208.59 2535.32 1200.39 2540.21 1191.14C2540.92 1189.82 2541.21 1188.3 2541.06 1186.79C2540.9 1185.28 2540.3 1183.86 2539.34 1182.74V1182.74Z" fill="#2F2E41"/>
<path d="M2728.43 1652.16C2728.41 1655.81 2728.37 1660.91 2728.22 1667.22C2728.2 1668.1 2728.18 1668.99 2728.16 1669.91C2727.91 1681.51 2727.65 1691.24 2727.25 1702.05C2727.23 1702.8 2727.21 1703.53 2727.17 1704.28C2726.62 1719.36 2725.77 1736.92 2724.29 1764.73C2721.56 1816.09 2716.78 1771.79 2711.98 1789.81C2711.75 1790.7 2711.5 1791.76 2711.26 1793.01C2710.54 1797.55 2709.31 1801.97 2707.61 1806.2C2705.07 1807.82 2702.45 1809.39 2699.86 1810.95C2692.5 1815.34 2685.03 1819.57 2677.49 1823.59C2673.26 1825.84 2669.01 1828.05 2664.73 1830.17C2664.05 1830.51 2663.39 1830.84 2662.73 1831.15C2640.85 1842.01 2618.31 1851.24 2595.25 1858.77C2590.74 1860.23 2586.26 1861.65 2581.71 1862.96C2576.97 1864.38 2572.24 1865.71 2567.44 1866.96C2531.75 1876.36 2495.24 1881.66 2458.51 1882.77C2453.56 1882.94 2448.57 1883 2443.56 1883C2441.07 1883 2438.63 1882.98 2436.14 1882.96C2435.38 1882.96 2434.63 1882.94 2433.87 1882.91C2431.67 1882.85 2429.4 1882.81 2427.11 1882.75C2382.79 1881.27 2338.83 1873.68 2296.32 1860.19L2294.51 1859.63C2291.71 1858.71 2288.94 1857.81 2286.16 1856.86C2273.34 1852.5 2260.71 1847.63 2248.27 1842.23C2238.78 1838.13 2229.39 1833.73 2220.11 1829.03C2220.03 1829 2219.95 1828.96 2219.88 1828.9C2217.94 1827.94 2215.98 1826.95 2214.03 1825.92C2213.78 1825.78 2213.51 1825.63 2213.24 1825.49C2205.99 1821.7 2198.83 1817.72 2191.74 1813.57C2185.78 1798.89 2177.39 1796.08 2172.18 1783.16C2170.67 1779.32 2169.57 1775.31 2168.92 1771.2C2168.92 1771.16 2168.9 1771.12 2168.9 1771.06C2169.45 1778.81 2166.59 1757.31 2168.88 1770.98C2168.86 1770.73 2168.84 1770.45 2168.82 1770.14C2168.77 1769.39 2168.69 1768.48 2168.57 1767.33C2161.91 1697.57 2162.34 1617.79 2159.45 1552.05C2159.25 1547.81 2159.05 1543.74 2158.84 1539.85C2158.78 1538.56 2158.71 1537.29 2158.63 1536.04C2158.77 1535.66 2158.92 1535.27 2159.1 1534.89C2159.13 1534.78 2159.18 1534.68 2159.23 1534.58C2159.29 1534.45 2159.35 1534.32 2159.43 1534.2C2159.46 1534.14 2159.52 1534.06 2159.56 1534C2159.59 1533.92 2159.62 1533.85 2159.66 1533.79C2159.83 1533.5 2160.03 1533.18 2160.24 1532.89C2160.34 1532.77 2160.42 1532.66 2160.51 1532.56C2160.58 1532.45 2160.66 1532.35 2160.75 1532.27C2160.81 1532.17 2160.88 1532.08 2160.96 1532C2161.04 1531.91 2161.12 1531.81 2161.21 1531.7C2161.25 1531.64 2161.31 1531.58 2161.37 1531.54C2161.52 1531.35 2161.69 1531.17 2161.87 1531.02C2162.57 1530.33 2163.31 1529.71 2164.09 1529.14C2164.36 1528.95 2164.65 1528.77 2164.92 1528.56C2166.88 1527.3 2168.94 1526.24 2171.08 1525.39C2171.82 1525.1 2172.55 1524.83 2173.35 1524.54C2173.64 1524.46 2173.91 1524.35 2174.2 1524.25C2174.63 1524.1 2175.06 1523.96 2175.51 1523.85C2177.72 1523.14 2180.11 1522.54 2182.69 1521.98C2183 1521.91 2183.33 1521.85 2183.66 1521.77C2184.13 1521.66 2184.61 1521.58 2185.1 1521.5C2185.76 1521.37 2186.44 1521.25 2187.12 1521.12C2192.89 1520.14 2199.43 1519.41 2206.65 1518.94C2207.33 1518.89 2208.01 1518.85 2208.69 1518.81C2209.49 1518.77 2210.29 1518.73 2211.1 1518.69C2211.78 1518.64 2212.48 1518.62 2213.18 1518.6C2213.86 1518.56 2214.56 1518.54 2215.28 1518.52C2217.24 1518.46 2219.26 1518.39 2221.32 1518.35C2227.18 1518.23 2233.36 1518.27 2239.84 1518.41C2242.85 1518.5 2245.92 1518.58 2249.07 1518.73C2249.28 1518.73 2249.48 1518.75 2249.67 1518.75C2252.41 1518.85 2255.17 1518.98 2258 1519.14C2259.98 1519.25 2261.98 1519.35 2263.98 1519.48C2265.87 1519.6 2267.77 1519.73 2269.69 1519.87C2271.19 1519.96 2272.68 1520.08 2274.2 1520.19C2275.48 1520.29 2276.76 1520.39 2278.04 1520.48L2279.79 1520.6C2280.74 1520.68 2281.69 1520.75 2282.66 1520.85C2284.8 1521.04 2286.94 1521.23 2289.11 1521.41C2291.27 1521.62 2293.46 1521.83 2295.66 1522.04C2297.85 1522.25 2300.06 1522.48 2302.28 1522.71C2302.51 1522.73 2302.73 1522.75 2302.94 1522.77C2304.96 1523 2306.98 1523.21 2309.02 1523.43C2309.48 1523.48 2309.97 1523.52 2310.44 1523.58C2312.38 1523.79 2314.36 1524.04 2316.32 1524.26C2316.93 1524.33 2317.52 1524.4 2318.13 1524.47C2319.67 1524.65 2321.18 1524.8 2322.73 1525C2324.77 1525.25 2326.84 1525.48 2328.86 1525.77C2330.44 1525.95 2332.01 1526.14 2333.58 1526.35C2336.05 1526.66 2338.55 1527 2341.06 1527.35C2342.01 1527.48 2342.96 1527.6 2343.91 1527.75C2351.06 1528.7 2358.29 1529.77 2365.63 1530.87C2376.75 1532.56 2388.06 1534.39 2399.44 1536.37C2410.84 1538.35 2422.3 1540.44 2433.83 1542.64C2436.74 1543.2 2439.66 1543.76 2442.59 1544.35C2443.91 1544.62 2445.23 1544.89 2446.55 1545.16C2448.8 1545.6 2451.05 1546.06 2453.31 1546.51C2455.56 1546.97 2457.81 1547.43 2460.07 1547.91C2462.75 1548.47 2465.44 1549.03 2468.12 1549.6C2485.78 1553.35 2503.33 1557.35 2520.46 1561.53C2523.28 1562.22 2526.09 1562.93 2528.89 1563.62C2534.48 1565.01 2540.02 1566.43 2545.51 1567.86C2547.03 1568.24 2548.52 1568.63 2550.02 1569.03C2553.75 1570.03 2557.48 1571.03 2561.15 1572.05L2561.79 1572.24C2564.49 1572.95 2567.13 1573.68 2569.77 1574.43C2576 1576.18 2582.13 1577.95 2588.16 1579.74C2592.16 1580.92 2596.12 1582.13 2600.03 1583.34C2605.87 1585.15 2611.6 1586.99 2617.17 1588.84C2618.55 1589.3 2619.93 1589.76 2621.29 1590.19C2625.37 1591.55 2629.39 1592.92 2633.29 1594.3C2636.4 1595.38 2639.43 1596.48 2642.42 1597.59C2645.41 1598.69 2648.34 1599.8 2651.22 1600.9C2653.06 1601.61 2654.89 1602.36 2656.71 1603.07C2659.33 1604.11 2661.92 1605.15 2664.44 1606.19C2665.22 1606.5 2665.98 1606.84 2666.73 1607.15C2667.22 1607.38 2667.68 1607.57 2668.15 1607.77C2669.06 1608.17 2670 1608.54 2670.89 1608.94C2671.8 1609.32 2672.69 1609.71 2673.59 1610.13C2674.46 1610.5 2675.36 1610.9 2676.21 1611.29C2677.08 1611.67 2677.94 1612.07 2678.79 1612.48C2679.51 1612.79 2680.21 1613.13 2680.89 1613.46C2682.27 1614.11 2683.65 1614.75 2684.99 1615.42C2685.65 1615.75 2686.31 1616.06 2686.97 1616.4L2688.48 1617.15C2688.7 1617.27 2688.91 1617.38 2689.12 1617.48C2689.61 1617.73 2690.11 1618 2690.6 1618.25C2691.73 1618.81 2692.83 1619.42 2693.92 1619.98C2695.38 1620.77 2696.79 1621.56 2698.15 1622.33C2699.53 1623.13 2700.87 1623.92 2702.15 1624.69C2702.37 1624.81 2702.56 1624.94 2702.78 1625.06C2703.07 1625.23 2703.36 1625.42 2703.65 1625.58C2704.64 1626.19 2705.59 1626.81 2706.54 1627.42C2708.41 1628.65 2710.17 1629.85 2711.83 1631.06C2712.19 1631.33 2712.54 1631.6 2712.91 1631.85C2714.14 1632.79 2715.3 1633.71 2716.39 1634.64C2716.39 1634.67 2716.39 1634.67 2716.41 1634.67C2716.78 1634.96 2717.13 1635.27 2717.48 1635.56C2717.77 1635.85 2718.08 1636.1 2718.37 1636.39C2719.38 1637.33 2720.31 1638.23 2721.17 1639.14C2721.45 1639.43 2721.73 1639.73 2721.98 1640.04C2722.1 1640.14 2722.2 1640.25 2722.29 1640.37C2722.68 1640.79 2723.03 1641.21 2723.36 1641.62C2723.41 1641.68 2723.46 1641.74 2723.5 1641.81C2723.96 1642.39 2724.39 1642.98 2724.8 1643.56C2724.99 1643.85 2725.21 1644.14 2725.38 1644.43C2725.61 1644.79 2725.85 1645.16 2726.04 1645.52C2726.22 1645.81 2726.37 1646.12 2726.53 1646.41C2726.94 1647.16 2727.29 1647.95 2727.58 1648.77C2727.79 1649.32 2727.97 1649.89 2728.1 1650.47C2728.25 1651.03 2728.36 1651.59 2728.43 1652.16V1652.16Z" fill="#2F2E41"/>
<path opacity="0.2" d="M2728.43 1652.16C2728.41 1655.81 2728.37 1660.91 2728.22 1667.22C2728.2 1668.1 2728.16 1668.99 2728.14 1669.91C2727.94 1678.76 2727.65 1689.7 2727.25 1702.05C2727.23 1702.8 2727.21 1703.53 2727.17 1704.28C2726.62 1719.36 2725.77 1736.92 2724.29 1764.73C2721.56 1816.09 2716.78 1771.79 2711.98 1789.81C2698.66 1781.02 2684.06 1771.81 2668.44 1762.35C2665.63 1760.64 2662.78 1758.93 2659.92 1757.21C2628.69 1738.52 2593.81 1718.94 2557.4 1699.55C2555.96 1698.78 2554.5 1698.01 2553.07 1697.26C2469.66 1653.04 2378.62 1610.02 2304.86 1581.32C2290.63 1575.78 2277.03 1570.78 2264.25 1566.39C2237.34 1557.16 2214.07 1550.7 2196.17 1547.91C2177.52 1544.99 2164.65 1546.03 2159.45 1552.05C2159.25 1547.81 2159.05 1543.74 2158.84 1539.85C2158.77 1538.56 2158.69 1537.29 2158.61 1536.04C2158.73 1535.69 2158.89 1535.37 2159.04 1535.04C2159.06 1534.99 2159.07 1534.94 2159.1 1534.89C2159.13 1534.78 2159.18 1534.68 2159.23 1534.58C2159.29 1534.45 2159.35 1534.32 2159.43 1534.2C2159.49 1534.06 2159.57 1533.92 2159.66 1533.79C2159.83 1533.5 2160.03 1533.18 2160.24 1532.89C2160.4 1532.67 2160.57 1532.46 2160.75 1532.27C2160.81 1532.17 2160.88 1532.07 2160.96 1532C2161.04 1531.91 2161.12 1531.81 2161.21 1531.7C2161.25 1531.64 2161.31 1531.58 2161.37 1531.54C2161.52 1531.35 2161.69 1531.17 2161.87 1531.02C2162.57 1530.33 2163.31 1529.71 2164.09 1529.14C2164.36 1528.95 2164.65 1528.77 2164.92 1528.56C2166.88 1527.3 2168.94 1526.24 2171.08 1525.39C2171.82 1525.1 2172.55 1524.83 2173.35 1524.54C2173.64 1524.45 2173.91 1524.35 2174.2 1524.25C2174.63 1524.1 2175.06 1523.96 2175.51 1523.85C2177.72 1523.14 2180.11 1522.54 2182.69 1521.98C2183.47 1521.81 2184.28 1521.64 2185.1 1521.5C2185.76 1521.37 2186.44 1521.25 2187.12 1521.12C2192.89 1520.14 2199.43 1519.41 2206.65 1518.94C2207.33 1518.89 2208.01 1518.85 2208.69 1518.81C2209.49 1518.77 2210.29 1518.73 2211.1 1518.69C2211.78 1518.64 2212.48 1518.62 2213.18 1518.6C2213.86 1518.56 2214.56 1518.54 2215.28 1518.52C2217.24 1518.46 2219.26 1518.39 2221.32 1518.35C2227.18 1518.25 2233.36 1518.29 2239.84 1518.44C2242.85 1518.5 2245.92 1518.6 2249.07 1518.75C2249.26 1518.75 2249.48 1518.77 2249.67 1518.77C2252.41 1518.85 2255.19 1519 2258 1519.14C2259.98 1519.25 2261.98 1519.35 2263.98 1519.48C2265.87 1519.6 2267.77 1519.73 2269.69 1519.87C2271.19 1519.96 2272.68 1520.08 2274.2 1520.18C2275.48 1520.29 2276.76 1520.39 2278.04 1520.48C2279.58 1520.6 2281.11 1520.73 2282.66 1520.85C2284.8 1521.04 2286.94 1521.23 2289.11 1521.41C2291.27 1521.62 2293.46 1521.83 2295.66 1522.04C2297.85 1522.25 2300.06 1522.48 2302.28 1522.71C2302.51 1522.73 2302.73 1522.75 2302.94 1522.77C2304.96 1523 2306.98 1523.21 2309.02 1523.43C2320.32 1524.66 2331.95 1526.1 2343.91 1527.75C2351.06 1528.73 2358.3 1529.77 2365.63 1530.89C2376.75 1532.58 2388.06 1534.41 2399.44 1536.37C2410.84 1538.35 2422.3 1540.44 2433.83 1542.64C2436.74 1543.2 2439.66 1543.76 2442.59 1544.35C2446.16 1545.06 2449.73 1545.78 2453.31 1546.51C2455.56 1546.97 2457.81 1547.43 2460.07 1547.91C2462.75 1548.47 2465.44 1549.03 2468.12 1549.6C2485.78 1553.35 2503.33 1557.35 2520.46 1561.53C2523.28 1562.22 2526.09 1562.93 2528.89 1563.61C2534.48 1565.01 2540.02 1566.43 2545.51 1567.86C2547.03 1568.26 2548.52 1568.66 2550.02 1569.05C2553.77 1570.05 2557.48 1571.05 2561.15 1572.05V1572.07C2561.36 1572.11 2561.57 1572.18 2561.79 1572.24C2564.47 1572.97 2567.13 1573.7 2569.77 1574.45C2576 1576.2 2582.13 1577.96 2588.16 1579.74C2592.16 1580.95 2596.12 1582.13 2600.03 1583.34C2605.87 1585.17 2611.6 1587.01 2617.17 1588.84C2618.55 1589.3 2619.93 1589.76 2621.29 1590.19C2625.37 1591.57 2629.37 1592.94 2633.29 1594.3C2636.4 1595.38 2639.43 1596.48 2642.42 1597.59C2645.41 1598.69 2648.34 1599.8 2651.22 1600.9C2653.08 1601.61 2654.91 1602.34 2656.71 1603.05C2659.35 1604.09 2661.92 1605.13 2664.44 1606.19C2665.22 1606.5 2665.98 1606.84 2666.73 1607.15C2668.15 1607.73 2669.53 1608.34 2670.89 1608.94C2671.8 1609.32 2672.69 1609.71 2673.59 1610.13C2674.46 1610.5 2675.36 1610.9 2676.21 1611.29C2677.08 1611.67 2677.94 1612.07 2678.79 1612.48C2679.51 1612.79 2680.21 1613.13 2680.89 1613.46C2682.27 1614.11 2683.65 1614.75 2684.99 1615.42C2685.65 1615.75 2686.31 1616.06 2686.97 1616.4L2688.48 1617.15C2688.7 1617.27 2688.91 1617.38 2689.12 1617.48C2690.77 1618.31 2692.37 1619.15 2693.92 1619.98C2695.38 1620.77 2696.79 1621.56 2698.15 1622.33C2699.77 1623.25 2701.3 1624.15 2702.78 1625.06C2703.07 1625.23 2703.36 1625.42 2703.65 1625.58C2704.64 1626.19 2705.59 1626.81 2706.54 1627.42C2708.41 1628.65 2710.18 1629.85 2711.83 1631.06C2713.46 1632.27 2714.97 1633.46 2716.39 1634.64C2716.39 1634.67 2716.39 1634.67 2716.41 1634.67C2717.09 1635.25 2717.75 1635.83 2718.37 1636.39C2719.38 1637.33 2720.31 1638.23 2721.17 1639.14C2721.45 1639.43 2721.73 1639.73 2721.98 1640.04C2722.1 1640.14 2722.2 1640.25 2722.29 1640.37C2722.7 1640.85 2723.11 1641.33 2723.5 1641.81C2723.96 1642.39 2724.39 1642.98 2724.8 1643.56C2724.99 1643.85 2725.21 1644.14 2725.38 1644.43C2725.61 1644.79 2725.85 1645.16 2726.04 1645.52C2726.22 1645.81 2726.37 1646.12 2726.53 1646.41C2726.94 1647.16 2727.29 1647.95 2727.58 1648.77C2727.79 1649.32 2727.96 1649.89 2728.1 1650.48C2728.25 1651.03 2728.36 1651.59 2728.43 1652.16V1652.16Z" fill="black"/>
</g>
</g>
<defs>
<radialGradient id="paint0_radial_1_2" cx="0" cy="0" r="1" gradientUnits="userSpaceOnUse" gradientTransform="translate(1139 934.701) rotate(-30) scale(1031.4 1183.57)">
<stop stop-color="#277A9C"/>
<stop offset="0.9999" stop-color="#277A9C" stop-opacity="0"/>
<stop offset="1" stop-color="#277A9C" stop-opacity="0"/>
</radialGradient>
<radialGradient id="paint1_radial_1_2" cx="0" cy="0" r="1" gradientUnits="userSpaceOnUse" gradientTransform="translate(2435.79 690.692) rotate(-30) scale(489.224 680.211)">
<stop stop-color="#277A9C"/>
<stop offset="0.9999" stop-color="#277A9C" stop-opacity="0"/>
<stop offset="1" stop-color="#277A9C" stop-opacity="0"/>
</radialGradient>
<radialGradient id="paint2_radial_1_2" cx="0" cy="0" r="1" gradientUnits="userSpaceOnUse" gradientTransform="translate(3134.37 155.87) rotate(-17.7377) scale(270.805 313.259)">
<stop stop-color="#277A9C"/>
<stop offset="0.9999" stop-color="#277A9C" stop-opacity="0"/>
<stop offset="1" stop-color="#277A9C" stop-opacity="0"/>
</radialGradient>
<clipPath id="clip0_1_2">
<rect width="3200" height="2000" fill="white"/>
</clipPath>
<clipPath id="clip1_1_2">
<rect width="1528" height="1192" fill="white" transform="translate(1672 691)"/>
</clipPath>
</defs>
</svg>
