<svg width="1746" height="1116" viewBox="0 0 1746 1116" fill="none" xmlns="http://www.w3.org/2000/svg">
<g clip-path="url(#clip0_1_2)">
<rect width="1746" height="1116" fill="#313334"/>
<path d="M307.966 491.17C302.026 323.155 170.472 159.627 19.2375 233.062C-63.2779 273.129 -128.5 342.287 -169.056 432.718C-209.612 523.149 -223.885 631.247 -210.261 744.793C-196.637 858.339 -155.66 972.805 -91.9614 1075.25C-28.2628 1177.7 55.617 1264.04 150.197 1324.52C244.776 1385 346.284 1417.21 443.246 1417.49C540.207 1417.78 628.757 1386.14 698.884 1326.15C829.308 1214.58 734.641 1022.92 582.519 943.443L544.592 923.627C405.198 850.796 315.658 708.714 310.101 551.539L307.966 491.17Z" fill="url(#paint0_radial_1_2)"/>
<path d="M1099.19 254.689C1087.06 107.558 972.78 -40.8407 839.413 22.4657C769.897 55.4633 716.641 115.9 685.664 196.945C654.688 277.989 647.226 376.409 664.122 481.081C681.018 585.752 721.599 692.5 781.277 789.258C840.955 886.016 917.351 968.926 1001.83 1028.62C1086.31 1088.31 1175.5 1122.4 1259.32 1127.03C1343.14 1131.67 1418.25 1106.67 1476.16 1054.85C1589.6 953.349 1500.92 783.023 1369.82 705.667L1324.5 678.921C1199.02 604.886 1117.31 474.539 1105.34 329.344L1099.19 254.689Z" fill="url(#paint1_radial_1_2)"/>
<path d="M1672.49 108.365C1715.37 21.2224 1668.05 -88.7805 1573.93 -64.8154C1515.61 -49.9673 1463.27 -17.3967 1422.8 29.2149C1382.34 75.8266 1355.37 134.62 1344.95 198.951C1334.52 263.281 1262.72 451.659 1285.48 514.324C1308.24 576.988 1424.66 511.441 1473.74 553.558C1522.83 595.676 1580.97 622.701 1641.59 631.58C1702.21 640.459 1762.89 630.837 1816.78 603.802C1903.97 560.056 1867.89 445.226 1778.09 407.119L1752.48 396.254C1652.91 354.003 1609.3 236.759 1657.06 139.709L1672.49 108.365Z" fill="url(#paint2_radial_1_2)"/>
<g clip-path="url(#clip1_1_2)">
<path d="M969.009 712.357C983.777 712.357 995.75 699.28 995.75 683.148C995.75 667.017 983.777 653.94 969.009 653.94C954.24 653.94 942.268 667.017 942.268 683.148C942.268 699.28 954.24 712.357 969.009 712.357Z" fill="#F2F2F2"/>
<path d="M1176.45 1145.84C1216.19 1112.77 1235.18 1057.21 1223.29 1004.2C1223 1002.88 1222.68 1001.57 1222.36 1000.26C1214.48 968.792 1194.98 938.887 1166.57 928.833C1142.72 920.392 1116.68 926.883 1091.79 923.526C1042.94 916.936 1005.06 873.76 978.411 828.553C951.761 783.347 931.279 732.745 895.866 695.398C837.494 633.837 742.274 620.583 669.901 660.655C597.528 700.726 551.427 789.627 553.393 878.229C555.359 966.83 603.514 1051.54 673.448 1096.48C699.138 1112.99 728.852 1124.69 758.423 1120.6C784.082 1117.05 807.396 1101.99 832.933 1097.52C873.085 1090.49 912.98 1110.32 947.708 1133.42C982.436 1156.53 1015.98 1183.92 1055.44 1194.63C1093.76 1205.03 1141.24 1175.13 1176.45 1145.84Z" fill="#E3E3E3"/>
<path d="M1119.34 662.515C1118.47 661.881 1117.59 661.279 1116.71 660.666C1091.53 643.072 1064.53 628.778 1036.28 618.08L1029.73 716.773H988.212V603.674C985.598 603.083 982.964 602.525 980.33 602V716.773H930.986C903.822 716.773 877.77 704.987 858.562 684.006C839.354 663.026 828.563 634.57 828.563 604.899V604.899C825.919 605.522 823.295 606.19 820.671 606.901V716.773H780.481L774.242 622.664C745.213 634.824 717.654 650.816 692.179 670.282C691.738 670.61 691.297 670.949 690.867 671.277C688.653 672.973 686.47 674.701 684.297 676.452V1052.97H802.744L800.651 1021.3L789.134 847.419H1021.07L1009.55 1021.3L1007.46 1052.97H1124.6V666.322C1122.85 665.031 1121.1 663.762 1119.34 662.515ZM820.671 818.704H787.231L781.052 725.393H820.671V818.704ZM980.33 818.704H924.166V816.855C924.166 815.967 924.006 815.087 923.694 814.266C923.383 813.445 922.926 812.699 922.35 812.071C921.774 811.443 921.091 810.945 920.339 810.606C919.586 810.267 918.781 810.093 917.967 810.095H893.55C892.737 810.095 891.933 810.269 891.181 810.609C890.43 810.948 889.748 811.446 889.173 812.074C888.598 812.702 888.143 813.447 887.832 814.268C887.521 815.088 887.361 815.967 887.361 816.855V818.704H828.563V725.393H980.33V818.704ZM988.212 818.704V725.393H1029.16L1022.98 818.704H988.212Z" fill="#3F3D56"/>
<path d="M510 1077.08C518.7 1088.34 528.111 1098.92 538.162 1108.75L1269.84 1109.84C1279.89 1100.01 1289.3 1089.43 1298 1078.17L510 1077.08Z" fill="#3F3D56"/>
<path d="M1006.17 975.671V1069.42C1006.17 1070.62 1006.61 1071.76 1007.38 1072.61C1008.16 1073.45 1009.2 1073.93 1010.3 1073.93H1137.49C1138.59 1073.93 1139.64 1073.45 1140.41 1072.61C1141.18 1071.76 1141.62 1070.62 1141.62 1069.42V975.671C1141.62 974.477 1141.18 973.333 1140.41 972.49C1139.63 971.646 1138.59 971.172 1137.49 971.17H1010.3C1009.21 971.172 1008.16 971.646 1007.38 972.49C1006.61 973.333 1006.18 974.477 1006.17 975.671V975.671Z" fill="#3F3D56"/>
<path d="M1009.16 976.838V1068.27C1009.16 1068.91 1009.39 1069.52 1009.8 1069.97C1010.22 1070.42 1010.78 1070.67 1011.36 1070.68H1136.43C1137.02 1070.67 1137.58 1070.42 1137.99 1069.97C1138.41 1069.52 1138.64 1068.91 1138.64 1068.27V976.838C1138.64 976.198 1138.41 975.585 1137.99 975.133C1137.58 974.681 1137.02 974.426 1136.43 974.424H1011.36C1010.78 974.426 1010.22 974.681 1009.8 975.133C1009.39 975.585 1009.16 976.198 1009.16 976.838V976.838Z" fill="#6C63FF"/>
<path d="M1003.51 1087.71C1003.75 1088.03 1004.04 1088.28 1004.38 1088.46C1004.72 1088.64 1005.09 1088.73 1005.46 1088.73H1141.66C1142.03 1088.72 1142.4 1088.63 1142.73 1088.46C1143.07 1088.28 1143.36 1088.03 1143.6 1087.71C1143.83 1087.4 1144 1087.03 1144.09 1086.63C1144.18 1086.24 1144.18 1085.82 1144.1 1085.43L1141.99 1074.46C1141.9 1074.01 1141.71 1073.59 1141.44 1073.25C1141.17 1072.9 1140.82 1072.63 1140.43 1072.47C1140.15 1072.35 1139.85 1072.29 1139.54 1072.29H1007.56C1007.26 1072.29 1006.96 1072.35 1006.68 1072.47C1006.28 1072.63 1005.94 1072.9 1005.66 1073.25C1005.39 1073.59 1005.2 1074.01 1005.12 1074.46L1003 1085.43C1002.93 1085.82 1002.93 1086.24 1003.02 1086.63C1003.11 1087.02 1003.28 1087.39 1003.51 1087.71V1087.71Z" fill="#2F2E41"/>
<path d="M1134.87 1077.01H1138.08C1138.35 1077.01 1138.57 1076.77 1138.57 1076.48V1074.79C1138.57 1074.5 1138.35 1074.26 1138.08 1074.26H1134.87C1134.6 1074.26 1134.38 1074.5 1134.38 1074.79V1076.48C1134.38 1076.77 1134.6 1077.01 1134.87 1077.01Z" fill="#3F3D56"/>
<path d="M1126.48 1077.01H1129.7C1129.97 1077.01 1130.18 1076.77 1130.18 1076.48V1074.79C1130.18 1074.5 1129.97 1074.26 1129.7 1074.26H1126.48C1126.21 1074.26 1125.99 1074.5 1125.99 1074.79V1076.48C1125.99 1076.77 1126.21 1077.01 1126.48 1077.01Z" fill="#3F3D56"/>
<path d="M1118.09 1077.01H1121.31C1121.58 1077.01 1121.79 1076.77 1121.79 1076.48V1074.79C1121.79 1074.5 1121.58 1074.26 1121.31 1074.26H1118.09C1117.82 1074.26 1117.6 1074.5 1117.6 1074.79V1076.48C1117.6 1076.77 1117.82 1077.01 1118.09 1077.01Z" fill="#3F3D56"/>
<path d="M1109.7 1077.01H1112.92C1113.19 1077.01 1113.4 1076.77 1113.4 1076.48V1074.79C1113.4 1074.5 1113.19 1074.26 1112.92 1074.26H1109.7C1109.43 1074.26 1109.21 1074.5 1109.21 1074.79V1076.48C1109.21 1076.77 1109.43 1077.01 1109.7 1077.01Z" fill="#3F3D56"/>
<path d="M1101.31 1077.01H1104.53C1104.8 1077.01 1105.02 1076.77 1105.02 1076.48V1074.79C1105.02 1074.5 1104.8 1074.26 1104.53 1074.26H1101.31C1101.04 1074.26 1100.82 1074.5 1100.82 1074.79V1076.48C1100.82 1076.77 1101.04 1077.01 1101.31 1077.01Z" fill="#3F3D56"/>
<path d="M1092.92 1077.01H1096.14C1096.41 1077.01 1096.63 1076.77 1096.63 1076.48V1074.79C1096.63 1074.5 1096.41 1074.26 1096.14 1074.26H1092.92C1092.65 1074.26 1092.43 1074.5 1092.43 1074.79V1076.48C1092.43 1076.77 1092.65 1077.01 1092.92 1077.01Z" fill="#3F3D56"/>
<path d="M1084.53 1077.01H1087.75C1088.02 1077.01 1088.24 1076.77 1088.24 1076.48V1074.79C1088.24 1074.5 1088.02 1074.26 1087.75 1074.26H1084.53C1084.26 1074.26 1084.04 1074.5 1084.04 1074.79V1076.48C1084.04 1076.77 1084.26 1077.01 1084.53 1077.01Z" fill="#3F3D56"/>
<path d="M1076.14 1077.01H1079.36C1079.63 1077.01 1079.85 1076.77 1079.85 1076.48V1074.79C1079.85 1074.5 1079.63 1074.26 1079.36 1074.26H1076.14C1075.87 1074.26 1075.65 1074.5 1075.65 1074.79V1076.48C1075.65 1076.77 1075.87 1077.01 1076.14 1077.01Z" fill="#3F3D56"/>
<path d="M1067.75 1077.01H1070.97C1071.24 1077.01 1071.46 1076.77 1071.46 1076.48V1074.79C1071.46 1074.5 1071.24 1074.26 1070.97 1074.26H1067.75C1067.48 1074.26 1067.26 1074.5 1067.26 1074.79V1076.48C1067.26 1076.77 1067.48 1077.01 1067.75 1077.01Z" fill="#3F3D56"/>
<path d="M1059.36 1077.01H1062.58C1062.85 1077.01 1063.07 1076.77 1063.07 1076.48V1074.79C1063.07 1074.5 1062.85 1074.26 1062.58 1074.26H1059.36C1059.09 1074.26 1058.87 1074.5 1058.87 1074.79V1076.48C1058.87 1076.77 1059.09 1077.01 1059.36 1077.01Z" fill="#3F3D56"/>
<path d="M1050.97 1077.01H1054.19C1054.46 1077.01 1054.68 1076.77 1054.68 1076.48V1074.79C1054.68 1074.5 1054.46 1074.26 1054.19 1074.26H1050.97C1050.7 1074.26 1050.48 1074.5 1050.48 1074.79V1076.48C1050.48 1076.77 1050.7 1077.01 1050.97 1077.01Z" fill="#3F3D56"/>
<path d="M1042.58 1077.01H1045.8C1046.07 1077.01 1046.29 1076.77 1046.29 1076.48V1074.79C1046.29 1074.5 1046.07 1074.26 1045.8 1074.26H1042.58C1042.31 1074.26 1042.09 1074.5 1042.09 1074.79V1076.48C1042.09 1076.77 1042.31 1077.01 1042.58 1077.01Z" fill="#3F3D56"/>
<path d="M1034.19 1077.01H1037.41C1037.68 1077.01 1037.9 1076.77 1037.9 1076.48V1074.79C1037.9 1074.5 1037.68 1074.26 1037.41 1074.26H1034.19C1033.92 1074.26 1033.7 1074.5 1033.7 1074.79V1076.48C1033.7 1076.77 1033.92 1077.01 1034.19 1077.01Z" fill="#3F3D56"/>
<path d="M1025.8 1077.01H1029.02C1029.29 1077.01 1029.51 1076.77 1029.51 1076.48V1074.79C1029.51 1074.5 1029.29 1074.26 1029.02 1074.26H1025.8C1025.53 1074.26 1025.31 1074.5 1025.31 1074.79V1076.48C1025.31 1076.77 1025.53 1077.01 1025.8 1077.01Z" fill="#3F3D56"/>
<path d="M1017.41 1077.01H1020.63C1020.9 1077.01 1021.12 1076.77 1021.12 1076.48V1074.79C1021.12 1074.5 1020.9 1074.26 1020.63 1074.26H1017.41C1017.14 1074.26 1016.93 1074.5 1016.93 1074.79V1076.48C1016.93 1076.77 1017.14 1077.01 1017.41 1077.01Z" fill="#3F3D56"/>
<path d="M1009.02 1077.01H1012.24C1012.51 1077.01 1012.73 1076.77 1012.73 1076.48V1074.79C1012.73 1074.5 1012.51 1074.26 1012.24 1074.26H1009.02C1008.75 1074.26 1008.54 1074.5 1008.54 1074.79V1076.48C1008.54 1076.77 1008.75 1077.01 1009.02 1077.01Z" fill="#3F3D56"/>
<path d="M1134.97 1081.59H1138.18C1138.45 1081.59 1138.67 1081.35 1138.67 1081.06V1079.38C1138.67 1079.08 1138.45 1078.84 1138.18 1078.84H1134.97C1134.7 1078.84 1134.48 1079.08 1134.48 1079.38V1081.06C1134.48 1081.35 1134.7 1081.59 1134.97 1081.59Z" fill="#3F3D56"/>
<path d="M1126.58 1081.59H1129.79C1130.06 1081.59 1130.28 1081.35 1130.28 1081.06V1079.38C1130.28 1079.08 1130.06 1078.84 1129.79 1078.84H1126.58C1126.31 1078.84 1126.09 1079.08 1126.09 1079.38V1081.06C1126.09 1081.35 1126.31 1081.59 1126.58 1081.59Z" fill="#3F3D56"/>
<path d="M1118.19 1081.59H1121.4C1121.67 1081.59 1121.89 1081.35 1121.89 1081.06V1079.38C1121.89 1079.08 1121.67 1078.84 1121.4 1078.84H1118.19C1117.92 1078.84 1117.7 1079.08 1117.7 1079.38V1081.06C1117.7 1081.35 1117.92 1081.59 1118.19 1081.59Z" fill="#3F3D56"/>
<path d="M1109.8 1081.59H1113.02C1113.29 1081.59 1113.5 1081.35 1113.5 1081.06V1079.38C1113.5 1079.08 1113.29 1078.84 1113.02 1078.84H1109.8C1109.53 1078.84 1109.31 1079.08 1109.31 1079.38V1081.06C1109.31 1081.35 1109.53 1081.59 1109.8 1081.59Z" fill="#3F3D56"/>
<path d="M1101.41 1081.59H1104.63C1104.9 1081.59 1105.11 1081.35 1105.11 1081.06V1079.38C1105.11 1079.08 1104.9 1078.84 1104.63 1078.84H1101.41C1101.14 1078.84 1100.92 1079.08 1100.92 1079.38V1081.06C1100.92 1081.35 1101.14 1081.59 1101.41 1081.59Z" fill="#3F3D56"/>
<path d="M1093.02 1081.59H1096.24C1096.51 1081.59 1096.72 1081.35 1096.72 1081.06V1079.38C1096.72 1079.08 1096.51 1078.84 1096.24 1078.84H1093.02C1092.75 1078.84 1092.53 1079.08 1092.53 1079.38V1081.06C1092.53 1081.35 1092.75 1081.59 1093.02 1081.59Z" fill="#3F3D56"/>
<path d="M1084.63 1081.59H1087.85C1088.12 1081.59 1088.34 1081.35 1088.34 1081.06V1079.38C1088.34 1079.08 1088.12 1078.84 1087.85 1078.84H1084.63C1084.36 1078.84 1084.14 1079.08 1084.14 1079.38V1081.06C1084.14 1081.35 1084.36 1081.59 1084.63 1081.59Z" fill="#3F3D56"/>
<path d="M1076.24 1081.59H1079.46C1079.73 1081.59 1079.95 1081.35 1079.95 1081.06V1079.38C1079.95 1079.08 1079.73 1078.84 1079.46 1078.84H1076.24C1075.97 1078.84 1075.75 1079.08 1075.75 1079.38V1081.06C1075.75 1081.35 1075.97 1081.59 1076.24 1081.59Z" fill="#3F3D56"/>
<path d="M1067.85 1081.59H1071.07C1071.34 1081.59 1071.56 1081.35 1071.56 1081.06V1079.38C1071.56 1079.08 1071.34 1078.84 1071.07 1078.84H1067.85C1067.58 1078.84 1067.36 1079.08 1067.36 1079.38V1081.06C1067.36 1081.35 1067.58 1081.59 1067.85 1081.59Z" fill="#3F3D56"/>
<path d="M1059.46 1081.59H1062.68C1062.95 1081.59 1063.17 1081.35 1063.17 1081.06V1079.38C1063.17 1079.08 1062.95 1078.84 1062.68 1078.84H1059.46C1059.19 1078.84 1058.97 1079.08 1058.97 1079.38V1081.06C1058.97 1081.35 1059.19 1081.59 1059.46 1081.59Z" fill="#3F3D56"/>
<path d="M1051.07 1081.59H1054.29C1054.56 1081.59 1054.78 1081.35 1054.78 1081.06V1079.38C1054.78 1079.08 1054.56 1078.84 1054.29 1078.84H1051.07C1050.8 1078.84 1050.58 1079.08 1050.58 1079.38V1081.06C1050.58 1081.35 1050.8 1081.59 1051.07 1081.59Z" fill="#3F3D56"/>
<path d="M1042.68 1081.59H1045.9C1046.17 1081.59 1046.39 1081.35 1046.39 1081.06V1079.38C1046.39 1079.08 1046.17 1078.84 1045.9 1078.84H1042.68C1042.41 1078.84 1042.19 1079.08 1042.19 1079.38V1081.06C1042.19 1081.35 1042.41 1081.59 1042.68 1081.59Z" fill="#3F3D56"/>
<path d="M1034.29 1081.59H1037.51C1037.78 1081.59 1038 1081.35 1038 1081.06V1079.38C1038 1079.08 1037.78 1078.84 1037.51 1078.84H1034.29C1034.02 1078.84 1033.8 1079.08 1033.8 1079.38V1081.06C1033.8 1081.35 1034.02 1081.59 1034.29 1081.59Z" fill="#3F3D56"/>
<path d="M1025.9 1081.59H1029.12C1029.39 1081.59 1029.61 1081.35 1029.61 1081.06V1079.38C1029.61 1079.08 1029.39 1078.84 1029.12 1078.84H1025.9C1025.63 1078.84 1025.41 1079.08 1025.41 1079.38V1081.06C1025.41 1081.35 1025.63 1081.59 1025.9 1081.59Z" fill="#3F3D56"/>
<path d="M1017.51 1081.59H1020.73C1021 1081.59 1021.22 1081.35 1021.22 1081.06V1079.38C1021.22 1079.08 1021 1078.84 1020.73 1078.84H1017.51C1017.24 1078.84 1017.02 1079.08 1017.02 1079.38V1081.06C1017.02 1081.35 1017.24 1081.59 1017.51 1081.59Z" fill="#3F3D56"/>
<path d="M1009.12 1081.59H1012.34C1012.61 1081.59 1012.83 1081.35 1012.83 1081.06V1079.38C1012.83 1079.08 1012.61 1078.84 1012.34 1078.84H1009.12C1008.85 1078.84 1008.63 1079.08 1008.63 1079.38V1081.06C1008.63 1081.35 1008.85 1081.59 1009.12 1081.59Z" fill="#3F3D56"/>
<path d="M1065.33 1087.09H1097.91C1098.18 1087.09 1098.4 1086.85 1098.4 1086.56V1084.88C1098.4 1084.58 1098.18 1084.34 1097.91 1084.34H1065.33C1065.06 1084.34 1064.84 1084.58 1064.84 1084.88V1086.56C1064.84 1086.85 1065.06 1087.09 1065.33 1087.09Z" fill="#3F3D56"/>
<path d="M1030.82 994.427H1027.97C1027.1 994.427 1026.4 995.192 1026.4 996.135C1026.4 997.078 1027.1 997.842 1027.97 997.842H1030.82C1031.68 997.842 1032.38 997.078 1032.38 996.135C1032.38 995.192 1031.68 994.427 1030.82 994.427Z" fill="white"/>
<path d="M1063.39 994.427H1060.54C1059.68 994.427 1058.98 995.192 1058.98 996.135C1058.98 997.078 1059.68 997.842 1060.54 997.842H1063.39C1064.25 997.842 1064.95 997.078 1064.95 996.135C1064.95 995.192 1064.25 994.427 1063.39 994.427Z" fill="white"/>
<path d="M1072.62 994.427H1069.77C1068.9 994.427 1068.2 995.192 1068.2 996.135C1068.2 997.078 1068.9 997.842 1069.77 997.842H1072.62C1073.48 997.842 1074.18 997.078 1074.18 996.135C1074.18 995.192 1073.48 994.427 1072.62 994.427Z" fill="white"/>
<path d="M1054.53 994.142H1036.83C1035.96 994.142 1035.26 994.907 1035.26 995.85C1035.26 996.793 1035.96 997.558 1036.83 997.558H1054.53C1055.39 997.558 1056.09 996.793 1056.09 995.85C1056.09 994.907 1055.39 994.142 1054.53 994.142Z" fill="white"/>
<path d="M1097.96 994.142H1080.26C1079.39 994.142 1078.69 994.907 1078.69 995.85C1078.69 996.793 1079.39 997.558 1080.26 997.558H1097.96C1098.82 997.558 1099.52 996.793 1099.52 995.85C1099.52 994.907 1098.82 994.142 1097.96 994.142Z" fill="white"/>
<path d="M1039.5 1002.14H1036.65C1035.79 1002.14 1035.09 1002.9 1035.09 1003.84C1035.09 1004.79 1035.79 1005.55 1036.65 1005.55H1039.5C1040.36 1005.55 1041.06 1004.79 1041.06 1003.84C1041.06 1002.9 1040.36 1002.14 1039.5 1002.14Z" fill="white"/>
<path d="M1072.07 1002.14H1069.23C1068.36 1002.14 1067.66 1002.9 1067.66 1003.84C1067.66 1004.79 1068.36 1005.55 1069.23 1005.55H1072.07C1072.94 1005.55 1073.64 1004.79 1073.64 1003.84C1073.64 1002.9 1072.94 1002.14 1072.07 1002.14Z" fill="white"/>
<path d="M1081.3 1002.14H1078.45C1077.59 1002.14 1076.89 1002.9 1076.89 1003.84C1076.89 1004.79 1077.59 1005.55 1078.45 1005.55H1081.3C1082.17 1005.55 1082.87 1004.79 1082.87 1003.84C1082.87 1002.9 1082.17 1002.14 1081.3 1002.14Z" fill="white"/>
<path d="M1063.21 1001.85H1045.51C1044.65 1001.85 1043.95 1002.62 1043.95 1003.56C1043.95 1004.5 1044.65 1005.27 1045.51 1005.27H1063.21C1064.08 1005.27 1064.78 1004.5 1064.78 1003.56C1064.78 1002.62 1064.08 1001.85 1063.21 1001.85Z" fill="white"/>
<path d="M1106.64 1001.85H1088.94C1088.08 1001.85 1087.38 1002.62 1087.38 1003.56C1087.38 1004.5 1088.08 1005.27 1088.94 1005.27H1106.64C1107.51 1005.27 1108.21 1004.5 1108.21 1003.56C1108.21 1002.62 1107.51 1001.85 1106.64 1001.85Z" fill="white"/>
<path d="M1048.19 1009.84H1045.34C1044.48 1009.84 1043.78 1010.61 1043.78 1011.55C1043.78 1012.49 1044.48 1013.26 1045.34 1013.26H1048.19C1049.05 1013.26 1049.75 1012.49 1049.75 1011.55C1049.75 1010.61 1049.05 1009.84 1048.19 1009.84Z" fill="white"/>
<path d="M1080.76 1009.84H1077.91C1077.05 1009.84 1076.35 1010.61 1076.35 1011.55C1076.35 1012.49 1077.05 1013.26 1077.91 1013.26H1080.76C1081.62 1013.26 1082.32 1012.49 1082.32 1011.55C1082.32 1010.61 1081.62 1009.84 1080.76 1009.84Z" fill="white"/>
<path d="M1089.99 1009.84H1087.14C1086.28 1009.84 1085.58 1010.61 1085.58 1011.55C1085.58 1012.49 1086.28 1013.26 1087.14 1013.26H1089.99C1090.85 1013.26 1091.55 1012.49 1091.55 1011.55C1091.55 1010.61 1090.85 1009.84 1089.99 1009.84Z" fill="white"/>
<path d="M1071.9 1009.56H1054.2C1053.34 1009.56 1052.64 1010.32 1052.64 1011.27C1052.64 1012.21 1053.34 1012.97 1054.2 1012.97H1071.9C1072.76 1012.97 1073.46 1012.21 1073.46 1011.27C1073.46 1010.32 1072.76 1009.56 1071.9 1009.56Z" fill="white"/>
<path d="M1115.33 1009.56H1097.63C1096.76 1009.56 1096.06 1010.32 1096.06 1011.27C1096.06 1012.21 1096.76 1012.97 1097.63 1012.97H1115.33C1116.19 1012.97 1116.89 1012.21 1116.89 1011.27C1116.89 1010.32 1116.19 1009.56 1115.33 1009.56Z" fill="white"/>
<path d="M1056.87 1017.55H1054.03C1053.16 1017.55 1052.46 1018.32 1052.46 1019.26C1052.46 1020.2 1053.16 1020.97 1054.03 1020.97H1056.87C1057.74 1020.97 1058.44 1020.2 1058.44 1019.26C1058.44 1018.32 1057.74 1017.55 1056.87 1017.55Z" fill="white"/>
<path d="M1089.44 1017.55H1086.6C1085.73 1017.55 1085.03 1018.32 1085.03 1019.26C1085.03 1020.2 1085.73 1020.97 1086.6 1020.97H1089.44C1090.31 1020.97 1091.01 1020.2 1091.01 1019.26C1091.01 1018.32 1090.31 1017.55 1089.44 1017.55Z" fill="white"/>
<path d="M1098.67 1017.55H1095.83C1094.96 1017.55 1094.26 1018.32 1094.26 1019.26C1094.26 1020.2 1094.96 1020.97 1095.83 1020.97H1098.67C1099.54 1020.97 1100.24 1020.2 1100.24 1019.26C1100.24 1018.32 1099.54 1017.55 1098.67 1017.55Z" fill="white"/>
<path d="M1080.59 1017.27H1062.88C1062.02 1017.27 1061.32 1018.03 1061.32 1018.98C1061.32 1019.92 1062.02 1020.68 1062.88 1020.68H1080.59C1081.45 1020.68 1082.15 1019.92 1082.15 1018.98C1082.15 1018.03 1081.45 1017.27 1080.59 1017.27Z" fill="white"/>
<path d="M1063.39 1048.2H1060.54C1059.68 1048.2 1058.98 1048.97 1058.98 1049.91C1058.98 1050.86 1059.68 1051.62 1060.54 1051.62H1063.39C1064.25 1051.62 1064.95 1050.86 1064.95 1049.91C1064.95 1048.97 1064.25 1048.2 1063.39 1048.2Z" fill="white"/>
<path d="M1072.62 1048.2H1069.77C1068.9 1048.2 1068.2 1048.97 1068.2 1049.91C1068.2 1050.86 1068.9 1051.62 1069.77 1051.62H1072.62C1073.48 1051.62 1074.18 1050.86 1074.18 1049.91C1074.18 1048.97 1073.48 1048.2 1072.62 1048.2Z" fill="white"/>
<path d="M1097.96 1048.49H1080.26C1079.39 1048.49 1078.69 1049.25 1078.69 1050.2C1078.69 1051.14 1079.39 1051.9 1080.26 1051.9H1097.96C1098.82 1051.9 1099.52 1051.14 1099.52 1050.2C1099.52 1049.25 1098.82 1048.49 1097.96 1048.49Z" fill="white"/>
<path d="M1030.82 1048.2H1027.97C1027.1 1048.2 1026.4 1048.97 1026.4 1049.91C1026.4 1050.86 1027.1 1051.62 1027.97 1051.62H1030.82C1031.68 1051.62 1032.38 1050.86 1032.38 1049.91C1032.38 1048.97 1031.68 1048.2 1030.82 1048.2Z" fill="white"/>
<path d="M1054.53 1048.49H1036.83C1035.96 1048.49 1035.26 1049.25 1035.26 1050.2C1035.26 1051.14 1035.96 1051.9 1036.83 1051.9H1054.53C1055.39 1051.9 1056.09 1051.14 1056.09 1050.2C1056.09 1049.25 1055.39 1048.49 1054.53 1048.49Z" fill="white"/>
<path d="M1039.5 1040.5H1036.65C1035.79 1040.5 1035.09 1041.26 1035.09 1042.2C1035.09 1043.15 1035.79 1043.91 1036.65 1043.91H1039.5C1040.36 1043.91 1041.06 1043.15 1041.06 1042.2C1041.06 1041.26 1040.36 1040.5 1039.5 1040.5Z" fill="white"/>
<path d="M1072.07 1040.5H1069.23C1068.36 1040.5 1067.66 1041.26 1067.66 1042.2C1067.66 1043.15 1068.36 1043.91 1069.23 1043.91H1072.07C1072.94 1043.91 1073.64 1043.15 1073.64 1042.2C1073.64 1041.26 1072.94 1040.5 1072.07 1040.5Z" fill="white"/>
<path d="M1081.3 1040.5H1078.45C1077.59 1040.5 1076.89 1041.26 1076.89 1042.2C1076.89 1043.15 1077.59 1043.91 1078.45 1043.91H1081.3C1082.17 1043.91 1082.87 1043.15 1082.87 1042.2C1082.87 1041.26 1082.17 1040.5 1081.3 1040.5Z" fill="white"/>
<path d="M1063.21 1040.78H1045.51C1044.65 1040.78 1043.95 1041.55 1043.95 1042.49C1043.95 1043.43 1044.65 1044.2 1045.51 1044.2H1063.21C1064.08 1044.2 1064.78 1043.43 1064.78 1042.49C1064.78 1041.55 1064.08 1040.78 1063.21 1040.78Z" fill="white"/>
<path d="M1048.19 1032.79H1045.34C1044.48 1032.79 1043.78 1033.55 1043.78 1034.5C1043.78 1035.44 1044.48 1036.2 1045.34 1036.2H1048.19C1049.05 1036.2 1049.75 1035.44 1049.75 1034.5C1049.75 1033.55 1049.05 1032.79 1048.19 1032.79Z" fill="white"/>
<path d="M1080.76 1032.79H1077.91C1077.05 1032.79 1076.35 1033.55 1076.35 1034.5C1076.35 1035.44 1077.05 1036.2 1077.91 1036.2H1080.76C1081.62 1036.2 1082.32 1035.44 1082.32 1034.5C1082.32 1033.55 1081.62 1032.79 1080.76 1032.79Z" fill="white"/>
<path d="M1089.99 1032.79H1087.14C1086.28 1032.79 1085.58 1033.55 1085.58 1034.5C1085.58 1035.44 1086.28 1036.2 1087.14 1036.2H1089.99C1090.85 1036.2 1091.55 1035.44 1091.55 1034.5C1091.55 1033.55 1090.85 1032.79 1089.99 1032.79Z" fill="white"/>
<path d="M1071.9 1033.07H1054.2C1053.34 1033.07 1052.64 1033.84 1052.64 1034.78C1052.64 1035.72 1053.34 1036.49 1054.2 1036.49H1071.9C1072.76 1036.49 1073.46 1035.72 1073.46 1034.78C1073.46 1033.84 1072.76 1033.07 1071.9 1033.07Z" fill="white"/>
<path d="M1056.87 1025.08H1054.03C1053.16 1025.08 1052.46 1025.84 1052.46 1026.79C1052.46 1027.73 1053.16 1028.49 1054.03 1028.49H1056.87C1057.74 1028.49 1058.44 1027.73 1058.44 1026.79C1058.44 1025.84 1057.74 1025.08 1056.87 1025.08Z" fill="white"/>
<path d="M1089.44 1025.08H1086.6C1085.73 1025.08 1085.03 1025.84 1085.03 1026.79C1085.03 1027.73 1085.73 1028.49 1086.6 1028.49H1089.44C1090.31 1028.49 1091.01 1027.73 1091.01 1026.79C1091.01 1025.84 1090.31 1025.08 1089.44 1025.08Z" fill="white"/>
<path d="M1098.67 1025.08H1095.83C1094.96 1025.08 1094.26 1025.84 1094.26 1026.79C1094.26 1027.73 1094.96 1028.49 1095.83 1028.49H1098.67C1099.54 1028.49 1100.24 1027.73 1100.24 1026.79C1100.24 1025.84 1099.54 1025.08 1098.67 1025.08Z" fill="white"/>
<path d="M1080.59 1025.36H1062.88C1062.02 1025.36 1061.32 1026.13 1061.32 1027.07C1061.32 1028.01 1062.02 1028.78 1062.88 1028.78H1080.59C1081.45 1028.78 1082.15 1028.01 1082.15 1027.07C1082.15 1026.13 1081.45 1025.36 1080.59 1025.36Z" fill="white"/>
<path d="M1015.67 1138.54L1002.3 1115.46L1044.27 1078.92L1061.59 1057.96C1063.84 1055.24 1066.71 1053.21 1069.9 1052.07C1073.09 1050.94 1076.5 1050.74 1079.79 1051.49C1083.08 1052.25 1086.12 1053.94 1088.63 1056.38C1091.13 1058.83 1093 1061.95 1094.06 1065.43C1095.62 1070.59 1095.28 1076.21 1093.12 1081.11C1090.96 1086.01 1087.14 1089.79 1082.47 1091.67L1055.08 1102.7L1015.67 1138.54Z" fill="#FFB6B6"/>
<path d="M701.977 971.175V1083.37H773.935V971.175C773.936 970.368 773.701 969.582 773.263 968.932C772.825 968.282 772.207 967.803 771.502 967.565C771.169 967.445 770.82 967.385 770.47 967.39H705.453C704.997 967.389 704.545 967.486 704.124 967.676C703.703 967.865 703.32 968.144 702.997 968.495C702.674 968.847 702.418 969.264 702.243 969.724C702.068 970.184 701.978 970.677 701.977 971.175V971.175ZM730.06 1009.72C730.078 1007.51 730.896 1005.4 732.334 1003.84C733.773 1002.28 735.716 1001.41 737.741 1001.41C739.766 1001.41 741.709 1002.28 743.148 1003.84C744.586 1005.4 745.404 1007.51 745.423 1009.72V1022.74C745.412 1024.96 744.598 1027.08 743.159 1028.65C741.719 1030.21 739.772 1031.09 737.741 1031.09C735.711 1031.09 733.763 1030.21 732.323 1028.65C730.884 1027.08 730.07 1024.96 730.06 1022.74V1009.72Z" fill="#2F2E41"/>
<path d="M701.757 1079.78V1090.6C701.759 1091.16 701.963 1091.69 702.325 1092.09C702.686 1092.49 703.177 1092.71 703.69 1092.72H772.223C772.736 1092.72 773.228 1092.49 773.59 1092.09C773.952 1091.7 774.156 1091.16 774.156 1090.6V1079.78H701.757Z" fill="#3F3D56"/>
<path d="M588.778 802.143V1006.99C588.78 1009.6 589.73 1012.1 591.42 1013.95C593.11 1015.79 595.402 1016.83 597.791 1016.83H875.708C878.098 1016.83 880.389 1015.79 882.079 1013.95C883.769 1012.1 884.719 1009.6 884.721 1006.99V802.143C884.715 799.535 883.764 797.036 882.074 795.192C880.385 793.349 878.095 792.312 875.708 792.309H597.791C595.404 792.312 593.114 793.349 591.425 795.192C589.735 797.036 588.784 799.535 588.778 802.143Z" fill="#3F3D56"/>
<path d="M595.298 804.692V1004.46C595.3 1005.86 595.808 1007.19 596.711 1008.18C597.614 1009.17 598.838 1009.72 600.115 1009.72H873.394C874.671 1009.72 875.895 1009.17 876.798 1008.18C877.701 1007.19 878.209 1005.86 878.211 1004.46V804.692C878.211 803.296 877.704 801.956 876.801 800.968C875.898 799.979 874.673 799.422 873.394 799.419H600.115C598.836 799.422 597.611 799.979 596.708 800.968C595.805 801.956 595.298 803.296 595.298 804.692Z" fill="white"/>
<path d="M646.014 1091.99C646.292 1092.37 646.645 1092.67 647.048 1092.88C647.45 1093.09 647.891 1093.2 648.337 1093.2H810.921C811.365 1093.2 811.804 1093.09 812.205 1092.88C812.607 1092.67 812.96 1092.37 813.24 1091.99C813.52 1091.61 813.72 1091.17 813.825 1090.7C813.929 1090.23 813.936 1089.74 813.845 1089.26L811.321 1076.17C811.217 1075.63 810.991 1075.14 810.666 1074.72C810.341 1074.31 809.926 1073.99 809.458 1073.79C809.12 1073.65 808.76 1073.58 808.397 1073.58H650.851C650.488 1073.58 650.128 1073.65 649.789 1073.79C649.322 1073.99 648.907 1074.31 648.582 1074.72C648.256 1075.14 648.031 1075.63 647.927 1076.17L645.403 1089.26C645.313 1089.74 645.321 1090.23 645.427 1090.7C645.533 1091.17 645.733 1091.61 646.014 1091.99Z" fill="#2F2E41"/>
<path d="M864.525 826.939H608.819C608.553 826.932 608.3 826.812 608.115 826.605C607.929 826.397 607.825 826.118 607.825 825.828C607.825 825.537 607.929 825.259 608.115 825.051C608.3 824.843 608.553 824.724 608.819 824.717H864.525C864.791 824.724 865.044 824.843 865.23 825.051C865.416 825.259 865.52 825.537 865.52 825.828C865.52 826.118 865.416 826.397 865.23 826.605C865.044 826.812 864.791 826.932 864.525 826.939V826.939Z" fill="#3F3D56"/>
<path d="M626.225 819.046C629.517 819.046 632.185 816.067 632.185 812.392C632.185 808.717 629.517 805.737 626.225 805.737C622.934 805.737 620.266 808.717 620.266 812.392C620.266 816.067 622.934 819.046 626.225 819.046Z" fill="#3F3D56"/>
<path d="M646.812 819.046C650.103 819.046 652.772 816.067 652.772 812.392C652.772 808.717 650.103 805.737 646.812 805.737C643.521 805.737 640.853 808.717 640.853 812.392C640.853 816.067 643.521 819.046 646.812 819.046Z" fill="#3F3D56"/>
<path d="M667.399 819.046C670.69 819.046 673.358 816.067 673.358 812.392C673.358 808.717 670.69 805.737 667.399 805.737C664.108 805.737 661.44 808.717 661.44 812.392C661.44 816.067 664.108 819.046 667.399 819.046Z" fill="#3F3D56"/>
<path d="M852.129 807.383H837.507C837.218 807.39 836.943 807.521 836.741 807.747C836.539 807.973 836.426 808.276 836.426 808.592C836.426 808.908 836.539 809.211 836.741 809.437C836.943 809.663 837.218 809.793 837.507 809.801H852.129C852.42 809.796 852.697 809.667 852.901 809.441C853.105 809.214 853.22 808.909 853.22 808.592C853.22 808.274 853.105 807.969 852.901 807.743C852.697 807.517 852.42 807.388 852.129 807.383Z" fill="#3F3D56"/>
<path d="M852.129 811.923H837.507C837.218 811.93 836.942 812.06 836.74 812.286C836.538 812.512 836.424 812.816 836.424 813.132C836.424 813.448 836.538 813.751 836.74 813.977C836.942 814.203 837.218 814.333 837.507 814.34H852.129C852.42 814.336 852.698 814.207 852.903 813.981C853.107 813.755 853.222 813.45 853.222 813.132C853.222 812.813 853.107 812.508 852.903 812.282C852.698 812.056 852.42 811.927 852.129 811.923V811.923Z" fill="#3F3D56"/>
<path d="M852.129 816.462H837.507C837.218 816.47 836.943 816.6 836.741 816.826C836.539 817.052 836.426 817.355 836.426 817.671C836.426 817.987 836.539 818.29 836.741 818.516C836.943 818.742 837.218 818.873 837.507 818.88H852.129C852.42 818.876 852.697 818.746 852.901 818.52C853.105 818.294 853.22 817.989 853.22 817.671C853.22 817.354 853.105 817.049 852.901 816.822C852.697 816.596 852.42 816.467 852.129 816.462V816.462Z" fill="#3F3D56"/>
<path d="M1204.64 1084.53C1205.08 1085.93 1205.91 1087.14 1207.03 1088C1208.14 1088.85 1209.47 1089.29 1210.83 1089.26L1237.36 1088.52C1238.73 1088.49 1240.05 1087.98 1241.13 1087.06C1242.21 1086.14 1242.99 1084.87 1243.35 1083.42L1247.1 1039.57C1248.44 1040.23 1249.89 1040.56 1251.35 1040.52C1252.62 1040.49 1253.87 1040.18 1255.03 1039.62C1256.19 1039.06 1257.24 1038.25 1258.12 1037.24C1258.99 1036.24 1259.68 1035.05 1260.14 1033.76C1260.59 1032.46 1260.81 1031.08 1260.78 1029.69C1260.75 1028.31 1260.46 1026.94 1259.95 1025.67C1259.43 1024.4 1258.69 1023.26 1257.77 1022.3C1256.85 1021.34 1255.77 1020.6 1254.58 1020.1C1253.4 1019.6 1252.13 1019.36 1250.86 1019.39C1250.28 1019.39 1249.7 1019.46 1249.12 1019.59C1248.5 1018.86 1247.75 1018.27 1246.91 1017.88C1246.07 1017.48 1245.16 1017.28 1244.24 1017.29L1203.43 1018.44C1203.09 1018.46 1202.76 1018.5 1202.42 1018.58C1201.53 1018.76 1200.68 1019.15 1199.93 1019.72C1199.19 1020.29 1198.56 1021.03 1198.1 1021.89C1197.64 1022.74 1197.35 1023.7 1197.25 1024.69C1197.16 1025.68 1197.26 1026.68 1197.54 1027.62L1204.64 1084.53ZM1247.87 1036.59L1250.55 1026.14C1250.85 1024.94 1250.86 1023.66 1250.57 1022.45C1250.7 1022.45 1250.81 1022.39 1250.94 1022.39C1252.77 1022.34 1254.54 1023.1 1255.87 1024.48C1257.19 1025.86 1257.96 1027.77 1258 1029.77C1258.04 1031.77 1257.36 1033.7 1256.1 1035.15C1254.83 1036.6 1253.1 1037.45 1251.26 1037.5C1250.08 1037.54 1248.91 1037.23 1247.87 1036.59Z" fill="#2F2E41"/>
<path d="M1202.42 1018.58C1203.29 1024.01 1213.07 1027.83 1224.82 1027.16C1235.63 1026.62 1244.47 1022.47 1246.09 1017.56C1245.49 1017.37 1244.87 1017.28 1244.24 1017.29L1203.43 1018.44C1203.09 1018.46 1202.76 1018.5 1202.42 1018.58V1018.58Z" fill="#3F3D56"/>
<path d="M1226.98 1060.43C1227.03 1060.41 1227.08 1060.39 1227.13 1060.36L1232.89 1056.24C1232.96 1056.19 1233.02 1056.12 1233.06 1056.04C1233.1 1055.96 1233.12 1055.87 1233.12 1055.78C1233.12 1055.69 1233.1 1055.6 1233.06 1055.52C1233.02 1055.44 1232.96 1055.37 1232.89 1055.32L1226.9 1051.04C1226.85 1051 1226.79 1050.97 1226.72 1050.96C1226.66 1050.94 1226.59 1050.94 1226.53 1050.96C1226.46 1050.97 1226.4 1051 1226.35 1051.04C1226.29 1051.08 1226.24 1051.13 1226.21 1051.19C1226.17 1051.25 1226.15 1051.32 1226.13 1051.39C1226.12 1051.46 1226.12 1051.54 1226.14 1051.61C1226.15 1051.68 1226.18 1051.74 1226.21 1051.8C1226.25 1051.86 1226.3 1051.91 1226.35 1051.95L1231.7 1055.78L1226.58 1059.44C1226.48 1059.51 1226.41 1059.62 1226.38 1059.74C1226.34 1059.87 1226.35 1060 1226.4 1060.12C1226.44 1060.24 1226.53 1060.33 1226.64 1060.39C1226.74 1060.45 1226.86 1060.46 1226.98 1060.43H1226.98Z" fill="#6C63FF"/>
<path d="M1217.88 1060.89C1217.97 1060.86 1218.06 1060.8 1218.13 1060.72C1218.19 1060.64 1218.24 1060.54 1218.25 1060.43C1218.26 1060.32 1218.25 1060.21 1218.2 1060.12C1218.16 1060.02 1218.09 1059.94 1218 1059.88L1212.69 1056.56L1217.83 1052.39C1217.88 1052.35 1217.92 1052.3 1217.96 1052.23C1217.99 1052.17 1218.01 1052.1 1218.02 1052.03C1218.03 1051.96 1218.03 1051.89 1218.01 1051.82C1218 1051.75 1217.97 1051.69 1217.93 1051.63C1217.89 1051.57 1217.84 1051.52 1217.78 1051.48C1217.73 1051.45 1217.67 1051.42 1217.6 1051.41C1217.54 1051.4 1217.47 1051.41 1217.41 1051.42C1217.34 1051.44 1217.28 1051.47 1217.23 1051.51L1211.48 1056.18C1211.42 1056.23 1211.36 1056.3 1211.33 1056.39C1211.29 1056.47 1211.28 1056.56 1211.28 1056.65C1211.29 1056.74 1211.31 1056.83 1211.35 1056.9C1211.4 1056.98 1211.46 1057.05 1211.53 1057.09L1217.51 1060.83C1217.62 1060.9 1217.75 1060.92 1217.88 1060.89V1060.89Z" fill="#6C63FF"/>
<path d="M1226.4 1064.04C1226.45 1064.03 1226.5 1064 1226.54 1063.98C1226.6 1063.94 1226.65 1063.89 1226.69 1063.83C1226.72 1063.77 1226.75 1063.71 1226.77 1063.64C1226.78 1063.57 1226.79 1063.5 1226.78 1063.42C1226.77 1063.35 1226.74 1063.29 1226.71 1063.22L1218.54 1048.56C1218.47 1048.43 1218.36 1048.34 1218.23 1048.31C1218.1 1048.28 1217.97 1048.3 1217.85 1048.37C1217.74 1048.45 1217.66 1048.57 1217.63 1048.71C1217.6 1048.85 1217.62 1049 1217.69 1049.13L1225.85 1063.79C1225.91 1063.89 1225.99 1063.97 1226.09 1064.02C1226.19 1064.06 1226.3 1064.07 1226.4 1064.04Z" fill="#6C63FF"/>
<path d="M767.225 887.322H722.968C721.162 887.322 719.699 888.921 719.699 890.893V895.616C719.699 897.588 721.162 899.186 722.968 899.186H767.225C769.03 899.186 770.494 897.588 770.494 895.616V890.893C770.494 888.921 769.03 887.322 767.225 887.322Z" fill="#6C63FF"/>
<path d="M793.022 911.051H697.17C695.365 911.051 693.901 912.649 693.901 914.621V919.344C693.901 921.316 695.365 922.915 697.17 922.915H793.022C794.827 922.915 796.291 921.316 796.291 919.344V914.621C796.291 912.649 794.827 911.051 793.022 911.051Z" fill="#E6E6E6"/>
<path d="M793.022 934.779H697.17C695.365 934.779 693.901 936.378 693.901 938.35V943.073C693.901 945.045 695.365 946.643 697.17 946.643H793.022C794.827 946.643 796.291 945.045 796.291 943.073V938.35C796.291 936.378 794.827 934.779 793.022 934.779Z" fill="#E6E6E6"/>
<path d="M801.147 1014.24L801.364 1014.99L801.376 1015.01L807.911 1036.71L815.428 1061.72L829.572 1108.71L829.709 1116.02V1116.04L830.76 1174.77L827.847 1182.73L831.126 1195.78C831.126 1195.78 829.618 1176.05 821.529 1187.38C816.948 1193.82 811.589 1200.41 807.191 1206.59C813.6 1209.42 820.112 1211.98 826.727 1214.27C828.155 1214.77 829.595 1215.25 831.034 1215.72C831.343 1215.82 831.651 1215.92 831.96 1216.02C853.887 1223.1 876.557 1227.08 899.412 1227.86C900.6 1227.9 901.765 1227.93 902.896 1227.95C903.296 1227.96 903.685 1227.98 904.073 1227.98C905.353 1227.99 906.621 1228 907.9 1228C910.482 1228 913.053 1227.96 915.612 1227.88C934.554 1227.29 953.385 1224.51 971.788 1219.58C971.662 1211.28 971.319 1201.58 970.828 1191.22C970.599 1186.15 965.47 1180.64 965.161 1175.33C964.944 1171.33 969.548 1167.58 969.309 1163.52C967.755 1138.55 965.813 1148.14 964.373 1130.45C964.225 1128.72 964.087 1127.06 963.962 1125.47C963.036 1114.12 962.397 1107.02 962.397 1107.02L968.543 1064.7L978.197 998.263L977.454 996.928L976.62 996.479L925.7 968.95L922.935 961.213C922.13 958.984 920.732 957.069 918.922 955.715C917.112 954.361 914.973 953.629 912.779 953.613L879.236 953.464C877.495 953.455 875.777 953.9 874.225 954.762C872.674 955.623 871.332 956.877 870.313 958.418L861.23 972.157L801.147 1014.24Z" fill="#3F3D56"/>
<path d="M837.307 1098.26L829.709 1116.02L824.522 1128.14L815.6 1179.17L811.133 1184.35L807.305 1166.02L767.247 1175.73C765.934 1167.76 766.896 1176 766.085 1167.25C766.313 1167 766.553 1166.75 766.793 1166.5C767.433 1165.86 767.97 1165.24 767.958 1164.66C767.501 1134.48 768.872 1083.13 780.32 1052.02C782.113 1046.94 784.477 1042.13 787.357 1037.68C787.586 1037.35 787.803 1037.01 788.02 1036.67C793.298 1028.6 796.634 1020.65 801.364 1015V1014.99C801.394 1014.96 801.421 1014.93 801.444 1014.9C801.461 1014.89 801.477 1014.88 801.49 1014.86L833.982 996.042L835.376 1038.82L836.37 1069.57L837.307 1098.26Z" fill="#3F3D56"/>
<path d="M954.467 1103.3L963.957 1125.48L967.27 1133.2L976.19 1184.23L980.642 1189.39L984.478 1171.06L986.281 1170.66L1018.79 1163.31L1028.26 1196.17C1030.4 1192.29 1031.24 1187.71 1030.64 1183.23C1030.05 1178.74 1028.05 1174.62 1025 1171.55C1024.35 1170.92 1023.81 1170.29 1023.83 1169.7C1024.37 1134.21 1022.38 1069.41 1004.43 1042.74C998.729 1034.27 995.309 1025.84 990.333 1019.95C990.317 1019.94 990.317 1019.92 990.302 1019.92L978.193 998.262L977.453 996.933L976.621 996.478L954.467 1103.3Z" fill="#3F3D56"/>
<path d="M896.976 943.037C921.622 943.037 941.601 921.214 941.601 894.294C941.601 867.374 921.622 845.551 896.976 845.551C872.33 845.551 852.351 867.374 852.351 894.294C852.351 921.214 872.33 943.037 896.976 943.037Z" fill="#FFB6B6"/>
<path d="M957.292 860.247C956.946 859.844 956.529 859.52 956.066 859.297C955.604 859.073 955.104 858.954 954.598 858.946L955.269 856.911C955.488 856.27 955.547 855.577 955.44 854.903C955.334 854.229 955.065 853.598 954.661 853.075C954.257 852.552 953.734 852.155 953.144 851.926C952.554 851.696 951.919 851.643 951.303 851.77L948.86 852.284L949.09 850.501C949.178 849.837 949.107 849.159 948.883 848.534C948.658 847.909 948.289 847.359 947.811 846.937C947.333 846.516 946.763 846.237 946.157 846.129C945.55 846.021 944.929 846.088 944.353 846.322C943.829 846.547 943.266 846.641 942.704 846.598C942.143 846.554 941.597 846.374 941.108 846.07C940.616 845.776 940.19 845.368 939.858 844.875C939.526 844.382 939.296 843.815 939.185 843.215L938.334 838.73L938.244 838.489C934.097 830.941 926.125 825.45 916.371 823.437C907.688 821.632 898.785 822.551 890.202 823.415C886.797 823.765 882.951 824.159 879.746 826.303C877.022 828.141 874.718 831.817 875.189 835.525C866.727 832.692 857.653 838.347 853.156 845.479C847.828 853.968 846.957 864.601 846.817 872.915C846.436 892.583 850.152 908.675 857.833 920.752C858.394 921.627 858.534 923.454 859.646 924.066L859.416 923.661C860.657 924.34 861.919 925.434 861.449 926.604C860.097 929.973 869.08 937.423 875.41 939.884C886.957 944.38 902.31 943.997 913.106 942.378L913.487 939.589C917.382 939.009 920.126 937.904 920.898 936.176C922.26 934.907 923.421 933.769 924.433 932.719L924.443 932.708C924.463 932.686 924.503 932.653 924.523 932.632C929.4 927.523 930.532 924.613 931.043 920.183C931.534 915.84 930.662 911.432 929.771 907.461C948.539 910.633 922.38 885.626 939.866 880.791C940.067 880.724 940.271 880.669 940.477 880.627C940.988 880.496 941.498 880.364 941.989 880.211C944.355 879.51 946.62 878.453 948.719 877.072C953.607 873.823 955.219 869.513 957.743 864.656C958.107 863.964 958.26 863.164 958.179 862.371C958.098 861.578 957.787 860.834 957.292 860.247V860.247Z" fill="#2F2E41"/>
<path d="M1054.81 1106.77C1054.8 1108.69 1054.78 1111.37 1054.7 1114.68C1054.69 1115.14 1054.68 1115.61 1054.67 1116.09C1054.54 1122.18 1054.41 1127.29 1054.2 1132.97C1054.19 1133.36 1054.18 1133.75 1054.16 1134.14C1053.88 1142.06 1053.44 1151.28 1052.67 1165.89C1051.26 1192.86 1048.8 1169.59 1046.33 1179.06C1046.21 1179.53 1046.08 1180.09 1045.95 1180.74C1045.58 1183.12 1044.95 1185.45 1044.07 1187.67C1042.76 1188.52 1041.41 1189.34 1040.08 1190.16C1036.28 1192.47 1032.42 1194.69 1028.54 1196.8C1026.36 1197.98 1024.16 1199.14 1021.96 1200.26C1021.61 1200.43 1021.27 1200.61 1020.93 1200.77C1009.64 1206.47 998.017 1211.32 986.125 1215.28C983.802 1216.04 981.488 1216.79 979.145 1217.48C976.701 1218.22 974.258 1218.92 971.784 1219.58C953.381 1224.51 934.551 1227.29 915.61 1227.88C913.056 1227.97 910.482 1228 907.898 1228C906.616 1228 905.354 1227.99 904.072 1227.98C903.682 1227.98 903.291 1227.97 902.901 1227.96C901.769 1227.92 900.597 1227.9 899.415 1227.87C876.56 1227.09 853.891 1223.11 831.964 1216.02L831.033 1215.73C829.591 1215.24 828.159 1214.77 826.727 1214.27C820.117 1211.98 813.604 1209.42 807.187 1206.59C802.29 1204.44 797.449 1202.12 792.666 1199.66C792.622 1199.64 792.581 1199.62 792.545 1199.59C791.544 1199.09 790.532 1198.56 789.531 1198.03C789.401 1197.95 789.261 1197.87 789.12 1197.8C785.385 1195.81 781.689 1193.72 778.034 1191.54C774.959 1183.83 770.633 1182.35 767.949 1175.57C767.167 1173.55 766.603 1171.45 766.266 1169.29C766.266 1169.27 766.256 1169.24 766.256 1169.21C766.536 1173.28 765.064 1161.99 766.246 1169.17C766.236 1169.04 766.226 1168.89 766.216 1168.73C766.186 1168.34 766.146 1167.86 766.086 1167.25C762.651 1130.62 762.871 1088.72 761.379 1054.2C761.279 1051.97 761.175 1049.83 761.068 1047.79C761.038 1047.11 760.998 1046.44 760.958 1045.79C761.028 1045.59 761.108 1045.38 761.198 1045.18C761.218 1045.13 761.241 1045.07 761.269 1045.02C761.298 1044.95 761.332 1044.89 761.369 1044.82C761.389 1044.79 761.419 1044.75 761.439 1044.71C761.453 1044.68 761.47 1044.64 761.489 1044.6C761.579 1044.45 761.679 1044.29 761.789 1044.13C761.839 1044.07 761.88 1044.01 761.93 1043.96C761.964 1043.9 762.004 1043.85 762.05 1043.81C762.08 1043.75 762.118 1043.71 762.16 1043.66C762.2 1043.62 762.24 1043.57 762.29 1043.51C762.312 1043.48 762.339 1043.45 762.37 1043.42C762.449 1043.32 762.537 1043.23 762.631 1043.15C762.988 1042.79 763.37 1042.46 763.772 1042.17C763.913 1042.07 764.063 1041.97 764.203 1041.86C765.212 1041.2 766.275 1040.64 767.378 1040.2C767.758 1040.04 768.139 1039.9 768.549 1039.75C768.7 1039.7 768.84 1039.65 768.99 1039.59C769.21 1039.52 769.431 1039.44 769.661 1039.39C770.803 1039.01 772.035 1038.7 773.367 1038.4C773.527 1038.37 773.697 1038.34 773.867 1038.29C774.108 1038.24 774.358 1038.19 774.609 1038.15C774.949 1038.08 775.3 1038.02 775.65 1037.95C778.625 1037.44 782 1037.06 785.725 1036.8C786.076 1036.78 786.426 1036.76 786.777 1036.74C787.187 1036.72 787.598 1036.7 788.019 1036.67C788.369 1036.65 788.73 1036.64 789.09 1036.63C789.441 1036.61 789.801 1036.6 790.172 1036.59C791.183 1036.55 792.225 1036.52 793.287 1036.5C796.311 1036.43 799.496 1036.45 802.841 1036.53C804.393 1036.58 805.976 1036.62 807.598 1036.7C807.708 1036.7 807.808 1036.71 807.908 1036.71C809.321 1036.76 810.743 1036.83 812.205 1036.91C813.226 1036.97 814.258 1037.02 815.289 1037.09C816.261 1037.15 817.242 1037.22 818.234 1037.3C819.005 1037.34 819.776 1037.41 820.557 1037.46C821.218 1037.52 821.879 1037.57 822.54 1037.61L823.442 1037.68C823.932 1037.72 824.423 1037.76 824.924 1037.81C826.026 1037.91 827.127 1038.01 828.249 1038.11C829.361 1038.22 830.492 1038.33 831.624 1038.43C832.756 1038.54 833.897 1038.66 835.039 1038.78C835.159 1038.8 835.269 1038.81 835.38 1038.82C836.421 1038.94 837.463 1039.05 838.514 1039.17C838.755 1039.19 839.005 1039.21 839.245 1039.24C840.248 1039.35 841.27 1039.48 842.282 1039.6C842.592 1039.64 842.901 1039.67 843.213 1039.71C844.005 1039.8 844.787 1039.89 845.585 1039.99C846.636 1040.12 847.708 1040.24 848.749 1040.39C849.561 1040.49 850.372 1040.59 851.183 1040.7C852.455 1040.86 853.747 1041.04 855.039 1041.22C855.53 1041.29 856.02 1041.36 856.511 1041.43C860.197 1041.94 863.922 1042.49 867.708 1043.07C873.446 1043.96 879.275 1044.92 885.144 1045.96C891.023 1047 896.935 1048.1 902.881 1049.25C904.383 1049.55 905.885 1049.84 907.397 1050.15C908.078 1050.29 908.759 1050.43 909.44 1050.58C910.602 1050.81 911.764 1051.05 912.926 1051.29C914.087 1051.53 915.249 1051.77 916.411 1052.02C917.793 1052.32 919.185 1052.61 920.567 1052.91C929.671 1054.88 938.724 1056.98 947.557 1059.18C949.01 1059.54 950.462 1059.91 951.904 1060.27C954.788 1061 957.646 1061.75 960.477 1062.5C961.258 1062.7 962.029 1062.91 962.8 1063.11C964.723 1063.64 966.646 1064.16 968.539 1064.7L968.869 1064.8C970.261 1065.17 971.623 1065.55 972.986 1065.95C976.2 1066.87 979.362 1067.8 982.47 1068.74C984.533 1069.36 986.573 1069.99 988.589 1070.63C991.603 1071.58 994.558 1072.54 997.432 1073.52C998.143 1073.76 998.854 1074 999.555 1074.23C1001.66 1074.94 1003.73 1075.66 1005.74 1076.38C1007.35 1076.95 1008.91 1077.53 1010.45 1078.11C1011.99 1078.69 1013.51 1079.27 1014.99 1079.85C1015.94 1080.22 1016.88 1080.62 1017.82 1080.99C1019.17 1081.53 1020.51 1082.08 1021.81 1082.63C1022.21 1082.79 1022.6 1082.97 1022.99 1083.13C1023.24 1083.25 1023.48 1083.35 1023.72 1083.46C1024.19 1083.67 1024.67 1083.86 1025.13 1084.07C1025.6 1084.27 1026.06 1084.48 1026.53 1084.7C1026.98 1084.89 1027.44 1085.1 1027.88 1085.31C1028.33 1085.51 1028.77 1085.71 1029.21 1085.93C1029.58 1086.1 1029.94 1086.27 1030.29 1086.45C1031 1086.79 1031.71 1087.12 1032.4 1087.47C1032.75 1087.65 1033.09 1087.81 1033.43 1087.99L1034.21 1088.38C1034.32 1088.45 1034.43 1088.5 1034.54 1088.56C1034.79 1088.69 1035.05 1088.83 1035.3 1088.96C1035.88 1089.26 1036.45 1089.58 1037.01 1089.87C1037.76 1090.29 1038.49 1090.7 1039.19 1091.11C1039.91 1091.52 1040.6 1091.94 1041.26 1092.34C1041.37 1092.41 1041.47 1092.47 1041.58 1092.54C1041.73 1092.63 1041.88 1092.73 1042.03 1092.81C1042.54 1093.13 1043.03 1093.46 1043.52 1093.78C1044.48 1094.42 1045.39 1095.06 1046.25 1095.69C1046.44 1095.83 1046.62 1095.97 1046.81 1096.11C1047.44 1096.6 1048.04 1097.08 1048.6 1097.57C1048.6 1097.58 1048.6 1097.58 1048.61 1097.58C1048.8 1097.74 1048.98 1097.9 1049.16 1098.05C1049.31 1098.21 1049.47 1098.34 1049.62 1098.49C1050.14 1098.98 1050.62 1099.45 1051.06 1099.93C1051.21 1100.08 1051.35 1100.24 1051.48 1100.4C1051.54 1100.46 1051.6 1100.52 1051.64 1100.58C1051.84 1100.8 1052.02 1101.02 1052.19 1101.24C1052.22 1101.27 1052.24 1101.3 1052.26 1101.33C1052.5 1101.64 1052.72 1101.95 1052.94 1102.25C1053.04 1102.41 1053.15 1102.56 1053.24 1102.71C1053.36 1102.9 1053.48 1103.1 1053.58 1103.28C1053.67 1103.44 1053.75 1103.6 1053.83 1103.75C1054.04 1104.15 1054.22 1104.56 1054.37 1104.99C1054.48 1105.28 1054.57 1105.58 1054.64 1105.89C1054.71 1106.18 1054.77 1106.47 1054.81 1106.77V1106.77Z" fill="#2F2E41"/>
<path opacity="0.2" d="M1054.81 1106.77C1054.8 1108.69 1054.78 1111.37 1054.7 1114.68C1054.69 1115.14 1054.67 1115.61 1054.66 1116.09C1054.56 1120.74 1054.41 1126.48 1054.2 1132.97C1054.19 1133.36 1054.18 1133.75 1054.16 1134.14C1053.88 1142.06 1053.44 1151.28 1052.67 1165.89C1051.26 1192.86 1048.8 1169.59 1046.33 1179.06C1039.46 1174.44 1031.92 1169.61 1023.87 1164.64C1022.42 1163.74 1020.95 1162.84 1019.48 1161.94C1003.37 1152.13 985.384 1141.84 966.606 1131.66C965.865 1131.25 965.114 1130.85 964.373 1130.45C921.358 1107.23 874.408 1084.64 836.371 1069.57C829.03 1066.66 822.02 1064.03 815.43 1061.72C801.549 1056.88 789.551 1053.49 780.317 1052.02C770.703 1050.49 764.063 1051.04 761.379 1054.2C761.279 1051.97 761.175 1049.83 761.068 1047.79C761.028 1047.11 760.988 1046.44 760.948 1045.79C761.01 1045.61 761.09 1045.43 761.168 1045.26C761.179 1045.24 761.187 1045.21 761.198 1045.18C761.218 1045.13 761.241 1045.07 761.269 1045.02C761.298 1044.95 761.332 1044.89 761.369 1044.82C761.401 1044.75 761.442 1044.67 761.489 1044.6C761.579 1044.45 761.679 1044.29 761.789 1044.13C761.87 1044.02 761.957 1043.91 762.05 1043.81C762.08 1043.75 762.118 1043.71 762.16 1043.66C762.2 1043.62 762.24 1043.57 762.29 1043.51C762.311 1043.48 762.339 1043.45 762.37 1043.42C762.449 1043.32 762.537 1043.23 762.631 1043.15C762.988 1042.79 763.37 1042.46 763.772 1042.16C763.912 1042.07 764.063 1041.97 764.203 1041.86C765.212 1041.2 766.275 1040.64 767.378 1040.2C767.758 1040.04 768.139 1039.9 768.549 1039.75C768.7 1039.7 768.84 1039.65 768.99 1039.59C769.21 1039.52 769.431 1039.44 769.661 1039.39C770.803 1039.01 772.035 1038.7 773.367 1038.4C773.767 1038.31 774.188 1038.23 774.609 1038.15C774.949 1038.08 775.3 1038.02 775.65 1037.95C778.625 1037.44 782 1037.06 785.725 1036.8C786.076 1036.78 786.426 1036.76 786.777 1036.74C787.187 1036.72 787.598 1036.7 788.019 1036.67C788.369 1036.65 788.73 1036.64 789.09 1036.63C789.441 1036.61 789.801 1036.6 790.172 1036.59C791.183 1036.55 792.225 1036.52 793.286 1036.5C796.311 1036.44 799.496 1036.47 802.841 1036.54C804.393 1036.58 805.976 1036.63 807.598 1036.71C807.698 1036.71 807.808 1036.72 807.908 1036.72C809.321 1036.76 810.753 1036.84 812.205 1036.91C813.226 1036.97 814.258 1037.02 815.289 1037.09C816.261 1037.15 817.242 1037.22 818.234 1037.3C819.005 1037.34 819.776 1037.41 820.557 1037.46C821.218 1037.52 821.879 1037.57 822.54 1037.61C823.331 1037.68 824.123 1037.75 824.924 1037.81C826.025 1037.91 827.127 1038.01 828.249 1038.11C829.36 1038.22 830.492 1038.33 831.624 1038.43C832.756 1038.54 833.897 1038.66 835.039 1038.78C835.159 1038.8 835.269 1038.81 835.379 1038.82C836.421 1038.94 837.463 1039.05 838.514 1039.17C844.343 1039.81 850.342 1040.57 856.511 1041.43C860.197 1041.95 863.929 1042.5 867.708 1043.08C873.446 1043.97 879.275 1044.93 885.144 1045.96C891.023 1047 896.935 1048.1 902.881 1049.25C904.383 1049.55 905.885 1049.84 907.397 1050.15C909.24 1050.52 911.083 1050.9 912.926 1051.29C914.087 1051.53 915.249 1051.77 916.411 1052.02C917.793 1052.32 919.185 1052.61 920.567 1052.91C929.671 1054.88 938.724 1056.98 947.557 1059.18C949.01 1059.54 950.462 1059.91 951.904 1060.27C954.788 1061 957.646 1061.75 960.477 1062.5C961.258 1062.71 962.029 1062.92 962.8 1063.12C964.733 1063.65 966.646 1064.17 968.539 1064.7V1064.71C968.649 1064.73 968.759 1064.77 968.869 1064.8C970.251 1065.18 971.623 1065.56 972.986 1065.96C976.2 1066.88 979.362 1067.8 982.47 1068.74C984.533 1069.37 986.576 1069.99 988.589 1070.63C991.603 1071.59 994.558 1072.55 997.432 1073.52C998.143 1073.76 998.854 1074 999.555 1074.23C1001.66 1074.95 1003.72 1075.67 1005.74 1076.38C1007.35 1076.95 1008.91 1077.53 1010.45 1078.11C1011.99 1078.69 1013.51 1079.27 1014.99 1079.85C1015.95 1080.22 1016.89 1080.61 1017.82 1080.98C1019.18 1081.52 1020.51 1082.07 1021.81 1082.63C1022.21 1082.79 1022.6 1082.97 1022.99 1083.13C1023.72 1083.44 1024.43 1083.76 1025.13 1084.07C1025.6 1084.27 1026.07 1084.48 1026.53 1084.7C1026.98 1084.89 1027.44 1085.1 1027.88 1085.31C1028.33 1085.51 1028.77 1085.71 1029.21 1085.93C1029.58 1086.1 1029.94 1086.27 1030.29 1086.45C1031 1086.79 1031.71 1087.12 1032.4 1087.47C1032.75 1087.65 1033.09 1087.81 1033.43 1087.99L1034.21 1088.38C1034.32 1088.45 1034.43 1088.5 1034.54 1088.56C1035.39 1089 1036.21 1089.43 1037.01 1089.87C1037.76 1090.29 1038.49 1090.7 1039.19 1091.11C1040.03 1091.59 1040.82 1092.06 1041.58 1092.54C1041.73 1092.63 1041.88 1092.73 1042.03 1092.81C1042.54 1093.13 1043.03 1093.46 1043.52 1093.78C1044.48 1094.42 1045.39 1095.06 1046.25 1095.69C1047.09 1096.32 1047.87 1096.95 1048.6 1097.57C1048.6 1097.58 1048.6 1097.58 1048.61 1097.58C1048.96 1097.89 1049.3 1098.2 1049.62 1098.49C1050.14 1098.98 1050.62 1099.45 1051.06 1099.93C1051.21 1100.08 1051.35 1100.24 1051.48 1100.4C1051.54 1100.46 1051.6 1100.52 1051.64 1100.58C1051.85 1100.83 1052.06 1101.08 1052.26 1101.33C1052.5 1101.64 1052.72 1101.95 1052.94 1102.25C1053.04 1102.41 1053.15 1102.56 1053.24 1102.71C1053.36 1102.9 1053.48 1103.1 1053.58 1103.28C1053.67 1103.43 1053.75 1103.6 1053.83 1103.75C1054.04 1104.15 1054.22 1104.56 1054.37 1104.99C1054.48 1105.28 1054.57 1105.58 1054.64 1105.89C1054.71 1106.18 1054.77 1106.47 1054.81 1106.77V1106.77Z" fill="black"/>
</g>
</g>
<defs>
<radialGradient id="paint0_radial_1_2" cx="0" cy="0" r="1" gradientUnits="userSpaceOnUse" gradientTransform="translate(319.091 805.806) rotate(-30) scale(491.159 646.894)">
<stop stop-color="#277A9C"/>
<stop offset="0.9999" stop-color="#277A9C" stop-opacity="0"/>
<stop offset="1" stop-color="#277A9C" stop-opacity="0"/>
</radialGradient>
<radialGradient id="paint1_radial_1_2" cx="0" cy="0" r="1" gradientUnits="userSpaceOnUse" gradientTransform="translate(1124.42 560.867) rotate(-30) scale(411.747 609.674)">
<stop stop-color="#277A9C"/>
<stop offset="0.9999" stop-color="#277A9C" stop-opacity="0"/>
<stop offset="1" stop-color="#277A9C" stop-opacity="0"/>
</radialGradient>
<radialGradient id="paint2_radial_1_2" cx="0" cy="0" r="1" gradientUnits="userSpaceOnUse" gradientTransform="translate(1665.97 280.461) rotate(-17.7377) scale(322.444 357.432)">
<stop stop-color="#277A9C"/>
<stop offset="0.9999" stop-color="#277A9C" stop-opacity="0"/>
<stop offset="1" stop-color="#277A9C" stop-opacity="0"/>
</radialGradient>
<clipPath id="clip0_1_2">
<rect width="1746" height="1116" fill="white"/>
</clipPath>
<clipPath id="clip1_1_2">
<rect width="788" height="626" fill="white" transform="translate(510 602)"/>
</clipPath>
</defs>
</svg>
